SplineFontDB: 3.0
FontName: Jost-Medium
FullName: Jost* 500 Medium
FamilyName: Jost* Medium
Weight: Medium
Copyright: This typeface is licensed under the SIL open font license.
UComments: "2018-6-8: Created with FontForge (http://fontforge.org)"
Version: 003.300
ItalicAngle: 0
UnderlinePosition: -100
UnderlineWidth: 50
Ascent: 800
Descent: 200
InvalidEm: 0
LayerCount: 2
Layer: 0 0 "Back" 1
Layer: 1 0 "Fore" 0
XUID: [1021 69 1495626776 15290027]
FSType: 0
OS2Version: 0
OS2_WeightWidthSlopeOnly: 0
OS2_UseTypoMetrics: 0
CreationTime: 1528475722
ModificationTime: 1536029131
PfmFamily: 17
TTFWeight: 500
TTFWidth: 5
LineGap: 100
VLineGap: 0
OS2TypoAscent: 825
OS2TypoAOffset: 0
OS2TypoDescent: -225
OS2TypoDOffset: 0
OS2TypoLinegap: 100
OS2WinAscent: 900
OS2WinAOffset: 0
OS2WinDescent: 300
OS2WinDOffset: 0
HheadAscent: 1030
HheadAOffset: 0
HheadDescent: -350
HheadDOffset: 0
OS2CapHeight: 700
OS2XHeight: 460
OS2Vendor: 'PfEd'
Lookup: 1 0 0 "alt a" { "alt a"  } ['ss01' ('DFLT' <'dflt' > 'latn' <'dflt' > ) ]
Lookup: 1 0 0 "Tabular Numbers lookup" { "Tabular Numbers lookup"  } ['tnum' ('DFLT' <'dflt' > 'grek' <'dflt' > 'latn' <'dflt' > ) ]
Lookup: 258 0 0 "Lets get our kern on" { "kernin like nobodys business" [150,0,4] } ['kern' ('DFLT' <'dflt' > 'latn' <'dflt' > ) ]
MarkAttachClasses: 1
DEI: 91125
KernClass2: 16 14 "kernin like nobodys business"
 15 slash seven V W
 175 quotedbl quotesingle asterisk grave dieresis ordfeminine macron degree acute ordmasculine circumflex breve dotaccent ring tilde quoteleft quoteright quotedblleft quotedblright
 17 nine question F P
 107 A L backslash Agrave Aacute Acircumflex Atilde Adieresis Aring Amacron Abreve Aogonek Lacute uni013B Lslash
 26 three eight B C germandbls
 5 K X Z
 125 at D G O Ograve Oacute Ocircumflex Otilde Odieresis Oslash Dcaron Dcroat Gcircumflex Gbreve Gdotaccent uni0122 Omacron Obreve

StartChar: H
Encoding: 72 72 0
Width: 700
VWidth: 0
Flags: HMW
LayerCount: 2
Fore
SplineSet
172 321 m 257
 209 430 l 257
 684 430 l 257
 646 321 l 257
 172 321 l 257
697 699 m 257
 817 700 l 257
 574 0 l 257
 460 0 l 257
 697 699 l 257
255 699 m 257
 374 700 l 257
 132 0 l 257
 18 0 l 257
 255 699 l 257
EndSplineSet
EndChar

StartChar: O
Encoding: 79 79 1
Width: 755
VWidth: 0
Flags: HMW
LayerCount: 2
Fore
SplineSet
222 350 m 256
 182 239 213 105 351 103 c 256
 493 101 618 224 664 350 c 256
 704 461 674 595 535 597 c 256
 393 599 268 476 222 350 c 256
98 350 m 256
 160 542 350 714 558 713 c 256
 760 712 844 527 788 350 c 256
 726 157 535 -16 326 -15 c 256
 123 -14 42 173 98 350 c 256
EndSplineSet
EndChar

StartChar: I
Encoding: 73 73 2
Width: 259
VWidth: 0
Flags: HMW
LayerCount: 2
Fore
SplineSet
255 700 m 257
 375 700 l 257
 134 0 l 257
 18 0 l 257
 255 700 l 257
EndSplineSet
EndChar

StartChar: C
Encoding: 67 67 3
Width: 650
VWidth: 0
Flags: HMW
LayerCount: 2
Fore
SplineSet
224 350 m 256
 184 238 221 108 356 105 c 256
 447 103 530 150 601 201 c 257
 558 61 l 257
 488 17 411 -14 327 -13 c 256
 126 -12 41 173 98 350 c 256
 160 544 350 712 559 713 c 256
 634 714 696 688 751 637 c 257
 707 497 l 257
 670 561 613 595 538 595 c 256
 398 594 270 477 224 350 c 256
EndSplineSet
EndChar

StartChar: E
Encoding: 69 69 4
Width: 537
VWidth: 0
Flags: HMW
LayerCount: 2
Fore
SplineSet
88 0 m 257
 123 105 l 257
 460 105 l 257
 424 0 l 257
 88 0 l 257
292 595 m 257
 327 700 l 257
 663 700 l 257
 627 595 l 257
 292 595 l 257
198 324 m 257
 234 426 l 257
 551 426 l 257
 515 324 l 257
 198 324 l 257
255 700 m 257
 371 700 l 257
 130 0 l 257
 18 0 l 257
 255 700 l 257
EndSplineSet
EndChar

StartChar: F
Encoding: 70 70 6
Width: 490
VWidth: 0
Flags: HMW
LayerCount: 2
Fore
SplineSet
290 593 m 257
 327 700 l 257
 625 700 l 257
 589 593 l 257
 290 593 l 257
196 316 m 257
 231 419 l 257
 520 419 l 257
 485 315 l 257
 196 316 l 257
255 700 m 257
 371 700 l 257
 130 0 l 257
 18 0 l 257
 255 700 l 257
EndSplineSet
EndChar

StartChar: G
Encoding: 71 71 7
Width: 744
VWidth: 0
Flags: HMW
LayerCount: 2
Fore
SplineSet
420 266 m 257
 457 366 l 257
 774 366 l 257
 710 173 555 -15 331 -15 c 256
 127 -15 40 172 98 350 c 256
 161 546 353 712 564 713 c 256
 677 714 760 656 804 554 c 257
 693 493 l 257
 669 563 617 602 541 601 c 256
 397 600 268 480 221 350 c 256
 180 236 212 98 354 97 c 256
 471 96 552 176 614 266 c 257
 420 266 l 257
EndSplineSet
EndChar

StartChar: T
Encoding: 84 84 8
Width: 474
VWidth: 0
Flags: HMW
LayerCount: 2
Fore
SplineSet
151 590 m 257
 190 700 l 257
 656 700 l 257
 617 590 l 257
 444 590 l 257
 241 0 l 257
 124 0 l 257
 327 590 l 257
 151 590 l 257
EndSplineSet
EndChar

StartChar: L
Encoding: 76 76 9
Width: 453
VWidth: 0
Flags: HMW
LayerCount: 2
Fore
SplineSet
256 700 m 257
 374 700 l 257
 170 107 l 257
 432 107 l 257
 394 0 l 257
 16 0 l 257
 256 700 l 257
EndSplineSet
EndChar

StartChar: D
Encoding: 68 68 10
Width: 659
VWidth: 0
Flags: HMW
LayerCount: 2
Fore
SplineSet
255 699 m 257
 376 700 l 257
 135 0 l 257
 18 0 l 257
 255 699 l 257
240 0 m 258
 86 0 l 257
 125 112 l 257
 261 112 l 258
 404 112 526 217 574 350 c 256
 618 470 574 588 437 588 c 258
 286 588 l 257
 326 700 l 257
 463 700 l 258
 661 700 752 532 693 350 c 256
 630 154 448 0 240 0 c 258
EndSplineSet
EndChar

StartChar: Q
Encoding: 81 81 11
Width: 771
VWidth: 0
Flags: HMW
LayerCount: 2
Fore
SplineSet
222 350 m 256
 181 237 214 100 355 98 c 256
 497 96 623 216 669 342 c 256
 710 455 678 595 536 597 c 256
 394 599 268 476 222 350 c 256
98 350 m 256
 160 543 352 714 560 713 c 256
 762 712 844 526 788 350 c 256
 726 157 536 -16 327 -15 c 256
 124 -14 42 173 98 350 c 256
400 300 m 257
 521 300 l 257
 714 -5 l 257
 591 -5 l 257
 400 300 l 257
EndSplineSet
EndChar

StartChar: A
Encoding: 65 65 12
Width: 649
VWidth: 0
Flags: HMW
LayerCount: 2
Fore
SplineSet
159 179 m 257
 213 278 l 257
 523 278 l 257
 510 179 l 257
 159 179 l 257
445 500 m 257
 255 244 l 257
 246 218 l 257
 79 0 l 257
 -58 0 l 257
 522 742 l 257
 592 0 l 257
 468 0 l 257
 452 212 l 257
 459 242 l 257
 445 500 l 257
EndSplineSet
EndChar

StartChar: R
Encoding: 82 82 13
Width: 560
VWidth: 0
Flags: HMW
LayerCount: 2
Fore
SplineSet
270 333 m 257
 388 333 l 257
 497 0 l 257
 368 0 l 257
 270 333 l 257
255 700 m 257
 374 700 l 257
 132 0 l 257
 18 0 l 257
 255 700 l 257
287 597 m 257
 324 700 l 257
 455 700 l 258
 580 700 664 610 627 481 c 256
 589 348 454 264 320 264 c 258
 173 264 l 257
 208 363 l 257
 335 363 l 258
 408 363 482 409 508 480 c 256
 532 546 495 596 428 596 c 258
 287 597 l 257
EndSplineSet
EndChar

StartChar: V
Encoding: 86 86 14
Width: 649
VWidth: 0
Flags: HMW
LayerCount: 2
Fore
SplineSet
352 212 m 257
 696 699 l 257
 835 699 l 257
 280 -42 l 257
 185 700 l 257
 311 700 l 257
 352 212 l 257
EndSplineSet
EndChar

StartChar: M
Encoding: 77 77 15
Width: 793
VWidth: 0
Flags: HMW
LayerCount: 2
Fore
SplineSet
291 423 m 257
 100 0 l 257
 -23 0 l 257
 322 736 l 257
 428 265 l 257
 869 744 l 257
 705 0 l 257
 585 0 l 257
 685 414 l 257
 367 63 l 257
 291 423 l 257
EndSplineSet
EndChar

StartChar: W
Encoding: 87 87 16
Width: 960
VWidth: 0
Flags: HMW
LayerCount: 2
Fore
SplineSet
702 226 m 257
 1001 699 l 257
 1140 699 l 257
 639 -41 l 257
 589 451 l 257
 231 -42 l 257
 189 700 l 257
 319 700 l 257
 323 227 l 257
 673 740 l 257
 702 226 l 257
EndSplineSet
EndChar

StartChar: N
Encoding: 78 78 17
Width: 736
VWidth: 0
Flags: HMW
LayerCount: 2
Fore
SplineSet
737 700 m 257
 851 700 l 257
 600 -32 l 257
 292 469 l 257
 131 0 l 257
 15 0 l 257
 267 732 l 257
 575 231 l 257
 737 700 l 257
EndSplineSet
EndChar

StartChar: a
Encoding: 97 97 18
Width: 479
VWidth: 0
Flags: HMW
LayerCount: 2
Fore
SplineSet
122 136 m 256
 111 97 139 76 174 74 c 256
 247 70 298 124 333 182 c 257
 331 128 l 257
 291 48 221 -9 128 -9 c 256
 46 -9 -10 50 14 132 c 256
 43 230 150 282 247 282 c 256
 301 282 344 264 381 226 c 257
 363 171 l 257
 330 198 296 214 252 213 c 256
 201 212 136 189 122 136 c 256
171 338 m 257
 152 419 l 257
 212 448 276 472 344 471 c 256
 430 470 513 421 484 327 c 257
 372 0 l 257
 267 0 l 257
 379 315 l 257
 392 354 365 378 321 381 c 256
 269 384 217 359 171 338 c 257
EndSplineSet
Substitution2: "alt a" a.alt
EndChar

StartChar: X
Encoding: 88 88 19
Width: 573
VWidth: 0
Flags: HMW
LayerCount: 2
Fore
SplineSet
593 699 m 257
 740 699 l 257
 430 358 l 257
 530 0 l 257
 397 0 l 257
 340 264 l 257
 114 0 l 257
 -33 0 l 257
 305 369 l 257
 214 700 l 257
 347 700 l 257
 396 468 l 257
 593 699 l 257
EndSplineSet
EndChar

StartChar: K
Encoding: 75 75 20
Width: 583
VWidth: 0
Flags: HMW
LayerCount: 2
Fore
SplineSet
255 700 m 257
 376 700 l 257
 135 0 l 257
 18 0 l 257
 255 700 l 257
611 699 m 257
 760 699 l 257
 362 367 l 257
 525 0 l 257
 393 0 l 257
 227 375 l 257
 611 699 l 257
EndSplineSet
EndChar

StartChar: Y
Encoding: 89 89 21
Width: 566
VWidth: 0
Flags: HMW
LayerCount: 2
Fore
SplineSet
616 699 m 257
 755 699 l 257
 387 289 l 257
 287 0 l 257
 169 0 l 257
 274 301 l 257
 189 700 l 257
 314 700 l 257
 363 406 l 257
 616 699 l 257
EndSplineSet
EndChar

StartChar: B
Encoding: 66 66 22
Width: 566
VWidth: 0
Flags: HMW
LayerCount: 2
Fore
SplineSet
227 362 m 257
 246 418 l 257
 348 419 l 258
 405 420 467 453 488 511 c 256
 507 565 475 600 423 601 c 258
 340 602 l 257
 166 98 l 257
 249 99 l 258
 322 100 399 142 425 215 c 256
 449 283 406 325 340 326 c 258
 214 327 l 257
 237 392 l 257
 358 393 l 258
 471 391 576 328 538 201 c 256
 498 69 367 0 238 0 c 258
 16 0 l 257
 256 700 l 257
 450 700 l 258
 554 700 648 639 611 523 c 256
 576 412 455 364 348 362 c 258
 227 362 l 257
EndSplineSet
EndChar

StartChar: Z
Encoding: 90 90 23
Width: 541
VWidth: 0
Flags: HMW
LayerCount: 2
Fore
SplineSet
186 590 m 257
 225 700 l 257
 716 699 l 257
 182 108 l 257
 486 107 l 257
 448 0 l 257
 -49 0 l 257
 484 589 l 257
 186 590 l 257
EndSplineSet
EndChar

StartChar: o
Encoding: 111 111 24
Width: 530
VWidth: 0
Flags: HMW
LayerCount: 2
Fore
SplineSet
66 230 m 256
 103 360 231 470 369 470 c 256
 503 470 573 353 538 230 c 256
 501 100 373 -9 235 -9 c 256
 102 -9 31 107 66 230 c 256
174 230 m 256
 152 166 173 89 251 87 c 256
 331 85 406 158 430 230 c 256
 452 294 430 371 352 373 c 256
 272 375 198 302 174 230 c 256
EndSplineSet
EndChar

StartChar: J
Encoding: 74 74 25
Width: 260
VWidth: 0
Flags: HMW
LayerCount: 2
Fore
SplineSet
-155 -88 m 257
 -138 -107 -121 -124 -93 -122 c 256
 -47 -119 -10 -75 4 -35 c 258
 256 700 l 257
 376 700 l 257
 118 -58 l 258
 82 -156 -5 -228 -112 -227 c 256
 -164 -226 -203 -206 -241 -173 c 257
 -155 -88 l 257
EndSplineSet
EndChar

StartChar: t
Encoding: 116 116 26
Width: 255
VWidth: 0
Flags: HMW
LayerCount: 2
Fore
SplineSet
109 460 m 257
 359 460 l 257
 325 364 l 257
 74 364 l 257
 109 460 l 257
232 619 m 257
 339 620 l 257
 125 0 l 257
 23 0 l 257
 232 619 l 257
EndSplineSet
EndChar

StartChar: d
Encoding: 100 100 27
Width: 554
VWidth: 0
Flags: HMW
LayerCount: 2
Fore
SplineSet
599 779 m 257
 709 780 l 257
 440 0 l 257
 335 0 l 257
 599 779 l 257
53 230 m 256
 91 351 208 471 342 470 c 256
 474 469 484 329 452 230 c 256
 416 116 323 -8 193 -9 c 256
 60 -10 18 120 53 230 c 256
163 230 m 256
 140 167 156 87 236 86 c 256
 315 85 387 161 413 230 c 256
 434 289 424 370 348 374 c 256
 266 378 189 301 163 230 c 256
EndSplineSet
EndChar

StartChar: l
Encoding: 108 108 28
Width: 231
VWidth: 0
Flags: HMW
LayerCount: 2
Fore
SplineSet
274 779 m 257
 383 780 l 257
 114 0 l 257
 10 0 l 257
 274 779 l 257
EndSplineSet
EndChar

StartChar: i
Encoding: 105 105 29
Width: 250
VWidth: 0
Flags: HMW
LayerCount: 2
Fore
SplineSet
223 642 m 256
 223 680 253 708 291 708 c 256
 329 708 359 680 359 642 c 256
 359 604 329 577 291 577 c 256
 253 577 223 604 223 642 c 256
174 459 m 257
 282 459 l 257
 125 0 l 257
 20 0 l 257
 174 459 l 257
EndSplineSet
EndChar

StartChar: r
Encoding: 114 114 30
Width: 351
VWidth: 0
Flags: HMW
LayerCount: 2
Fore
SplineSet
272 460 m 257
 113 0 l 257
 7 0 l 257
 166 460 l 257
 272 460 l 257
366 344 m 257
 352 356 338 367 318 368 c 256
 259 370 222 304 202 259 c 257
 177 282 l 257
 210 360 279 469 369 470 c 256
 402 471 422 454 444 433 c 257
 366 344 l 257
EndSplineSet
EndChar

StartChar: c
Encoding: 99 99 31
Width: 455
VWidth: 0
Flags: HMW
LayerCount: 2
Fore
SplineSet
171 230 m 256
 148 162 174 88 254 85 c 256
 318 83 376 120 423 160 c 257
 391 41 l 257
 343 11 290 -9 232 -9 c 256
 98 -8 28 106 63 230 c 256
 100 362 228 468 367 469 c 256
 420 469 465 453 504 419 c 257
 470 299 l 257
 448 348 412 376 356 375 c 256
 271 374 196 306 171 230 c 256
EndSplineSet
EndChar

StartChar: b
Encoding: 98 98 32
Width: 554
VWidth: 0
Flags: HMW
LayerCount: 2
Fore
SplineSet
380 780 m 257
 112 0 l 257
 4 0 l 257
 272 780 l 257
 380 780 l 257
549 230 m 256
 511 109 396 -11 262 -10 c 256
 130 -9 119 131 151 230 c 256
 187 344 281 468 411 469 c 256
 544 470 584 340 549 230 c 256
440 230 m 256
 463 293 447 373 367 374 c 256
 288 375 216 299 190 230 c 256
 169 171 179 90 255 86 c 256
 337 82 414 159 440 230 c 256
EndSplineSet
EndChar

StartChar: p
Encoding: 112 112 33
Width: 554
VWidth: 0
Flags: HMW
LayerCount: 2
Fore
SplineSet
38 -219 m 257
 -72 -220 l 257
 163 460 l 257
 267 459 l 257
 38 -219 l 257
549 230 m 256
 511 109 396 -15 261 -13 c 256
 127 -11 122 131 154 230 c 256
 190 344 281 471 412 472 c 256
 547 473 584 340 549 230 c 256
440 231 m 256
 463 295 446 371 367 372 c 256
 289 373 215 298 190 229 c 256
 169 169 181 92 256 88 c 256
 337 84 414 160 440 231 c 256
EndSplineSet
EndChar

StartChar: q
Encoding: 113 113 34
Width: 554
VWidth: 0
Flags: HMW
LayerCount: 2
Fore
SplineSet
258 -220 m 257
 492 460 l 257
 600 460 l 257
 366 -220 l 257
 258 -220 l 257
53 230 m 256
 91 351 207 475 342 473 c 256
 476 471 482 329 450 230 c 256
 414 116 323 -11 192 -12 c 256
 57 -13 18 120 53 230 c 256
163 229 m 256
 140 165 158 89 237 88 c 256
 315 87 388 162 413 231 c 256
 434 291 422 368 347 372 c 256
 266 376 189 300 163 229 c 256
EndSplineSet
EndChar

StartChar: h
Encoding: 104 104 35
Width: 510
VWidth: 0
Flags: HMW
LayerCount: 2
Fore
SplineSet
383 780 m 257
 115 0 l 257
 8 0 l 257
 275 780 l 257
 383 780 l 257
385 280 m 258
 398 322 404 377 346 381 c 256
 284 385 239 328 211 281 c 257
 183 282 l 257
 220 373 289 471 398 472 c 256
 504 473 520 379 494 295 c 257
 393 0 l 257
 288 0 l 257
 385 280 l 258
EndSplineSet
EndChar

StartChar: n
Encoding: 110 110 36
Width: 512
VWidth: 0
Flags: HMW
LayerCount: 2
Fore
SplineSet
273 460 m 257
 115 0 l 257
 7 0 l 257
 166 460 l 257
 273 460 l 257
385 280 m 258
 398 322 404 377 346 381 c 256
 284 385 239 329 211 282 c 257
 183 279 l 257
 220 370 288 469 397 470 c 256
 503 471 522 378 496 293 c 257
 396 0 l 257
 288 0 l 257
 385 280 l 258
EndSplineSet
EndChar

StartChar: m
Encoding: 109 109 37
Width: 749
VWidth: 0
Flags: HMW
LayerCount: 2
Fore
SplineSet
364 280 m 258
 376 318 389 376 333 380 c 256
 274 385 233 327 208 282 c 257
 180 279 l 257
 216 367 280 469 387 470 c 256
 492 471 496 375 473 295 c 256
 372 0 l 257
 266 0 l 257
 364 280 l 258
271 460 m 257
 112 0 l 257
 7 0 l 257
 166 460 l 257
 271 460 l 257
732 293 m 258
 633 0 l 257
 524 0 l 257
 624 280 l 258
 636 318 649 376 593 380 c 256
 534 385 493 327 468 282 c 257
 423 279 l 257
 462 370 537 470 647 470 c 256
 753 470 756 373 732 293 c 258
EndSplineSet
EndChar

StartChar: k
Encoding: 107 107 38
Width: 466
VWidth: 0
Flags: HMW
LayerCount: 2
Fore
SplineSet
270 779 m 257
 378 780 l 257
 109 0 l 257
 6 0 l 257
 270 779 l 257
417 459 m 257
 557 459 l 257
 293 259 l 257
 408 0 l 257
 290 0 l 257
 172 276 l 257
 417 459 l 257
EndSplineSet
EndChar

StartChar: u
Encoding: 117 117 39
Width: 512
VWidth: 0
Flags: HMW
LayerCount: 2
Fore
SplineSet
288 0 m 257
 447 460 l 257
 555 460 l 257
 396 0 l 257
 288 0 l 257
177 180 m 257
 164 138 159 83 216 79 c 256
 278 75 323 131 351 178 c 257
 379 181 l 257
 342 90 274 -9 165 -10 c 256
 59 -11 41 82 66 167 c 257
 167 460 l 257
 274 459 l 257
 177 180 l 257
EndSplineSet
EndChar

StartChar: e
Encoding: 101 101 40
Width: 507
VWidth: 0
Flags: HMW
LayerCount: 2
Fore
SplineSet
122 205 m 257
 144 279 l 257
 416 279 l 257
 428 331 411 385 347 386 c 256
 270 387 213 321 184 257 c 258
 173 230 l 257
 152 166 159 84 242 81 c 256
 300 79 347 117 388 153 c 257
 474 112 l 257
 407 43 323 -10 223 -9 c 256
 89 -7 34 110 66 230 c 256
 71 247 77 263 84 279 c 256
 133 386 241 470 362 469 c 256
 499 468 545 355 515 235 c 256
 512 225 509 215 506 205 c 257
 122 205 l 257
EndSplineSet
EndChar

StartChar: g
Encoding: 103 103 41
Width: 551
VWidth: 0
Flags: HMW
LayerCount: 2
Fore
SplineSet
-27 -31 m 257
 75 -32 l 257
 69 -92 87 -137 155 -138 c 256
 241 -140 310 -64 336 10 c 258
 492 460 l 257
 597 460 l 257
 443 10 l 258
 398 -120 302 -232 150 -233 c 256
 24 -234 -46 -151 -27 -31 c 257
54 233 m 256
 92 354 209 471 342 470 c 256
 473 469 485 332 453 232 c 256
 418 119 323 -3 194 -4 c 256
 61 -5 19 123 54 233 c 256
164 232 m 256
 141 168 159 92 238 91 c 256
 316 90 389 164 414 233 c 256
 435 293 423 371 348 374 c 256
 264 377 190 303 164 232 c 256
EndSplineSet
EndChar

StartChar: f
Encoding: 102 102 42
Width: 291
VWidth: 0
Flags: HMW
LayerCount: 2
Fore
SplineSet
130 460 m 257
 384 460 l 257
 350 364 l 257
 96 364 l 257
 130 460 l 257
445 664 m 257
 436 676 427 690 410 690 c 256
 370 690 346 639 334 608 c 258
 124 0 l 257
 19 0 l 257
 234 631 l 258
 265 713 330 795 427 792 c 256
 466 791 492 772 518 745 c 257
 445 664 l 257
EndSplineSet
EndChar

StartChar: s
Encoding: 115 115 43
Width: 399
VWidth: 0
Flags: HMW
LayerCount: 2
Fore
SplineSet
93 166 m 257
 114 126 142 76 195 77 c 256
 224 77 264 97 273 126 c 256
 286 170 238 189 207 204 c 256
 148 232 100 276 119 347 c 256
 140 427 219 469 304 469 c 256
 370 469 420 437 455 387 c 257
 382 325 l 257
 361 354 335 382 295 383 c 256
 269 384 228 370 219 342 c 256
 205 299 272 283 299 270 c 256
 356 243 399 192 382 125 c 256
 360 38 282 -14 187 -14 c 256
 103 -14 51 41 17 105 c 257
 93 166 l 257
EndSplineSet
EndChar

StartChar: y
Encoding: 121 121 44
Width: 444
VWidth: 0
Flags: HMW
LayerCount: 2
Fore
SplineSet
558 459 m 257
 42 -219 l 257
 -77 -219 l 257
 137 60 l 257
 101 460 l 257
 210 460 l 257
 230 96 l 257
 179 100 l 257
 439 459 l 257
 558 459 l 257
EndSplineSet
EndChar

StartChar: w
Encoding: 119 119 45
Width: 670
VWidth: 0
Flags: HMW
LayerCount: 2
Fore
SplineSet
105 460 m 257
 214 460 l 257
 219 193 l 257
 447 499 l 257
 465 191 l 257
 660 459 l 257
 781 459 l 257
 404 -36 l 257
 377 273 l 257
 137 -37 l 257
 105 460 l 257
EndSplineSet
EndChar

StartChar: v
Encoding: 118 118 46
Width: 447
VWidth: 0
Flags: HMW
LayerCount: 2
Fore
SplineSet
107 460 m 257
 220 460 l 257
 240 171 l 257
 442 459 l 257
 562 459 l 257
 178 -46 l 257
 107 460 l 257
EndSplineSet
EndChar

StartChar: x
Encoding: 120 120 47
Width: 438
VWidth: 0
Flags: HMW
LayerCount: 2
Fore
SplineSet
417 459 m 257
 544 459 l 257
 315 229 l 257
 402 0 l 257
 292 0 l 257
 236 161 l 257
 88 0 l 257
 -41 0 l 257
 203 249 l 257
 119 460 l 257
 232 460 l 257
 283 317 l 257
 417 459 l 257
EndSplineSet
EndChar

StartChar: z
Encoding: 122 122 48
Width: 456
VWidth: 0
Flags: HMW
LayerCount: 2
Fore
SplineSet
328 359 m 257
 113 359 l 257
 148 460 l 257
 552 460 l 257
 182 101 l 257
 403 101 l 257
 367 0 l 257
 -46 0 l 257
 328 359 l 257
EndSplineSet
EndChar

StartChar: j
Encoding: 106 106 49
Width: 243
VWidth: 0
Flags: HMW
LayerCount: 2
Fore
SplineSet
215 642 m 256
 215 680 245 708 283 708 c 256
 321 708 351 680 351 642 c 256
 351 604 321 577 283 577 c 256
 245 577 215 604 215 642 c 256
-116 -100 m 257
 -108 -112 -92 -124 -78 -125 c 256
 -39 -128 -14 -71 -4 -43 c 258
 169 460 l 257
 275 460 l 257
 96 -66 l 258
 65 -148 8 -230 -89 -227 c 256
 -128 -226 -161 -207 -188 -180 c 257
 -116 -100 l 257
EndSplineSet
EndChar

StartChar: P
Encoding: 80 80 50
Width: 544
VWidth: 0
Flags: HMW
LayerCount: 2
Fore
SplineSet
255 699 m 257
 374 700 l 257
 132 0 l 257
 18 0 l 257
 255 699 l 257
287 596 m 257
 324 700 l 257
 450 700 l 258
 576 699 657 611 622 481 c 256
 586 347 451 265 316 264 c 258
 173 264 l 257
 211 369 l 257
 337 369 l 258
 409 372 482 411 508 482 c 256
 532 549 494 594 428 595 c 258
 287 596 l 257
EndSplineSet
EndChar

StartChar: U
Encoding: 85 85 51
Width: 618
VWidth: 0
Flags: HMW
LayerCount: 2
Fore
SplineSet
252 700 m 257
 369 700 l 257
 207 235 l 258
 187 169 196 94 280 93 c 256
 380 92 434 160 461 235 c 257
 621 700 l 257
 738 700 l 257
 578 230 l 258
 531 94 431 -17 258 -17 c 256
 114 -17 49 102 91 230 c 257
 252 700 l 257
EndSplineSet
EndChar

StartChar: S
Encoding: 83 83 52
Width: 545
VWidth: 0
Flags: HMW
LayerCount: 2
Fore
SplineSet
144 236 m 257
 155 169 177 94 259 94 c 256
 318 93 376 133 397 188 c 256
 424 260 358 296 303 323 c 256
 219 363 163 428 193 526 c 256
 228 639 346 712 462 712 c 256
 560 712 614 648 636 559 c 257
 533 505 l 257
 519 556 495 604 434 605 c 256
 384 606 329 570 312 522 c 256
 288 455 371 426 417 403 c 256
 503 362 549 288 520 192 c 256
 483 71 361 -14 235 -14 c 256
 119 -14 57 74 40 179 c 257
 144 236 l 257
EndSplineSet
EndChar

StartChar: at
Encoding: 64 64 53
Width: 724
VWidth: 0
Flags: HMW
LayerCount: 2
Fore
SplineSet
324 320 m 256
 313 288 313 245 354 240 c 256
 416 232 480 316 497 368 c 256
 508 401 505 443 464 447 c 256
 403 453 341 370 324 320 c 256
233 316 m 256
 261 411 358 534 468 529 c 256
 553 526 557 432 538 369 c 256
 510 274 426 156 315 158 c 256
 227 160 212 246 233 316 c 256
80 320 m 256
 146 525 347 716 572 715 c 256
 755 714 831 550 779 390 c 256
 745 287 652 139 527 147 c 256
 454 151 457 213 469 268 c 257
 463 281 l 257
 573 519 l 257
 663 519 l 257
 552 297 l 258
 548 288 543 279 540 270 c 256
 536 254 532 233 552 227 c 256
 614 207 678 348 694 390 c 256
 737 506 702 633 560 635 c 256
 380 637 222 480 165 320 c 256
 120 194 158 68 308 64 c 256
 379 62 447 86 511 112 c 257
 526 38 l 257
 452 4 373 -17 291 -16 c 256
 96 -13 24 148 80 320 c 256
EndSplineSet
EndChar

StartChar: period
Encoding: 46 46 54
Width: 290
VWidth: 0
Flags: HMW
LayerCount: 2
Fore
SplineSet
41 52 m 256
 41 91 71 122 111 122 c 256
 151 122 182 91 182 52 c 256
 182 13 151 -18 111 -18 c 256
 71 -18 41 13 41 52 c 256
EndSplineSet
EndChar

StartChar: comma
Encoding: 44 44 55
Width: 295
VWidth: 0
Flags: HMW
LayerCount: 2
Fore
SplineSet
107 108 m 257
 209 75 l 257
 14 -169 l 257
 -63 -146 l 257
 107 108 l 257
EndSplineSet
EndChar

StartChar: colon
Encoding: 58 58 56
Width: 290
VWidth: 0
Flags: HMW
LayerCount: 2
Fore
SplineSet
38 52 m 256
 38 91 69 122 109 122 c 256
 149 122 179 91 179 52 c 256
 179 13 149 -18 109 -18 c 256
 69 -18 38 13 38 52 c 256
167 429 m 256
 167 468 198 499 238 499 c 256
 278 499 308 468 308 429 c 256
 308 390 278 359 238 359 c 256
 198 359 167 390 167 429 c 256
EndSplineSet
EndChar

StartChar: semicolon
Encoding: 59 59 57
Width: 334
VWidth: 0
Flags: HMW
LayerCount: 2
Fore
SplineSet
203 426 m 256
 203 465 234 496 274 496 c 256
 314 496 345 465 345 426 c 256
 345 387 314 356 274 356 c 256
 234 356 203 387 203 426 c 256
116 108 m 257
 217 75 l 257
 23 -169 l 257
 -54 -146 l 257
 116 108 l 257
EndSplineSet
EndChar

StartChar: quotedbl
Encoding: 34 34 58
Width: 457
VWidth: 0
Flags: HMW
LayerCount: 2
Fore
SplineSet
291 699 m 257
 414 699 l 257
 226 394 l 257
 152 393 l 257
 291 699 l 257
472 699 m 257
 596 699 l 257
 408 394 l 257
 334 393 l 257
 472 699 l 257
EndSplineSet
EndChar

StartChar: exclam
Encoding: 33 33 59
Width: 299
VWidth: 0
Flags: HMW
LayerCount: 2
Fore
SplineSet
268 700 m 257
 402 700 l 257
 212 214 l 257
 126 214 l 257
 268 700 l 257
42 49 m 256
 42 88 73 117 113 117 c 256
 153 117 185 88 185 49 c 256
 185 10 153 -19 113 -19 c 256
 73 -19 42 10 42 49 c 256
EndSplineSet
EndChar

StartChar: quotesingle
Encoding: 39 39 60
Width: 276
VWidth: 0
Flags: HMW
LayerCount: 2
Fore
SplineSet
291 699 m 257
 414 699 l 257
 226 394 l 257
 152 393 l 257
 291 699 l 257
EndSplineSet
EndChar

StartChar: numbersign
Encoding: 35 35 61
Width: 593
VWidth: 0
Flags: HMW
LayerCount: 2
Fore
SplineSet
163 429 m 257
 191 516 l 257
 684 516 l 257
 655 429 l 257
 522 428 l 257
 504 431 l 257
 318 431 l 257
 300 428 l 257
 163 429 l 257
42 189 m 257
 71 276 l 257
 193 277 l 257
 214 274 l 257
 413 274 l 257
 437 277 l 257
 565 276 l 257
 536 189 l 257
 42 189 l 257
615 699 m 257
 718 699 l 257
 316 0 l 257
 216 0 l 257
 346 226 l 257
 362 247 l 257
 482 459 l 257
 492 482 l 257
 615 699 l 257
406 699 m 257
 508 699 l 257
 384 485 l 257
 368 462 l 257
 246 247 l 257
 237 226 l 257
 106 0 l 257
 10 0 l 257
 406 699 l 257
EndSplineSet
EndChar

StartChar: hyphen
Encoding: 45 45 62
Width: 201
VWidth: 0
Flags: HMW
LayerCount: 2
Fore
SplineSet
14 189 m 257
 47 287 l 257
 245 287 l 257
 211 189 l 257
 14 189 l 257
EndSplineSet
EndChar

StartChar: dollar
Encoding: 36 36 63
Width: 561
VWidth: 0
Flags: HMW
LayerCount: 2
Fore
SplineSet
461 817 m 257
 554 817 l 257
 500 656 l 257
 413 656 l 257
 461 817 l 257
229 53 m 257
 316 53 l 257
 266 -111 l 257
 174 -111 l 257
 229 53 l 257
543 504 m 257
 530 555 510 609 449 610 c 256
 398 611 341 578 324 528 c 256
 299 456 382 427 432 403 c 256
 517 362 567 288 541 192 c 256
 508 69 386 -10 262 -9 c 256
 148 -8 85 76 62 178 c 257
 164 236 l 257
 178 169 202 94 285 94 c 256
 343 94 401 132 419 188 c 256
 443 261 374 296 319 323 c 256
 235 364 178 436 206 533 c 256
 237 640 357 709 464 709 c 256
 561 709 620 648 645 559 c 257
 543 504 l 257
EndSplineSet
EndChar

StartChar: bar
Encoding: 124 124 64
Width: 287
VWidth: 0
Flags: HMW
LayerCount: 2
Fore
SplineSet
300 784 m 257
 403 784 l 257
 96 -214 l 257
 -8 -214 l 257
 300 784 l 257
EndSplineSet
EndChar

StartChar: zero
Encoding: 48 48 65
Width: 588
VWidth: 0
Flags: HMW
LayerCount: 2
Fore
SplineSet
215 350 m 256
 190 280 143 101 266 97 c 256
 390 93 469 252 504 350 c 256
 529 420 577 599 454 603 c 256
 330 607 250 448 215 350 c 256
101 350 m 256
 154 511 285 712 475 711 c 256
 669 710 663 485 619 350 c 256
 566 189 435 -12 244 -11 c 256
 50 -10 57 215 101 350 c 256
EndSplineSet
Substitution2: "Tabular Numbers lookup" uniFF10
EndChar

StartChar: one
Encoding: 49 49 66
Width: 446
VWidth: 0
Flags: HMW
LayerCount: 2
Fore
SplineSet
194 534 m 257
 236 650 l 257
 526 713 l 257
 281 0 l 257
 166 0 l 257
 364 577 l 257
 194 534 l 257
EndSplineSet
Substitution2: "Tabular Numbers lookup" uniFF11
EndChar

StartChar: two
Encoding: 50 50 67
Width: 569
VWidth: 0
Flags: HMW
LayerCount: 2
Fore
SplineSet
-18 0 m 257
 388 341 l 258
 437 382 497 431 516 496 c 256
 532 551 505 602 445 604 c 256
 358 607 305 522 274 453 c 257
 159 453 l 257
 207 587 313 713 467 712 c 256
 583 711 669 618 637 501 c 256
 615 421 553 355 489 304 c 258
 244 112 l 257
 526 111 l 257
 491 0 l 257
 -18 0 l 257
EndSplineSet
Substitution2: "Tabular Numbers lookup" uniFF12
EndChar

StartChar: four
Encoding: 52 52 68
Width: 593
VWidth: 0
Flags: HMW
LayerCount: 2
Fore
SplineSet
6 135 m 257
 568 698 l 257
 643 699 l 257
 404 0 l 257
 284 0 l 257
 345 176 l 257
 356 187 l 257
 457 475 l 257
 210 229 l 257
 426 228 l 257
 446 237 l 257
 590 237 l 257
 555 134 l 257
 6 135 l 257
EndSplineSet
Substitution2: "Tabular Numbers lookup" uniFF14
EndChar

StartChar: slash
Encoding: 47 47 69
Width: 520
VWidth: 0
Flags: HMW
LayerCount: 2
Fore
SplineSet
585 699 m 257
 698 699 l 257
 16 -149 l 257
 -94 -148 l 257
 585 699 l 257
EndSplineSet
EndChar

StartChar: backslash
Encoding: 92 92 70
Width: 496
VWidth: 0
Flags: HMW
LayerCount: 2
Fore
SplineSet
198 701 m 257
 302 700 l 257
 426 0 l 257
 327 0 l 257
 198 701 l 257
EndSplineSet
EndChar

StartChar: eight
Encoding: 56 56 71
Width: 544
VWidth: 0
Flags: HMW
LayerCount: 2
Fore
SplineSet
199 532 m 256
 232 637 346 713 454 712 c 256
 556 711 630 633 600 530 c 256
 568 422 456 351 346 351 c 256
 242 351 167 427 199 532 c 256
304 518 m 256
 289 474 304 422 356 421 c 256
 413 420 470 471 488 519 c 256
 504 563 488 616 435 617 c 256
 377 618 322 568 304 518 c 256
59 191 m 256
 95 310 223 393 345 392 c 256
 460 392 544 305 508 189 c 256
 472 72 343 -13 222 -12 c 256
 109 -11 25 78 59 191 c 256
177 206 m 256
 157 151 178 90 242 89 c 256
 311 88 379 146 401 207 c 256
 419 259 397 321 335 322 c 256
 268 323 199 264 177 206 c 256
EndSplineSet
Substitution2: "Tabular Numbers lookup" uniFF18
EndChar

StartChar: nine
Encoding: 57 57 72
Width: 577
VWidth: 0
Flags: HMW
LayerCount: 2
Fore
SplineSet
530 464 m 256
 552 530 527 606 448 607 c 256
 366 608 291 537 266 463 c 256
 244 397 268 319 347 318 c 256
 429 317 505 390 530 464 c 256
238 2 m 257
 84 2 l 257
 380 274 l 257
 402 275 l 257
 367 253 332 236 290 237 c 256
 168 239 125 361 154 464 c 256
 192 601 324 712 468 712 c 256
 608 712 679 593 642 464 c 256
 624 400 584 344 538 298 c 258
 238 2 l 257
EndSplineSet
Substitution2: "Tabular Numbers lookup" uniFF19
EndChar

StartChar: three
Encoding: 51 51 73
Width: 542
VWidth: 0
Flags: HMW
LayerCount: 2
Fore
SplineSet
318 343 m 257
 335 406 l 257
 401 417 478 445 500 516 c 256
 514 561 497 607 445 609 c 256
 383 611 341 562 313 514 c 257
 203 515 l 257
 246 624 339 711 463 711 c 256
 569 711 646 628 616 521 c 256
 579 391 437 350 318 343 c 257
248 -12 m 256
 120 -11 57 80 76 201 c 257
 190 200 l 257
 184 140 201 94 269 92 c 256
 335 90 400 139 420 201 c 256
 447 283 377 309 310 317 c 257
 329 384 l 257
 446 377 571 328 532 187 c 256
 498 65 370 -13 248 -12 c 256
EndSplineSet
Substitution2: "Tabular Numbers lookup" uniFF13
EndChar

StartChar: five
Encoding: 53 53 74
Width: 561
VWidth: 0
Flags: HMW
LayerCount: 2
Fore
SplineSet
562 227 m 256
 523 90 392 -10 249 -11 c 256
 150 -11 79 38 32 114 c 257
 121 198 l 257
 148 145 188 102 255 101 c 256
 336 100 417 157 442 235 c 256
 464 306 424 364 350 368 c 256
 281 371 215 343 153 316 c 257
 357 700 l 257
 702 700 l 257
 668 595 l 257
 417 595 l 257
 318 435 l 257
 353 449 389 460 427 460 c 256
 554 458 592 333 562 227 c 256
EndSplineSet
Substitution2: "Tabular Numbers lookup" uniFF15
EndChar

StartChar: six
Encoding: 54 54 75
Width: 577
VWidth: 0
Flags: HMW
LayerCount: 2
Fore
SplineSet
196 236 m 256
 174 170 198 94 277 93 c 256
 359 92 435 163 460 237 c 256
 482 303 458 381 379 382 c 256
 297 383 221 310 196 236 c 256
487 698 m 257
 642 698 l 257
 346 426 l 257
 323 425 l 257
 358 447 394 464 436 463 c 256
 558 461 601 339 572 236 c 256
 534 99 402 -12 258 -12 c 256
 118 -12 47 107 84 236 c 256
 102 300 142 356 188 402 c 258
 487 698 l 257
EndSplineSet
Substitution2: "Tabular Numbers lookup" uniFF16
EndChar

StartChar: seven
Encoding: 55 55 76
Width: 523
VWidth: 0
Flags: HMW
LayerCount: 2
Fore
SplineSet
172 588 m 257
 208 700 l 257
 708 699 l 257
 174 0 l 257
 44 0 l 257
 496 587 l 257
 172 588 l 257
EndSplineSet
Substitution2: "Tabular Numbers lookup" uniFF17
EndChar

StartChar: plus
Encoding: 43 43 77
Width: 601
VWidth: 0
Flags: HMW
LayerCount: 2
Fore
SplineSet
77 208 m 257
 113 314 l 257
 597 314 l 257
 560 207 l 257
 77 208 l 257
366 516 m 257
 481 517 l 257
 303 5 l 257
 194 6 l 257
 366 516 l 257
EndSplineSet
EndChar

StartChar: equal
Encoding: 61 61 78
Width: 582
VWidth: 0
Flags: HMW
LayerCount: 2
Fore
SplineSet
43 117 m 257
 76 215 l 257
 548 215 l 257
 514 117 l 257
 43 117 l 257
102 291 m 257
 135 388 l 257
 607 388 l 257
 574 290 l 257
 102 291 l 257
EndSplineSet
EndChar

StartChar: percent
Encoding: 37 37 79
Width: 772
VWidth: 0
Flags: HMW
LayerCount: 2
Fore
SplineSet
157 544 m 256
 184 633 275 713 371 713 c 256
 465 713 509 626 484 542 c 256
 457 453 365 374 269 374 c 256
 175 374 132 460 157 544 c 256
247 543 m 256
 235 509 244 463 289 461 c 256
 333 459 380 505 393 544 c 256
 405 578 397 624 352 626 c 256
 308 628 260 582 247 543 c 256
420 158 m 256
 447 247 538 326 634 326 c 256
 728 326 771 240 746 156 c 256
 719 67 628 -13 532 -13 c 256
 438 -13 395 74 420 158 c 256
510 156 m 256
 498 122 509 77 551 75 c 256
 595 73 641 116 656 158 c 256
 668 192 657 237 615 239 c 256
 571 241 525 198 510 156 c 256
743 699 m 257
 858 699 l 257
 159 0 l 257
 49 0 l 257
 743 699 l 257
EndSplineSet
EndChar

StartChar: ampersand
Encoding: 38 38 80
Width: 665
VWidth: 0
Flags: HMW
LayerCount: 2
Fore
SplineSet
295 379 m 258
 265 433 230 487 247 552 c 256
 272 647 375 714 471 713 c 256
 561 712 626 640 601 550 c 256
 576 457 477 401 398 359 c 256
 321 319 202 287 173 193 c 256
 154 131 193 89 254 86 c 256
 403 77 534 231 630 325 c 257
 694 268 l 257
 571 145 414 -14 226 -11 c 256
 116 -9 27 70 58 185 c 256
 94 317 231 365 342 418 c 256
 396 445 481 482 499 546 c 256
 509 582 494 620 451 621 c 256
 408 622 364 588 351 547 c 256
 335 499 370 454 391 415 c 258
 611 0 l 257
 498 0 l 257
 295 379 l 258
EndSplineSet
EndChar

StartChar: question
Encoding: 63 63 81
Width: 551
VWidth: 0
Flags: HMW
LayerCount: 2
Fore
SplineSet
509 500 m 256
 532 563 499 615 431 616 c 256
 365 618 307 574 260 533 c 257
 197 595 l 257
 270 660 358 715 460 713 c 256
 579 711 652 614 616 499 c 256
 579 380 464 312 348 288 c 257
 303 184 l 257
 218 184 l 257
 256 359 l 257
 281 359 l 257
 369 363 477 411 509 500 c 256
143 48 m 256
 143 85 174 114 212 114 c 256
 252 114 282 83 282 48 c 256
 282 11 250 -18 212 -18 c 256
 172 -18 143 12 143 48 c 256
EndSplineSet
EndChar

StartChar: parenleft
Encoding: 40 40 82
Width: 303
VWidth: 0
Flags: HMW
LayerCount: 2
Fore
SplineSet
388 778 m 257
 488 778 l 257
 382 628 296 466 241 290 c 256
 191 131 166 -35 188 -201 c 257
 94 -201 l 257
 65 -36 81 131 129 290 c 256
 183 468 272 633 388 778 c 257
EndSplineSet
EndChar

StartChar: parenright
Encoding: 41 41 83
Width: 303
VWidth: 0
Flags: HMW
LayerCount: 2
Fore
SplineSet
26 -198 m 257
 -74 -198 l 257
 32 -48 118 114 173 290 c 256
 223 449 247 615 225 781 c 257
 320 781 l 257
 349 616 333 449 285 290 c 256
 231 112 142 -53 26 -198 c 257
EndSplineSet
EndChar

StartChar: asterisk
Encoding: 42 42 84
Width: 557
VWidth: 0
Flags: HMW
LayerCount: 2
Fore
SplineSet
603 600 m 257
 601 506 l 257
 390 460 l 257
 390 519 l 257
 603 600 l 257
498 343 m 257
 404 287 l 257
 362 474 l 257
 414 506 l 257
 498 343 l 257
248 290 m 257
 185 351 l 257
 370 504 l 257
 409 466 l 257
 248 290 l 257
192 509 m 257
 250 599 l 257
 412 514 l 257
 377 461 l 257
 192 509 l 257
415 699 m 257
 513 699 l 257
 420 489 l 257
 362 489 l 257
 415 699 l 257
EndSplineSet
EndChar

StartChar: less
Encoding: 60 60 85
Width: 602
VWidth: 0
Flags: HMW
LayerCount: 2
Fore
SplineSet
254 257 m 257
 529 109 l 257
 492 11 l 257
 83 228 l 257
 106 295 l 257
 667 515 l 257
 627 397 l 257
 254 257 l 257
EndSplineSet
EndChar

StartChar: greater
Encoding: 62 62 86
Width: 602
VWidth: 0
Flags: HMW
LayerCount: 2
Fore
SplineSet
417 263 m 257
 143 412 l 257
 179 509 l 257
 588 292 l 257
 566 225 l 257
 5 5 l 257
 44 123 l 257
 417 263 l 257
EndSplineSet
EndChar

StartChar: bracketleft
Encoding: 91 91 87
Width: 306
VWidth: 0
Flags: HMW
LayerCount: 2
Fore
SplineSet
372 682 m 257
 123 -122 l 257
 219 -122 l 257
 188 -220 l 257
 -14 -220 l 257
 295 780 l 257
 497 780 l 257
 466 682 l 257
 372 682 l 257
EndSplineSet
EndChar

StartChar: bracketright
Encoding: 93 93 88
Width: 306
VWidth: 0
Flags: HMW
LayerCount: 2
Fore
SplineSet
39 -122 m 257
 287 682 l 257
 192 682 l 257
 223 780 l 257
 425 780 l 257
 116 -220 l 257
 -86 -220 l 257
 -56 -122 l 257
 39 -122 l 257
EndSplineSet
EndChar

StartChar: asciicircum
Encoding: 94 94 89
Width: 479
VWidth: 0
Flags: HMW
LayerCount: 2
Fore
SplineSet
397 602 m 257
 254 456 l 257
 146 456 l 257
 394 709 l 257
 454 710 l 257
 528 454 l 257
 435 454 l 257
 397 602 l 257
EndSplineSet
EndChar

StartChar: underscore
Encoding: 95 95 90
Width: 482
VWidth: 0
Flags: HMW
LayerCount: 2
Fore
SplineSet
-104 -141 m 257
 -80 -70 l 257
 406 -70 l 257
 382 -141 l 257
 -104 -141 l 257
EndSplineSet
EndChar

StartChar: grave
Encoding: 96 96 91
Width: 352
VWidth: 0
Flags: HMW
LayerCount: 2
Fore
SplineSet
229 660 m 257
 326 703 l 257
 423 540 l 257
 359 508 l 257
 229 660 l 257
EndSplineSet
EndChar

StartChar: braceleft
Encoding: 123 123 92
Width: 326
VWidth: 0
Flags: HMW
LayerCount: 2
Fore
SplineSet
367 639 m 258
 321 490 l 258
 289 388 248 303 135 281 c 257
 140 300 l 257
 246 272 222 175 196 90 c 258
 149 -60 l 258
 140 -88 148 -107 177 -108 c 258
 213 -108 l 257
 186 -200 l 257
 121 -200 l 258
 46 -200 19 -125 39 -60 c 258
 101 140 l 258
 115 186 119 217 83 250 c 257
 107 330 l 257
 153 356 174 391 191 441 c 258
 251 641 l 258
 275 713 334 778 412 779 c 258
 487 779 l 257
 461 689 l 257
 429 689 l 258
 397 689 377 670 367 639 c 258
EndSplineSet
EndChar

StartChar: braceright
Encoding: 125 125 93
Width: 326
VWidth: 0
Flags: HMW
LayerCount: 2
Fore
SplineSet
76 -59 m 258
 122 90 l 258
 154 192 196 277 309 299 c 257
 303 280 l 257
 197 308 221 405 247 490 c 258
 294 640 l 258
 303 668 295 687 266 688 c 258
 231 689 l 257
 257 780 l 257
 322 780 l 258
 397 779 424 705 404 640 c 258
 342 440 l 258
 328 394 324 363 360 330 c 257
 337 250 l 257
 291 224 269 189 252 139 c 258
 192 -61 l 258
 168 -133 110 -198 32 -199 c 258
 -44 -199 l 257
 -17 -109 l 257
 14 -109 l 258
 46 -109 66 -90 76 -59 c 258
EndSplineSet
EndChar

StartChar: asciitilde
Encoding: 126 126 94
Width: 541
VWidth: 0
Flags: HMW
LayerCount: 2
Fore
SplineSet
160 170 m 257
 72 176 l 257
 73 184 72 193 74 201 c 256
 82 230 101 258 122 280 c 256
 154 312 199 335 245 334 c 256
 286 334 318 311 348 286 c 256
 362 274 383 253 404 254 c 256
 427 255 448 279 457 299 c 256
 461 308 461 319 461 329 c 257
 553 323 l 257
 552 314 553 303 550 294 c 256
 543 265 525 236 504 214 c 256
 477 186 436 164 396 165 c 256
 357 166 327 189 298 213 c 256
 279 228 256 247 230 246 c 256
 201 245 175 221 164 195 c 256
 160 187 161 178 160 170 c 257
EndSplineSet
EndChar

StartChar: exclamdown
Encoding: 161 161 95
Width: 299
VWidth: 0
Flags: HMW
LayerCount: 2
Fore
SplineSet
81 -238 m 257
 -54 -238 l 257
 138 248 l 257
 222 248 l 257
 81 -238 l 257
304 410 m 256
 295 377 251 343 217 345 c 256
 181 347 159 379 168 414 c 256
 177 447 221 481 255 479 c 256
 291 477 313 445 304 410 c 256
EndSplineSet
EndChar

StartChar: cent
Encoding: 162 162 96
Width: 545
VWidth: 0
Flags: HMW
LayerCount: 2
Fore
SplineSet
203 37 m 257
 286 37 l 257
 237 -111 l 257
 148 -111 l 257
 203 37 l 257
194 230 m 256
 169 163 192 88 272 85 c 256
 337 83 397 121 445 160 c 257
 408 40 l 257
 360 10 306 -9 248 -9 c 256
 114 -8 48 107 86 230 c 256
 127 362 258 468 398 469 c 256
 451 469 494 453 533 418 c 257
 496 298 l 257
 476 348 440 376 385 375 c 256
 302 374 222 305 194 230 c 256
385 577 m 257
 474 577 l 257
 418 429 l 257
 336 429 l 257
 385 577 l 257
EndSplineSet
EndChar

StartChar: sterling
Encoding: 163 163 97
Width: 557
VWidth: 0
Flags: HMW
LayerCount: 2
Fore
SplineSet
134 370 m 257
 484 370 l 257
 453 285 l 257
 103 285 l 257
 134 370 l 257
527 475 m 257
 537 531 540 601 466 604 c 256
 406 607 350 562 328 509 c 256
 295 429 358 348 334 266 c 256
 303 160 201 87 101 53 c 257
 138 104 l 257
 479 105 l 257
 442 0 l 257
 1 0 l 257
 84 78 192 151 228 265 c 256
 256 352 192 433 218 520 c 256
 251 631 371 710 485 709 c 256
 600 708 646 614 633 512 c 257
 527 475 l 257
EndSplineSet
EndChar

StartChar: currency
Encoding: 164 164 98
Width: 543
VWidth: 0
Flags: HMW
LayerCount: 2
Fore
SplineSet
145 506 m 257
 214 558 l 257
 275 457 l 257
 210 408 l 257
 145 506 l 257
45 43 m 257
 7 103 l 257
 128 192 l 257
 166 134 l 257
 45 43 l 257
514 408 m 257
 474 467 l 257
 597 558 l 257
 634 499 l 257
 514 408 l 257
364 142 m 257
 432 192 l 257
 494 92 l 257
 428 43 l 257
 364 142 l 257
94 300 m 256
 133 425 259 539 395 539 c 256
 528 539 583 417 547 300 c 256
 508 175 382 61 246 61 c 256
 113 61 58 183 94 300 c 256
195 299 m 256
 172 237 191 163 267 162 c 256
 345 160 421 231 446 301 c 256
 469 363 450 437 374 438 c 256
 296 440 220 369 195 299 c 256
EndSplineSet
EndChar

StartChar: yen
Encoding: 165 165 99
Width: 580
VWidth: 0
Flags: HMW
LayerCount: 2
Fore
SplineSet
83 280 m 257
 112 365 l 257
 608 365 l 257
 579 280 l 257
 83 280 l 257
32 130 m 257
 60 215 l 257
 557 215 l 257
 528 130 l 257
 32 130 l 257
624 699 m 257
 762 699 l 257
 396 292 l 257
 296 0 l 257
 176 0 l 257
 281 303 l 257
 196 700 l 257
 321 700 l 257
 369 406 l 257
 624 699 l 257
EndSplineSet
EndChar

StartChar: brokenbar
Encoding: 166 166 100
Width: 287
VWidth: 0
Flags: HMW
LayerCount: 2
Fore
SplineSet
276 694 m 257
 380 694 l 257
 294 445 l 257
 190 445 l 257
 276 694 l 257
229 255 m 257
 143 6 l 257
 39 6 l 257
 125 255 l 257
 229 255 l 257
EndSplineSet
EndChar

StartChar: section
Encoding: 167 167 101
Width: 449
VWidth: 0
Flags: HMW
LayerCount: 2
Fore
SplineSet
472 568 m 257
 453 597 431 618 393 618 c 256
 368 618 325 606 316 579 c 256
 304 542 364 525 388 512 c 256
 444 486 490 438 471 372 c 256
 443 272 337 243 246 237 c 257
 258 273 l 257
 299 287 350 309 364 355 c 256
 380 406 331 427 294 446 c 256
 239 475 195 519 215 586 c 256
 239 666 329 714 408 715 c 256
 474 716 525 687 553 629 c 257
 472 568 l 257
100 165 m 257
 113 120 138 81 194 81 c 256
 226 81 271 98 282 130 c 256
 297 173 248 190 218 206 c 256
 160 233 107 280 128 350 c 256
 157 448 265 472 354 478 c 257
 344 448 l 257
 303 432 252 414 236 369 c 256
 216 313 272 292 311 271 c 256
 366 242 407 194 389 129 c 256
 364 38 265 -15 175 -14 c 256
 92 -13 39 33 18 105 c 257
 100 165 l 257
EndSplineSet
EndChar

StartChar: dieresis
Encoding: 168 168 102
Width: 458
VWidth: 0
Flags: HMW
LayerCount: 2
Fore
SplineSet
431 650 m 256
 438 682 481 715 514 713 c 256
 548 711 570 680 563 646 c 256
 556 614 513 581 480 583 c 256
 446 585 424 616 431 650 c 256
226 650 m 256
 233 682 276 715 309 713 c 256
 343 711 365 680 358 646 c 256
 351 614 308 581 275 583 c 256
 241 585 219 616 226 650 c 256
EndSplineSet
EndChar

StartChar: copyright
Encoding: 169 169 103
Width: 752
VWidth: 0
Flags: HMW
LayerCount: 2
Fore
SplineSet
319 350 m 256
 296 281 321 206 402 204 c 256
 456 202 505 231 548 260 c 257
 525 176 l 257
 483 151 440 133 390 133 c 256
 270 133 212 242 243 350 c 256
 276 466 388 566 511 567 c 256
 557 568 594 551 630 522 c 257
 607 438 l 257
 581 474 551 497 505 497 c 256
 422 497 345 427 319 350 c 256
165 350 m 256
 118 206 178 42 348 41 c 256
 524 40 682 189 735 350 c 256
 782 494 722 658 552 659 c 256
 376 660 218 511 165 350 c 256
109 350 m 256
 164 541 348 711 553 710 c 256
 751 709 841 527 791 350 c 256
 736 159 551 -11 346 -10 c 256
 148 -9 59 173 109 350 c 256
EndSplineSet
EndChar

StartChar: registered
Encoding: 174 174 104
Width: 752
VWidth: 0
Flags: HMW
LayerCount: 2
Fore
SplineSet
410 346 m 257
 476 346 l 257
 549 149 l 257
 469 149 l 257
 410 346 l 257
390 569 m 257
 460 569 l 257
 331 151 l 257
 260 151 l 257
 390 569 l 257
411 508 m 257
 430 569 l 257
 509 570 l 257
 581 566 640 519 619 441 c 256
 598 361 517 316 439 312 c 257
 350 312 l 257
 368 369 l 257
 445 370 l 257
 486 373 533 398 546 440 c 256
 558 480 532 503 495 507 c 257
 411 508 l 257
165 350 m 256
 118 206 178 42 348 41 c 256
 524 40 682 189 735 350 c 256
 782 494 722 658 552 659 c 256
 376 660 218 511 165 350 c 256
109 350 m 256
 164 540 348 711 553 710 c 256
 751 709 841 527 791 350 c 256
 736 160 551 -11 346 -10 c 256
 148 -9 59 173 109 350 c 256
EndSplineSet
EndChar

StartChar: ordfeminine
Encoding: 170 170 105
Width: 235
VWidth: 0
Flags: HMW
LayerCount: 2
Fore
SplineSet
197 530 m 256
 193 513 205 498 222 497 c 256
 258 494 281 526 301 550 c 257
 301 523 l 257
 277 487 247 455 200 456 c 256
 158 457 130 491 143 532 c 256
 157 578 214 608 259 608 c 256
 287 608 308 597 329 580 c 257
 319 552 l 257
 302 563 286 575 264 574 c 256
 241 573 203 555 197 530 c 256
224 637 m 257
 215 680 l 257
 245 692 276 706 309 705 c 256
 353 704 388 680 380 632 c 257
 322 461 l 257
 268 461 l 257
 328 625 l 257
 323 643 322 654 300 658 c 256
 275 662 246 646 224 637 c 257
EndSplineSet
EndChar

StartChar: ordmasculine
Encoding: 186 186 106
Width: 261
VWidth: 0
Flags: HMW
LayerCount: 2
Fore
SplineSet
160 581 m 256
 179 644 247 700 314 699 c 256
 381 698 417 641 398 579 c 256
 379 516 311 460 244 461 c 256
 177 462 141 519 160 581 c 256
214 579 m 256
 203 550 213 510 249 509 c 256
 287 508 330 547 343 581 c 256
 354 610 344 650 308 651 c 256
 270 652 227 613 214 579 c 256
EndSplineSet
EndChar

StartChar: guillemotleft
Encoding: 171 171 107
Width: 491
VWidth: 0
Flags: HMW
LayerCount: 2
Fore
SplineSet
331 256 m 257
 407 61 l 257
 328 11 l 257
 233 262 l 257
 486 497 l 257
 538 440 l 257
 331 256 l 257
163 256 m 257
 240 61 l 257
 160 11 l 257
 65 262 l 257
 318 497 l 257
 370 440 l 257
 163 256 l 257
EndSplineSet
EndChar

StartChar: guillemotright
Encoding: 187 187 108
Width: 491
VWidth: 0
Flags: HMW
LayerCount: 2
Fore
SplineSet
226 254 m 257
 151 449 l 257
 230 499 l 257
 325 248 l 257
 73 13 l 257
 20 70 l 257
 226 254 l 257
394 254 m 257
 318 449 l 257
 397 499 l 257
 492 248 l 257
 240 13 l 257
 188 70 l 257
 394 254 l 257
EndSplineSet
EndChar

StartChar: uni00AD
Encoding: 173 173 109
Width: 197
VWidth: 0
Flags: HMW
LayerCount: 2
Fore
SplineSet
20 201 m 257
 44 275 l 257
 237 275 l 257
 211 201 l 257
 20 201 l 257
EndSplineSet
EndChar

StartChar: logicalnot
Encoding: 172 172 110
Width: 594
VWidth: 0
Flags: HMW
LayerCount: 2
Fore
SplineSet
104 289 m 257
 138 387 l 257
 615 387 l 257
 541 176 l 257
 454 176 l 257
 496 289 l 257
 104 289 l 257
EndSplineSet
EndChar

StartChar: macron
Encoding: 175 175 111
Width: 487
VWidth: 0
Flags: HMW
LayerCount: 2
Fore
SplineSet
221 588 m 257
 252 687 l 257
 593 687 l 257
 563 588 l 257
 221 588 l 257
EndSplineSet
EndChar

StartChar: degree
Encoding: 176 176 112
Width: 268
VWidth: 0
Flags: HMW
LayerCount: 2
Fore
SplineSet
166 600 m 256
 185 663 253 720 320 719 c 256
 387 718 422 659 403 597 c 256
 384 534 317 477 249 478 c 256
 182 479 147 538 166 600 c 256
219 598 m 256
 208 568 218 529 255 528 c 256
 294 527 337 564 350 599 c 256
 361 629 351 669 314 670 c 256
 275 671 232 633 219 598 c 256
EndSplineSet
EndChar

StartChar: plusminus
Encoding: 177 177 113
Width: 585
VWidth: 0
Flags: HMW
LayerCount: 2
Fore
SplineSet
27 3 m 257
 58 103 l 257
 526 103 l 257
 494 3 l 257
 27 3 l 257
131 340 m 257
 163 443 l 257
 630 443 l 257
 598 340 l 257
 131 340 l 257
393 620 m 257
 506 620 l 257
 363 163 l 257
 255 164 l 257
 393 620 l 257
EndSplineSet
EndChar

StartChar: uni00B2
Encoding: 178 178 114
Width: 349
VWidth: 0
Flags: HMW
LayerCount: 2
Fore
SplineSet
62 284 m 257
 312 486 l 258
 342 510 383 541 395 580 c 256
 404 610 394 641 359 644 c 256
 306 649 271 594 249 555 c 257
 178 555 l 257
 213 633 276 710 370 709 c 256
 443 708 487 648 466 578 c 256
 452 531 413 495 376 465 c 258
 226 350 l 257
 392 348 l 257
 369 283 l 257
 62 284 l 257
EndSplineSet
EndChar

StartChar: uni00B3
Encoding: 179 179 115
Width: 313
VWidth: 0
Flags: HMW
LayerCount: 2
Fore
SplineSet
249 487 m 257
 261 523 l 257
 301 532 349 546 364 590 c 256
 373 616 362 643 333 645 c 256
 297 648 271 615 252 590 c 257
 183 591 l 257
 215 653 267 707 342 706 c 256
 406 705 452 656 432 592 c 256
 408 514 320 494 249 487 c 257
203 273 m 256
 123 274 92 328 100 400 c 257
 168 400 l 257
 168 366 172 338 213 335 c 256
 251 333 296 367 307 402 c 256
 323 452 280 463 242 471 c 257
 255 510 l 257
 325 503 401 477 376 391 c 256
 355 320 275 272 203 273 c 256
EndSplineSet
EndChar

StartChar: acute
Encoding: 180 180 116
Width: 352
VWidth: 0
Flags: HMW
LayerCount: 2
Fore
SplineSet
460 653 m 257
 247 509 l 257
 193 547 l 257
 380 702 l 257
 460 653 l 257
EndSplineSet
EndChar

StartChar: mu
Encoding: 181 181 117
Width: 512
VWidth: 0
Flags: HMW
LayerCount: 2
Fore
SplineSet
288 0 m 257
 447 460 l 257
 555 460 l 257
 396 0 l 257
 288 0 l 257
177 180 m 257
 164 138 159 83 216 79 c 256
 278 75 323 131 351 178 c 257
 387 181 l 257
 348 90 275 -9 165 -10 c 256
 59 -11 41 82 66 167 c 257
 167 460 l 257
 274 459 l 257
 177 180 l 257
164 459 m 257
 272 460 l 257
 2 -320 l 257
 -99 -319 l 257
 164 459 l 257
EndSplineSet
EndChar

StartChar: paragraph
Encoding: 182 182 118
Width: 579
VWidth: 0
Flags: HMW
LayerCount: 2
Fore
SplineSet
428 624 m 257
 454 699 l 257
 657 699 l 257
 632 624 l 257
 428 624 l 257
617 699 m 257
 710 699 l 257
 397 -219 l 257
 303 -219 l 257
 617 699 l 257
454 699 m 257
 547 699 l 257
 234 -219 l 257
 140 -219 l 257
 454 699 l 257
313 271 m 257
 193 284 128 366 166 486 c 256
 207 617 323 699 454 699 c 257
 313 271 l 257
EndSplineSet
EndChar

StartChar: periodcentered
Encoding: 183 183 119
Width: 290
VWidth: 0
Flags: HMW
LayerCount: 2
Fore
SplineSet
108 254 m 256
 117 287 162 323 197 321 c 256
 234 319 255 285 246 250 c 256
 237 217 192 180 157 182 c 256
 120 184 99 219 108 254 c 256
EndSplineSet
EndChar

StartChar: uni00B9
Encoding: 185 185 120
Width: 446
VWidth: 0
Flags: HMW
LayerCount: 2
Fore
SplineSet
284 596 m 257
 306 663 l 257
 483 702 l 257
 335 275 l 257
 265 275 l 257
 382 619 l 257
 284 596 l 257
EndSplineSet
EndChar

StartChar: cedilla
Encoding: 184 184 121
Width: 346
VWidth: 0
Flags: HMW
LayerCount: 2
Fore
SplineSet
143 63 m 257
 227 61 l 257
 114 -53 l 257
 119 -52 124 -52 129 -52 c 256
 173 -58 195 -94 184 -137 c 256
 169 -195 101 -235 44 -235 c 256
 4 -236 -25 -218 -55 -194 c 257
 -6 -146 l 257
 10 -158 25 -170 47 -170 c 256
 67 -170 109 -152 114 -130 c 256
 119 -109 95 -98 79 -97 c 256
 55 -95 28 -105 5 -112 c 257
 143 63 l 257
EndSplineSet
EndChar

StartChar: questiondown
Encoding: 191 191 122
Width: 551
VWidth: 0
Flags: HMW
LayerCount: 2
Fore
SplineSet
173 200 m 256
 150 137 182 85 250 84 c 256
 316 82 375 126 422 167 c 257
 485 105 l 257
 411 40 324 -15 222 -13 c 256
 103 -11 30 86 66 201 c 256
 103 320 219 388 335 412 c 257
 378 516 l 257
 464 517 l 257
 426 341 l 257
 401 341 l 257
 313 337 205 289 173 200 c 256
536 650 m 256
 528 618 481 584 448 586 c 256
 413 588 391 620 399 654 c 256
 407 686 453 720 486 718 c 256
 521 716 544 684 536 650 c 256
EndSplineSet
EndChar

StartChar: multiply
Encoding: 215 215 123
Width: 560
VWidth: 0
Flags: HMW
LayerCount: 2
Fore
SplineSet
76 14 m 257
 29 93 l 257
 251 260 l 257
 144 430 l 257
 231 496 l 257
 331 324 l 257
 550 496 l 257
 598 417 l 257
 375 250 l 257
 482 80 l 257
 395 14 l 257
 296 186 l 257
 76 14 l 257
EndSplineSet
EndChar

StartChar: Oslash
Encoding: 216 216 124
Width: 743
VWidth: 0
Flags: HMW
LayerCount: 2
Fore
SplineSet
222 350 m 256
 182 239 212 105 351 103 c 256
 493 101 618 224 664 350 c 256
 704 461 674 595 535 597 c 256
 393 599 268 476 222 350 c 256
98 350 m 256
 160 543 350 714 559 713 c 256
 761 712 844 527 788 350 c 256
 726 157 535 -16 326 -15 c 256
 123 -14 42 174 98 350 c 256
848 752 m 257
 900 703 l 257
 33 -52 l 257
 -18 -5 l 257
 848 752 l 257
EndSplineSet
EndChar

StartChar: Thorn
Encoding: 222 222 125
Width: 541
VWidth: 0
Flags: HMW
LayerCount: 2
Fore
SplineSet
257 699 m 257
 368 700 l 257
 126 0 l 257
 21 0 l 257
 257 699 l 257
239 466 m 257
 276 568 l 257
 402 568 l 257
 528 563 615 480 575 350 c 256
 534 217 403 140 269 135 c 257
 126 135 l 257
 163 237 l 257
 289 237 l 258
 364 240 439 278 467 352 c 256
 493 422 449 461 381 465 c 257
 239 466 l 257
EndSplineSet
EndChar

StartChar: divide
Encoding: 247 247 126
Width: 592
VWidth: 0
Flags: HMW
LayerCount: 2
Fore
SplineSet
341 495 m 256
 350 528 394 564 429 562 c 256
 466 560 487 526 478 491 c 256
 469 458 425 421 390 423 c 256
 353 425 332 460 341 495 c 256
201 84 m 256
 210 117 254 153 289 151 c 256
 326 149 346 115 337 80 c 256
 328 47 284 10 249 12 c 256
 212 14 192 49 201 84 c 256
70 240 m 257
 105 343 l 257
 614 343 l 257
 578 239 l 257
 70 240 l 257
EndSplineSet
EndChar

StartChar: oslash
Encoding: 248 248 127
Width: 513
VWidth: 0
Flags: HMW
LayerCount: 2
Fore
SplineSet
53 230 m 256
 94 360 225 469 364 469 c 256
 499 469 564 352 526 230 c 256
 485 100 354 -9 215 -9 c 256
 80 -9 15 108 53 230 c 256
157 230 m 256
 133 165 152 85 233 84 c 256
 316 82 395 156 422 230 c 256
 446 295 426 374 346 376 c 256
 263 378 184 304 157 230 c 256
532 501 m 257
 578 473 l 257
 35 -45 l 257
 -10 -18 l 257
 532 501 l 257
EndSplineSet
EndChar

StartChar: circumflex
Encoding: 710 710 128
Width: 451
VWidth: 0
Flags: HMW
LayerCount: 2
Fore
SplineSet
395 637 m 257
 267 548 l 257
 210 604 l 257
 419 740 l 257
 543 597 l 257
 460 548 l 257
 395 637 l 257
EndSplineSet
EndChar

StartChar: ogonek
Encoding: 731 731 129
Width: 244
VWidth: 0
Flags: HMW
LayerCount: 2
Fore
SplineSet
109 -122 m 257
 125 -182 l 257
 96 -202 65 -219 29 -219 c 256
 -30 -220 -77 -180 -61 -119 c 256
 -42 -45 46 -6 108 24 c 257
 145 0 l 257
 107 -23 43 -49 31 -98 c 256
 27 -117 32 -137 54 -141 c 256
 72 -144 94 -130 109 -122 c 257
EndSplineSet
EndChar

StartChar: tilde
Encoding: 732 732 130
Width: 498
VWidth: 0
Flags: HMW
LayerCount: 2
Fore
SplineSet
242 633 m 257
 271 673 314 719 368 716 c 256
 409 714 433 667 475 670 c 256
 504 672 529 700 549 718 c 257
 591 659 l 257
 559 624 513 581 461 585 c 256
 421 588 395 637 354 633 c 256
 324 630 307 606 291 584 c 257
 242 633 l 257
EndSplineSet
EndChar

StartChar: ring
Encoding: 730 730 131
Width: 280
VWidth: 0
Flags: HMW
LayerCount: 2
Fore
SplineSet
245 780 m 256
 261 835 325 885 383 884 c 256
 441 883 475 831 459 776 c 256
 443 721 380 672 321 673 c 256
 263 674 229 726 245 780 c 256
305 777 m 256
 299 758 308 732 330 729 c 256
 353 726 392 759 398 780 c 256
 404 799 395 825 373 828 c 256
 350 831 311 798 305 777 c 256
EndSplineSet
EndChar

StartChar: dotaccent
Encoding: 729 729 132
Width: 282
VWidth: 0
Flags: HMW
LayerCount: 2
Fore
SplineSet
294 802 m 256
 302 834 345 867 378 865 c 256
 412 863 434 831 426 797 c 256
 418 765 374 732 341 734 c 256
 307 736 286 768 294 802 c 256
EndSplineSet
EndChar

StartChar: uni2010
Encoding: 8208 8208 133
Width: 201
VWidth: 0
Flags: HMW
LayerCount: 2
Fore
SplineSet
14 189 m 257
 47 287 l 257
 245 287 l 257
 211 189 l 257
 14 189 l 257
EndSplineSet
EndChar

StartChar: endash
Encoding: 8211 8211 134
Width: 713
VWidth: 0
Flags: HMW
LayerCount: 2
Fore
SplineSet
76 189 m 257
 108 287 l 257
 692 287 l 257
 658 188 l 257
 76 189 l 257
EndSplineSet
EndChar

StartChar: figuredash
Encoding: 8210 8210 135
Width: 569
VWidth: 0
Flags: HMW
LayerCount: 2
Fore
SplineSet
76 189 m 257
 108 287 l 257
 547 287 l 257
 514 188 l 257
 76 189 l 257
EndSplineSet
EndChar

StartChar: emdash
Encoding: 8212 8212 136
Width: 856
VWidth: 0
Flags: HMW
LayerCount: 2
Fore
SplineSet
76 189 m 257
 108 287 l 257
 837 287 l 257
 803 188 l 257
 76 189 l 257
EndSplineSet
EndChar

StartChar: minus
Encoding: 8722 8722 137
Width: 556
VWidth: 0
Flags: HMW
LayerCount: 2
Fore
SplineSet
71 189 m 257
 103 287 l 257
 542 287 l 257
 509 188 l 257
 71 189 l 257
EndSplineSet
EndChar

StartChar: quoteright
Encoding: 8217 8217 138
Width: 280
VWidth: 0
Flags: HMW
LayerCount: 2
Fore
SplineSet
282 699 m 257
 406 699 l 257
 225 461 l 257
 147 461 l 257
 282 699 l 257
EndSplineSet
EndChar

StartChar: quoteleft
Encoding: 8216 8216 139
Width: 280
VWidth: 0
Flags: HMW
LayerCount: 2
Fore
SplineSet
286 460 m 257
 162 461 l 257
 342 698 l 257
 421 698 l 257
 286 460 l 257
EndSplineSet
EndChar

StartChar: quotesinglbase
Encoding: 8218 8218 140
Width: 280
VWidth: 0
Flags: HMW
LayerCount: 2
Fore
SplineSet
80 79 m 257
 204 79 l 257
 23 -159 l 257
 -55 -159 l 257
 80 79 l 257
EndSplineSet
EndChar

StartChar: quotedblleft
Encoding: 8220 8220 141
Width: 480
VWidth: 0
Flags: HMW
LayerCount: 2
Fore
SplineSet
286 460 m 257
 162 461 l 257
 342 698 l 257
 421 698 l 257
 286 460 l 257
486 460 m 257
 362 461 l 257
 542 698 l 257
 622 698 l 257
 486 460 l 257
EndSplineSet
EndChar

StartChar: quotedblright
Encoding: 8221 8221 142
Width: 480
VWidth: 0
Flags: HMW
LayerCount: 2
Fore
SplineSet
282 699 m 257
 406 699 l 257
 225 461 l 257
 147 461 l 257
 282 699 l 257
483 699 m 257
 607 699 l 257
 426 461 l 257
 347 461 l 257
 483 699 l 257
EndSplineSet
EndChar

StartChar: perthousand
Encoding: 8240 8240 143
Width: 1159
VWidth: 0
Flags: HMW
LayerCount: 2
Fore
SplineSet
807 158 m 256
 834 247 925 326 1021 326 c 256
 1115 326 1158 240 1133 156 c 256
 1106 67 1015 -13 919 -13 c 256
 825 -13 782 74 807 158 c 256
897 156 m 256
 885 122 894 78 936 75 c 256
 980 72 1030 119 1043 158 c 256
 1055 192 1046 236 1004 239 c 256
 960 242 910 195 897 156 c 256
157 544 m 256
 184 633 275 713 371 713 c 256
 465 713 509 626 484 542 c 256
 457 453 365 374 269 374 c 256
 175 374 132 460 157 544 c 256
247 543 m 256
 235 509 245 464 287 461 c 256
 331 458 380 505 393 544 c 256
 405 578 396 623 354 626 c 256
 310 629 260 582 247 543 c 256
420 158 m 256
 447 247 538 326 634 326 c 256
 728 326 771 240 746 156 c 256
 719 67 628 -13 532 -13 c 256
 438 -13 395 74 420 158 c 256
510 156 m 256
 498 122 508 78 550 75 c 256
 594 72 643 119 656 158 c 256
 668 192 658 236 616 239 c 256
 572 242 523 195 510 156 c 256
743 699 m 257
 858 699 l 257
 159 0 l 257
 49 0 l 257
 743 699 l 257
EndSplineSet
EndChar

StartChar: guilsinglleft
Encoding: 8249 8249 144
Width: 329
VWidth: 0
Flags: HMW
LayerCount: 2
Fore
SplineSet
163 256 m 257
 240 61 l 257
 160 11 l 257
 65 262 l 257
 318 497 l 257
 370 440 l 257
 163 256 l 257
EndSplineSet
EndChar

StartChar: guilsinglright
Encoding: 8250 8250 145
Width: 329
VWidth: 0
Flags: HMW
LayerCount: 2
Fore
SplineSet
231 254 m 257
 156 449 l 257
 234 499 l 257
 330 248 l 257
 77 13 l 257
 25 70 l 257
 231 254 l 257
EndSplineSet
EndChar

StartChar: uni2031
Encoding: 8241 8241 146
Width: 1545
VWidth: 0
Flags: HMW
LayerCount: 2
Fore
SplineSet
1194 158 m 256
 1221 247 1312 326 1408 326 c 256
 1502 326 1545 240 1520 156 c 256
 1493 67 1402 -13 1306 -13 c 256
 1212 -13 1169 74 1194 158 c 256
1283 156 m 256
 1271 122 1281 78 1323 75 c 256
 1367 72 1417 119 1430 158 c 256
 1442 192 1432 236 1390 239 c 256
 1346 242 1296 195 1283 156 c 256
807 158 m 256
 834 247 925 326 1021 326 c 256
 1115 326 1158 240 1133 156 c 256
 1106 67 1015 -13 919 -13 c 256
 825 -13 782 74 807 158 c 256
897 156 m 256
 885 122 894 78 936 75 c 256
 980 72 1030 119 1043 158 c 256
 1055 192 1046 236 1004 239 c 256
 960 242 910 195 897 156 c 256
157 544 m 256
 184 633 275 713 371 713 c 256
 465 713 509 626 484 542 c 256
 457 453 365 374 269 374 c 256
 175 374 132 460 157 544 c 256
247 543 m 256
 235 509 245 464 287 461 c 256
 331 458 380 505 393 544 c 256
 405 578 396 623 354 626 c 256
 310 629 260 582 247 543 c 256
420 158 m 256
 447 247 538 326 634 326 c 256
 728 326 771 240 746 156 c 256
 719 67 628 -13 532 -13 c 256
 438 -13 395 74 420 158 c 256
510 156 m 256
 498 122 508 78 550 75 c 256
 594 72 643 119 656 158 c 256
 668 192 658 236 616 239 c 256
 572 242 523 195 510 156 c 256
743 699 m 257
 858 699 l 257
 159 0 l 257
 49 0 l 257
 743 699 l 257
EndSplineSet
EndChar

StartChar: uni203D
Encoding: 8253 8253 147
Width: 551
VWidth: 0
Flags: HMW
LayerCount: 2
Fore
SplineSet
511 492 m 256
 537 560 502 615 429 616 c 256
 362 617 307 576 260 533 c 257
 197 595 l 257
 268 662 357 715 459 713 c 256
 578 711 652 614 616 499 c 256
 575 367 440 297 311 284 c 257
 293 348 l 257
 382 359 477 402 511 492 c 256
311 507 m 257
 429 506 l 257
 295 184 l 257
 223 184 l 257
 311 507 l 257
146 51 m 256
 155 84 200 118 234 116 c 256
 269 114 293 82 284 47 c 256
 275 14 230 -20 196 -18 c 256
 161 -16 137 16 146 51 c 256
EndSplineSet
EndChar

StartChar: Euro
Encoding: 8364 8364 148
Width: 574
VWidth: 0
Flags: HMW
LayerCount: 2
Fore
SplineSet
109 397 m 257
 130 459 l 257
 601 459 l 257
 580 397 l 257
 109 397 l 257
61 272 m 257
 82 334 l 257
 537 334 l 257
 515 272 l 257
 61 272 l 257
249 350 m 256
 216 259 198 95 335 92 c 256
 396 90 452 122 503 151 c 257
 465 27 l 257
 417 5 366 -13 313 -13 c 256
 115 -13 93 201 141 350 c 256
 197 522 350 714 548 713 c 256
 598 713 639 697 682 673 c 257
 643 547 l 257
 611 584 577 609 526 609 c 256
 389 609 290 465 249 350 c 256
EndSplineSet
EndChar

StartChar: fraction
Encoding: 8260 8260 149
Width: 672
VWidth: 0
Flags: HMW
LayerCount: 2
Fore
SplineSet
725 698 m 257
 816 698 l 257
 90 0 l 257
 -1 0 l 257
 725 698 l 257
EndSplineSet
EndChar

StartChar: onequarter
Encoding: 188 188 150
Width: 735
VWidth: 0
Flags: HMW
LayerCount: 2
Fore
SplineSet
766 698 m 257
 848 698 l 257
 121 0 l 257
 39 0 l 257
 766 698 l 257
174 596 m 257
 196 663 l 257
 373 702 l 257
 226 275 l 257
 155 275 l 257
 272 619 l 257
 174 596 l 257
348 82 m 257
 420 135 l 257
 592 137 l 257
 604 142 l 257
 701 142 l 257
 679 81 l 257
 348 82 l 257
430 94 m 257
 345 80 l 257
 686 418 l 257
 733 419 l 257
 590 0 l 257
 517 0 l 257
 551 102 l 257
 558 108 l 257
 619 280 l 257
 430 94 l 257
EndSplineSet
EndChar

StartChar: onehalf
Encoding: 189 189 151
Width: 799
VWidth: 0
Flags: HMW
LayerCount: 2
Fore
SplineSet
766 698 m 257
 848 698 l 257
 121 0 l 257
 39 0 l 257
 766 698 l 257
174 596 m 257
 196 663 l 257
 373 702 l 257
 226 275 l 257
 155 275 l 257
 272 619 l 257
 174 596 l 257
412 4 m 257
 662 206 l 258
 692 230 733 261 745 300 c 256
 754 330 744 361 709 364 c 256
 656 369 621 314 599 275 c 257
 528 275 l 257
 563 353 625 430 719 429 c 256
 792 428 836 368 815 298 c 256
 801 251 763 215 726 185 c 258
 576 70 l 257
 742 68 l 257
 719 3 l 257
 412 4 l 257
EndSplineSet
EndChar

StartChar: threequarters
Encoding: 190 190 152
Width: 794
VWidth: 0
Flags: HMW
LayerCount: 2
Fore
SplineSet
827 698 m 257
 909 698 l 257
 183 0 l 257
 101 0 l 257
 827 698 l 257
255 487 m 257
 267 523 l 257
 307 532 354 546 369 590 c 256
 378 616 368 643 339 645 c 256
 303 648 276 615 257 590 c 257
 189 591 l 257
 221 653 273 707 348 706 c 256
 412 705 458 656 438 592 c 256
 414 514 326 494 255 487 c 257
209 273 m 256
 129 274 99 328 107 400 c 257
 174 400 l 257
 174 366 178 338 219 335 c 256
 257 333 302 367 313 402 c 256
 329 452 286 463 248 471 c 257
 261 510 l 257
 331 503 407 477 382 391 c 256
 361 320 281 272 209 273 c 256
407 82 m 257
 479 135 l 257
 651 137 l 257
 663 142 l 257
 760 142 l 257
 738 81 l 257
 407 82 l 257
489 94 m 257
 404 80 l 257
 746 418 l 257
 793 419 l 257
 649 0 l 257
 576 0 l 257
 611 102 l 257
 617 108 l 257
 678 280 l 257
 489 94 l 257
EndSplineSet
EndChar

StartChar: uni2150
Encoding: 8528 8528 153
Width: 831
VWidth: 0
Flags: HMW
LayerCount: 2
Fore
SplineSet
729 698 m 257
 820 698 l 257
 94 0 l 257
 2 0 l 257
 729 698 l 257
174 596 m 257
 196 663 l 257
 373 702 l 257
 226 275 l 257
 155 275 l 257
 272 619 l 257
 174 596 l 257
576 353 m 257
 598 419 l 257
 901 419 l 257
 567 0 l 257
 487 0 l 257
 767 352 l 257
 576 353 l 257
EndSplineSet
EndChar

StartChar: uni2151
Encoding: 8529 8529 154
Width: 776
VWidth: 0
Flags: HMW
LayerCount: 2
Fore
SplineSet
726 698 m 257
 818 698 l 257
 92 0 l 257
 -0 0 l 257
 726 698 l 257
174 596 m 257
 196 663 l 257
 373 702 l 257
 226 275 l 257
 155 275 l 257
 272 619 l 257
 174 596 l 257
733 281 m 256
 746 319 735 364 689 366 c 256
 641 369 589 322 574 280 c 256
 561 242 573 197 619 194 c 256
 667 191 718 239 733 281 c 256
551 5 m 257
 456 5 l 257
 637 165 l 257
 652 164 l 257
 631 154 610 143 586 144 c 256
 513 145 489 220 507 281 c 256
 531 362 613 429 698 429 c 256
 782 429 826 357 801 279 c 256
 789 241 763 209 736 181 c 257
 551 5 l 257
EndSplineSet
EndChar

StartChar: uni2152
Encoding: 8530 8530 155
Width: 1067
VWidth: 0
Flags: HMW
LayerCount: 2
Fore
SplineSet
726 698 m 257
 818 698 l 257
 92 0 l 257
 -0 0 l 257
 726 698 l 257
174 596 m 257
 196 663 l 257
 373 702 l 257
 226 275 l 257
 155 275 l 257
 272 619 l 257
 174 596 l 257
538 323 m 257
 561 390 l 257
 738 429 l 257
 590 2 l 257
 520 2 l 257
 637 346 l 257
 538 323 l 257
815 210 m 256
 800 168 771 63 843 59 c 256
 916 55 968 154 989 210 c 256
 1004 252 1032 357 960 361 c 256
 887 365 836 266 815 210 c 256
745 210 m 256
 775 305 856 427 968 426 c 256
 1084 425 1083 293 1057 210 c 256
 1027 115 947 -7 834 -6 c 256
 718 -5 719 128 745 210 c 256
EndSplineSet
EndChar

StartChar: onethird
Encoding: 8531 8531 156
Width: 756
VWidth: 0
Flags: HMW
LayerCount: 2
Fore
SplineSet
726 698 m 257
 817 698 l 257
 91 0 l 257
 -0 0 l 257
 726 698 l 257
174 596 m 257
 196 663 l 257
 373 702 l 257
 226 275 l 257
 155 275 l 257
 272 619 l 257
 174 596 l 257
591 207 m 257
 604 243 l 257
 644 252 691 266 706 310 c 256
 715 336 705 363 676 365 c 256
 640 368 613 335 594 310 c 257
 526 311 l 257
 558 373 610 427 685 426 c 256
 749 425 795 376 775 312 c 256
 751 234 662 214 591 207 c 257
545 -7 m 256
 465 -6 436 48 444 120 c 257
 511 120 l 257
 511 86 515 58 556 55 c 256
 594 53 639 87 650 122 c 256
 666 172 622 183 584 191 c 257
 598 230 l 257
 668 223 743 197 718 111 c 256
 697 40 617 -8 545 -7 c 256
EndSplineSet
EndChar

StartChar: twothirds
Encoding: 8532 8532 157
Width: 878
VWidth: 0
Flags: HMW
LayerCount: 2
Fore
SplineSet
853 698 m 257
 945 698 l 257
 218 0 l 257
 126 0 l 257
 853 698 l 257
67 284 m 257
 317 486 l 258
 347 510 388 541 400 580 c 256
 409 610 399 641 364 644 c 256
 311 649 276 594 254 555 c 257
 183 555 l 257
 218 633 281 710 375 709 c 256
 448 708 491 648 470 578 c 256
 456 531 417 495 380 465 c 258
 231 350 l 257
 397 348 l 257
 374 283 l 257
 67 284 l 257
714 207 m 257
 726 243 l 257
 766 252 813 266 828 310 c 256
 837 336 827 363 798 365 c 256
 762 368 735 335 716 310 c 257
 647 311 l 257
 679 373 732 427 807 426 c 256
 871 425 917 376 897 312 c 256
 873 234 785 214 714 207 c 257
668 -7 m 256
 588 -6 557 48 565 120 c 257
 633 120 l 257
 633 86 636 58 677 55 c 256
 715 53 760 87 771 122 c 256
 787 172 745 183 707 191 c 257
 720 230 l 257
 790 223 866 197 841 111 c 256
 820 40 740 -8 668 -7 c 256
EndSplineSet
EndChar

StartChar: uni2155
Encoding: 8533 8533 158
Width: 746
VWidth: 0
Flags: HMW
LayerCount: 2
Fore
SplineSet
726 698 m 257
 818 698 l 257
 92 0 l 257
 -0 0 l 257
 726 698 l 257
174 596 m 257
 196 663 l 257
 373 702 l 257
 226 275 l 257
 155 275 l 257
 272 619 l 257
 174 596 l 257
715 133 m 256
 690 52 608 -7 524 -8 c 256
 464 -9 423 22 393 67 c 257
 446 117 l 257
 463 86 485 60 525 59 c 256
 572 58 628 94 642 140 c 256
 655 180 633 214 591 219 c 256
 549 223 507 203 470 189 c 257
 523 230 l 257
 554 253 596 275 636 274 c 256
 712 271 735 197 715 133 c 256
637 355 m 257
 562 236 l 257
 458 178 l 257
 600 417 l 257
 807 417 l 257
 786 356 l 257
 637 355 l 257
EndSplineSet
EndChar

StartChar: uni2156
Encoding: 8534 8534 159
Width: 871
VWidth: 0
Flags: HMW
LayerCount: 2
Fore
SplineSet
853 698 m 257
 945 698 l 257
 218 0 l 257
 126 0 l 257
 853 698 l 257
67 284 m 257
 317 486 l 258
 347 510 388 541 400 580 c 256
 409 610 399 641 364 644 c 256
 311 649 276 594 254 555 c 257
 183 555 l 257
 218 633 281 710 375 709 c 256
 448 708 491 648 470 578 c 256
 456 531 417 495 380 465 c 258
 231 350 l 257
 397 348 l 257
 374 283 l 257
 67 284 l 257
836 133 m 256
 811 52 729 -7 645 -8 c 256
 585 -9 545 22 515 67 c 257
 568 117 l 257
 585 86 606 60 646 59 c 256
 693 58 749 94 763 140 c 256
 776 180 756 214 714 219 c 256
 672 223 629 203 592 189 c 257
 645 230 l 257
 676 253 717 275 757 274 c 256
 833 271 856 197 836 133 c 256
759 355 m 257
 684 236 l 257
 580 178 l 257
 721 417 l 257
 929 417 l 257
 908 356 l 257
 759 355 l 257
EndSplineSet
EndChar

StartChar: uni2157
Encoding: 8535 8535 160
Width: 820
VWidth: 0
Flags: HMW
LayerCount: 2
Fore
SplineSet
803 698 m 257
 895 698 l 257
 169 0 l 257
 77 0 l 257
 803 698 l 257
254 487 m 257
 266 523 l 257
 306 532 353 546 368 590 c 256
 377 616 367 643 338 645 c 256
 302 648 275 615 256 590 c 257
 188 591 l 257
 220 653 272 707 347 706 c 256
 411 705 457 656 437 592 c 256
 413 514 325 494 254 487 c 257
208 273 m 256
 128 274 97 328 105 400 c 257
 173 400 l 257
 173 366 176 338 217 335 c 256
 255 333 301 367 312 402 c 256
 328 452 285 463 247 471 c 257
 260 510 l 257
 330 503 406 477 381 391 c 256
 360 320 280 272 208 273 c 256
785 133 m 256
 760 52 677 -7 593 -8 c 256
 533 -9 493 22 463 67 c 257
 516 117 l 257
 533 86 554 60 594 59 c 256
 641 58 698 94 712 140 c 256
 725 180 703 214 661 219 c 256
 619 223 576 203 539 189 c 257
 593 230 l 257
 624 253 665 275 705 274 c 256
 781 271 805 197 785 133 c 256
706 355 m 257
 632 236 l 257
 528 178 l 257
 669 417 l 257
 877 417 l 257
 855 356 l 257
 706 355 l 257
EndSplineSet
EndChar

StartChar: uni2158
Encoding: 8536 8536 161
Width: 872
VWidth: 0
Flags: HMW
LayerCount: 2
Fore
SplineSet
846 698 m 257
 937 697 l 257
 211 0 l 257
 120 0 l 257
 846 698 l 257
90 362 m 257
 162 415 l 257
 334 417 l 257
 346 422 l 257
 443 422 l 257
 422 361 l 257
 90 362 l 257
173 374 m 257
 87 360 l 257
 429 698 l 257
 476 699 l 257
 333 281 l 257
 260 281 l 257
 295 382 l 257
 300 388 l 257
 361 560 l 257
 173 374 l 257
840 133 m 256
 815 52 732 -7 648 -8 c 256
 588 -9 548 22 518 67 c 257
 571 117 l 257
 588 86 609 59 649 58 c 256
 696 57 752 94 766 140 c 256
 779 180 758 214 716 219 c 256
 674 223 632 203 595 189 c 257
 648 230 l 257
 679 253 720 275 760 274 c 256
 836 271 860 197 840 133 c 256
761 355 m 257
 687 236 l 257
 583 178 l 257
 723 417 l 257
 932 417 l 257
 910 356 l 257
 761 355 l 257
EndSplineSet
EndChar

StartChar: uni2159
Encoding: 8537 8537 162
Width: 743
VWidth: 0
Flags: HMW
LayerCount: 2
Fore
SplineSet
733 698 m 257
 825 698 l 257
 99 0 l 257
 7 0 l 257
 733 698 l 257
174 596 m 257
 196 663 l 257
 373 702 l 257
 226 275 l 257
 155 275 l 257
 272 619 l 257
 174 596 l 257
489 139 m 256
 476 101 487 56 533 54 c 256
 581 51 632 98 647 140 c 256
 660 178 650 223 604 226 c 256
 556 229 504 181 489 139 c 256
671 415 m 257
 766 415 l 257
 586 255 l 257
 570 256 l 257
 591 266 612 276 636 276 c 256
 709 275 734 200 716 139 c 256
 692 58 609 -9 524 -9 c 256
 440 -9 395 63 420 141 c 256
 432 179 459 211 486 239 c 257
 671 415 l 257
EndSplineSet
EndChar

StartChar: uni215A
Encoding: 8538 8538 163
Width: 834
VWidth: 0
Flags: HMW
LayerCount: 2
Fore
SplineSet
831 698 m 257
 923 698 l 257
 197 0 l 257
 105 0 l 257
 831 698 l 257
412 413 m 256
 387 332 305 273 221 272 c 256
 161 271 121 302 91 347 c 257
 144 397 l 257
 161 366 182 340 222 339 c 256
 269 338 325 374 339 420 c 256
 352 460 331 494 289 499 c 256
 247 503 205 483 168 469 c 257
 221 510 l 257
 252 533 292 555 332 554 c 256
 408 551 432 477 412 413 c 256
334 635 m 257
 260 516 l 257
 155 458 l 257
 297 697 l 257
 505 697 l 257
 483 636 l 257
 334 635 l 257
579 139 m 256
 566 101 578 56 624 54 c 256
 672 51 723 98 738 140 c 256
 751 178 740 223 694 226 c 256
 646 229 594 181 579 139 c 256
761 415 m 257
 856 415 l 257
 676 255 l 257
 661 256 l 257
 682 266 702 276 726 276 c 256
 799 275 824 200 806 139 c 256
 782 58 700 -9 615 -9 c 256
 531 -9 486 63 511 141 c 256
 523 179 549 211 576 239 c 257
 761 415 l 257
EndSplineSet
EndChar

StartChar: oneeighth
Encoding: 8539 8539 164
Width: 766
VWidth: 0
Flags: HMW
LayerCount: 2
Fore
SplineSet
733 698 m 257
 825 698 l 257
 99 0 l 257
 7 0 l 257
 733 698 l 257
174 596 m 257
 196 663 l 257
 373 702 l 257
 226 275 l 257
 155 275 l 257
 272 619 l 257
 174 596 l 257
538 320 m 256
 557 382 627 428 690 427 c 256
 751 426 798 380 780 318 c 256
 762 255 692 210 628 211 c 256
 565 212 519 256 538 320 c 256
602 310 m 256
 594 286 603 256 632 253 c 256
 663 250 702 285 711 313 c 256
 719 338 712 367 682 370 c 256
 651 373 612 338 602 310 c 256
453 115 m 256
 474 185 553 236 624 235 c 256
 693 235 745 183 724 113 c 256
 703 44 625 -8 554 -7 c 256
 486 -6 433 47 453 115 c 256
526 123 m 256
 514 92 526 56 563 54 c 256
 602 52 648 89 660 124 c 256
 670 154 658 191 622 193 c 256
 584 195 538 156 526 123 c 256
EndSplineSet
EndChar

StartChar: threeeighths
Encoding: 8540 8540 165
Width: 837
VWidth: 0
Flags: HMW
LayerCount: 2
Fore
SplineSet
806 698 m 257
 897 698 l 257
 171 0 l 257
 79 0 l 257
 806 698 l 257
254 487 m 257
 266 523 l 257
 306 532 353 546 368 590 c 256
 377 616 367 643 338 645 c 256
 302 648 275 615 256 590 c 257
 188 591 l 257
 220 653 272 707 347 706 c 256
 411 705 457 656 437 592 c 256
 413 514 325 494 254 487 c 257
208 273 m 256
 128 274 97 328 105 400 c 257
 173 400 l 257
 173 366 176 338 217 335 c 256
 255 333 301 367 312 402 c 256
 328 452 285 463 247 471 c 257
 260 510 l 257
 330 503 406 477 381 391 c 256
 360 320 280 272 208 273 c 256
610 320 m 256
 629 382 699 428 762 427 c 256
 823 426 871 380 853 318 c 256
 835 255 764 210 700 211 c 256
 637 212 591 256 610 320 c 256
674 310 m 256
 666 286 675 256 704 253 c 256
 735 250 774 285 783 313 c 256
 791 338 783 367 753 370 c 256
 722 373 684 338 674 310 c 256
526 115 m 256
 547 185 625 236 696 235 c 256
 765 235 818 183 797 113 c 256
 776 44 697 -8 626 -7 c 256
 558 -6 506 47 526 115 c 256
598 123 m 256
 586 92 598 56 635 54 c 256
 674 52 719 89 731 124 c 256
 741 154 730 191 694 193 c 256
 656 195 610 156 598 123 c 256
EndSplineSet
EndChar

StartChar: fiveeighths
Encoding: 8541 8541 166
Width: 863
VWidth: 0
Flags: HMW
LayerCount: 2
Fore
SplineSet
831 698 m 257
 923 698 l 257
 197 0 l 257
 105 0 l 257
 831 698 l 257
410 413 m 256
 385 332 302 273 218 272 c 256
 158 271 118 302 88 347 c 257
 141 397 l 257
 158 366 179 340 219 339 c 256
 266 338 322 374 336 420 c 256
 349 460 329 494 287 499 c 256
 245 503 202 483 165 469 c 257
 218 510 l 257
 249 533 290 555 330 554 c 256
 406 551 430 477 410 413 c 256
332 635 m 257
 257 516 l 257
 153 458 l 257
 294 697 l 257
 503 697 l 257
 481 636 l 257
 332 635 l 257
635 320 m 256
 654 382 725 428 788 427 c 256
 849 426 896 380 878 318 c 256
 860 255 789 210 725 211 c 256
 662 212 616 256 635 320 c 256
699 310 m 256
 691 286 700 256 729 253 c 256
 760 250 800 285 809 313 c 256
 817 338 809 367 779 370 c 256
 748 373 709 338 699 310 c 256
551 115 m 256
 572 185 651 236 722 235 c 256
 791 235 843 183 822 113 c 256
 801 44 723 -8 652 -7 c 256
 584 -6 531 47 551 115 c 256
623 123 m 256
 611 92 624 56 661 54 c 256
 700 52 745 89 757 124 c 256
 767 154 755 191 719 193 c 256
 681 195 635 156 623 123 c 256
EndSplineSet
EndChar

StartChar: seveneighths
Encoding: 8542 8542 167
Width: 760
VWidth: 0
Flags: HMW
LayerCount: 2
Fore
SplineSet
725 698 m 257
 816 698 l 257
 90 0 l 257
 -1 0 l 257
 725 698 l 257
186 633 m 257
 208 699 l 257
 511 699 l 257
 177 282 l 257
 98 282 l 257
 378 632 l 257
 186 633 l 257
532 320 m 256
 551 382 622 428 685 427 c 256
 746 426 792 380 774 318 c 256
 756 255 686 210 622 211 c 256
 559 212 513 256 532 320 c 256
595 310 m 256
 587 286 596 256 625 253 c 256
 656 250 697 285 706 313 c 256
 714 338 706 367 676 370 c 256
 645 373 605 338 595 310 c 256
448 115 m 256
 469 185 548 236 619 235 c 256
 688 235 739 183 718 113 c 256
 697 44 619 -8 548 -7 c 256
 480 -6 428 47 448 115 c 256
520 123 m 256
 508 92 520 56 557 54 c 256
 596 52 642 89 654 124 c 256
 664 154 652 191 616 193 c 256
 578 195 532 156 520 123 c 256
EndSplineSet
EndChar

StartChar: uni2074
Encoding: 8308 8308 168
Width: 378
VWidth: 0
Flags: HMW
LayerCount: 2
Fore
SplineSet
88 362 m 257
 160 415 l 257
 332 417 l 257
 344 422 l 257
 441 422 l 257
 420 361 l 257
 88 362 l 257
170 374 m 257
 85 360 l 257
 426 698 l 257
 473 699 l 257
 330 281 l 257
 258 281 l 257
 292 382 l 257
 298 388 l 257
 359 560 l 257
 170 374 l 257
EndSplineSet
EndChar

StartChar: uni2075
Encoding: 8309 8309 169
Width: 346
VWidth: 0
Flags: HMW
LayerCount: 2
Fore
SplineSet
410 413 m 256
 385 332 302 273 218 272 c 256
 158 271 118 302 88 347 c 257
 141 397 l 257
 158 366 179 340 219 339 c 256
 266 338 322 374 336 420 c 256
 349 460 329 494 287 499 c 256
 245 503 202 483 165 469 c 257
 218 510 l 257
 249 533 290 555 330 554 c 256
 406 551 430 477 410 413 c 256
332 635 m 257
 257 516 l 257
 153 458 l 257
 294 697 l 257
 503 697 l 257
 481 636 l 257
 332 635 l 257
EndSplineSet
EndChar

StartChar: uni2076
Encoding: 8310 8310 170
Width: 339
VWidth: 0
Flags: HMW
LayerCount: 2
Fore
SplineSet
184 419 m 256
 171 381 182 336 228 334 c 256
 275 331 327 378 342 420 c 256
 355 458 345 503 299 506 c 256
 251 509 199 461 184 419 c 256
366 695 m 257
 461 695 l 257
 280 535 l 257
 265 536 l 257
 286 546 307 556 331 556 c 256
 404 555 428 480 410 419 c 256
 386 338 304 271 219 271 c 256
 135 271 91 343 116 421 c 256
 128 459 153 491 180 519 c 257
 366 695 l 257
EndSplineSet
EndChar

StartChar: uni2077
Encoding: 8311 8311 171
Width: 342
VWidth: 0
Flags: HMW
LayerCount: 2
Fore
SplineSet
186 633 m 257
 208 699 l 257
 511 699 l 257
 177 282 l 257
 98 282 l 257
 378 632 l 257
 186 633 l 257
EndSplineSet
EndChar

StartChar: uni2078
Encoding: 8312 8312 172
Width: 317
VWidth: 0
Flags: HMW
LayerCount: 2
Fore
SplineSet
188 600 m 256
 207 662 277 708 340 707 c 256
 401 706 448 660 430 598 c 256
 412 535 342 490 278 491 c 256
 215 492 169 536 188 600 c 256
251 590 m 256
 243 566 253 536 282 533 c 256
 313 530 353 565 362 593 c 256
 370 618 361 647 331 650 c 256
 300 653 261 618 251 590 c 256
104 395 m 256
 125 465 203 516 274 515 c 256
 343 515 396 463 375 393 c 256
 354 324 275 272 204 273 c 256
 136 274 84 327 104 395 c 256
176 403 m 256
 164 372 176 336 213 334 c 256
 252 332 297 369 309 404 c 256
 319 434 307 471 271 473 c 256
 233 475 188 436 176 403 c 256
EndSplineSet
EndChar

StartChar: uni2079
Encoding: 8313 8313 173
Width: 338
VWidth: 0
Flags: HMW
LayerCount: 2
Fore
SplineSet
394 561 m 256
 407 599 396 644 350 646 c 256
 302 649 250 602 235 560 c 256
 222 522 234 477 280 474 c 256
 328 471 379 519 394 561 c 256
212 285 m 257
 117 285 l 257
 297 445 l 257
 313 444 l 257
 292 434 271 423 247 424 c 256
 174 425 150 500 168 561 c 256
 192 642 274 709 359 709 c 256
 443 709 488 637 463 559 c 256
 451 521 424 489 397 461 c 257
 212 285 l 257
EndSplineSet
EndChar

StartChar: uni2070
Encoding: 8304 8304 174
Width: 357
VWidth: 0
Flags: HMW
LayerCount: 2
Fore
SplineSet
205 490 m 256
 190 448 161 343 233 339 c 256
 306 335 358 434 379 490 c 256
 394 532 422 637 350 641 c 256
 277 645 226 546 205 490 c 256
135 490 m 256
 165 585 246 707 358 706 c 256
 474 705 474 573 448 490 c 256
 418 395 338 273 225 274 c 256
 109 275 109 408 135 490 c 256
EndSplineSet
EndChar

StartChar: uni2080
Encoding: 8320 8320 175
Width: 357
VWidth: 0
Flags: HMW
LayerCount: 2
Fore
SplineSet
109 210 m 256
 94 168 65 63 137 59 c 256
 210 55 262 154 283 210 c 256
 298 252 327 357 255 361 c 256
 182 365 130 266 109 210 c 256
40 210 m 256
 70 305 151 427 263 426 c 256
 379 425 378 293 352 210 c 256
 322 115 242 -7 129 -6 c 256
 13 -5 14 128 40 210 c 256
EndSplineSet
EndChar

StartChar: uni2084
Encoding: 8324 8324 176
Width: 380
VWidth: 0
Flags: HMW
LayerCount: 2
Fore
SplineSet
-8 82 m 257
 64 135 l 257
 236 137 l 257
 248 142 l 257
 345 142 l 257
 323 81 l 257
 -8 82 l 257
74 94 m 257
 -11 80 l 257
 331 418 l 257
 378 419 l 257
 234 0 l 257
 161 0 l 257
 196 102 l 257
 202 108 l 257
 264 280 l 257
 74 94 l 257
EndSplineSet
EndChar

StartChar: uni2085
Encoding: 8325 8325 177
Width: 349
VWidth: 0
Flags: HMW
LayerCount: 2
Fore
SplineSet
316 133 m 256
 291 52 208 -7 124 -8 c 256
 64 -9 24 22 -6 67 c 257
 47 117 l 257
 64 86 85 60 125 59 c 256
 172 58 228 94 242 140 c 256
 255 180 234 214 192 219 c 256
 150 223 108 203 71 189 c 257
 124 230 l 257
 155 253 196 275 236 274 c 256
 312 271 336 197 316 133 c 256
238 355 m 257
 163 236 l 257
 59 178 l 257
 200 417 l 257
 408 417 l 257
 386 356 l 257
 238 355 l 257
EndSplineSet
EndChar

StartChar: uni2086
Encoding: 8326 8326 178
Width: 343
VWidth: 0
Flags: HMW
LayerCount: 2
Fore
SplineSet
89 139 m 256
 76 101 87 56 133 54 c 256
 181 51 232 98 247 140 c 256
 260 178 249 223 203 226 c 256
 155 229 104 181 89 139 c 256
271 415 m 257
 366 415 l 257
 186 255 l 257
 170 256 l 257
 191 266 212 276 236 276 c 256
 309 275 333 200 315 139 c 256
 291 58 209 -9 124 -9 c 256
 40 -9 -5 63 20 141 c 256
 32 179 59 211 86 239 c 257
 271 415 l 257
EndSplineSet
EndChar

StartChar: uni2087
Encoding: 8327 8327 179
Width: 344
VWidth: 0
Flags: HMW
LayerCount: 2
Fore
SplineSet
91 353 m 257
 114 419 l 257
 418 419 l 257
 82 0 l 257
 3 0 l 257
 284 352 l 257
 91 353 l 257
EndSplineSet
EndChar

StartChar: uni2088
Encoding: 8328 8328 180
Width: 320
VWidth: 0
Flags: HMW
LayerCount: 2
Fore
SplineSet
94 320 m 256
 113 382 183 428 246 427 c 256
 307 426 354 380 336 318 c 256
 318 255 248 210 184 211 c 256
 121 212 75 256 94 320 c 256
158 310 m 256
 150 286 159 256 188 253 c 256
 219 250 259 285 268 313 c 256
 276 338 267 367 237 370 c 256
 206 373 168 338 158 310 c 256
10 115 m 256
 31 185 109 236 180 235 c 256
 249 235 301 183 280 113 c 256
 259 44 181 -8 110 -7 c 256
 42 -6 -10 47 10 115 c 256
82 123 m 256
 70 92 83 56 120 54 c 256
 159 52 204 89 216 124 c 256
 226 154 214 191 178 193 c 256
 140 195 94 156 82 123 c 256
EndSplineSet
EndChar

StartChar: uni2089
Encoding: 8329 8329 181
Width: 345
VWidth: 0
Flags: HMW
LayerCount: 2
Fore
SplineSet
290 281 m 256
 303 319 291 364 245 366 c 256
 197 369 146 322 131 280 c 256
 118 242 129 197 175 194 c 256
 223 191 275 239 290 281 c 256
108 5 m 257
 12 5 l 257
 194 165 l 257
 209 164 l 257
 188 154 167 143 143 144 c 256
 70 145 45 220 63 281 c 256
 87 362 170 429 255 429 c 256
 339 429 383 357 358 279 c 256
 346 241 320 209 293 181 c 257
 108 5 l 257
EndSplineSet
EndChar

StartChar: uni2081
Encoding: 8321 8321 182
Width: 313
VWidth: 0
Flags: HMW
LayerCount: 2
Fore
SplineSet
139 323 m 257
 161 390 l 257
 339 429 l 257
 191 2 l 257
 121 2 l 257
 237 346 l 257
 139 323 l 257
EndSplineSet
EndChar

StartChar: uni2082
Encoding: 8322 8322 183
Width: 350
VWidth: 0
Flags: HMW
LayerCount: 2
Fore
SplineSet
-32 4 m 257
 218 206 l 258
 248 230 289 261 301 300 c 256
 310 330 300 361 265 364 c 256
 212 369 177 314 155 275 c 257
 84 275 l 257
 119 353 182 430 276 429 c 256
 349 428 393 368 372 298 c 256
 358 251 319 215 282 185 c 258
 132 70 l 257
 297 68 l 257
 275 3 l 257
 -32 4 l 257
EndSplineSet
EndChar

StartChar: uni2083
Encoding: 8323 8323 184
Width: 316
VWidth: 0
Flags: HMW
LayerCount: 2
Fore
SplineSet
155 207 m 257
 167 243 l 257
 207 252 254 266 269 310 c 256
 278 336 269 363 240 365 c 256
 204 368 176 335 157 310 c 257
 89 311 l 257
 121 373 173 427 248 426 c 256
 312 425 359 376 339 312 c 256
 315 234 226 214 155 207 c 257
109 -7 m 256
 29 -6 -1 48 7 120 c 257
 74 120 l 257
 74 86 78 58 119 55 c 256
 157 53 202 87 213 122 c 256
 229 172 186 183 148 191 c 257
 161 230 l 257
 231 223 307 197 282 111 c 256
 261 40 181 -8 109 -7 c 256
EndSplineSet
EndChar

StartChar: Agrave
Encoding: 192 192 185
Width: 649
VWidth: 0
Flags: HMW
LayerCount: 2
Fore
SplineSet
159 180 m 257
 213 278 l 257
 523 279 l 257
 510 179 l 257
 159 180 l 257
447 500 m 257
 255 244 l 257
 246 218 l 257
 79 0 l 257
 -58 0 l 257
 522 742 l 257
 592 0 l 257
 468 0 l 257
 450 212 l 257
 459 242 l 257
 447 500 l 257
460 952 m 257
 558 994 l 257
 650 831 l 257
 584 799 l 257
 460 952 l 257
EndSplineSet
EndChar

StartChar: Aacute
Encoding: 193 193 186
Width: 649
VWidth: 0
Flags: HMW
LayerCount: 2
Fore
SplineSet
159 180 m 257
 213 278 l 257
 523 279 l 257
 510 179 l 257
 159 180 l 257
447 500 m 257
 255 244 l 257
 246 218 l 257
 79 0 l 257
 -58 0 l 257
 522 742 l 257
 592 0 l 257
 468 0 l 257
 450 212 l 257
 459 242 l 257
 447 500 l 257
730 943 m 257
 514 801 l 257
 459 838 l 257
 651 993 l 257
 730 943 l 257
EndSplineSet
EndChar

StartChar: Acircumflex
Encoding: 194 194 187
Width: 649
VWidth: 0
Flags: HMW
LayerCount: 2
Fore
SplineSet
159 180 m 257
 213 278 l 257
 523 279 l 257
 510 179 l 257
 159 180 l 257
447 500 m 257
 255 244 l 257
 246 218 l 257
 79 0 l 257
 -58 0 l 257
 522 742 l 257
 592 0 l 257
 468 0 l 257
 450 212 l 257
 459 242 l 257
 447 500 l 257
571 859 m 257
 442 770 l 257
 385 826 l 257
 594 962 l 257
 718 819 l 257
 635 770 l 257
 571 859 l 257
EndSplineSet
EndChar

StartChar: Atilde
Encoding: 195 195 188
Width: 649
VWidth: 0
Flags: HMW
LayerCount: 2
Fore
SplineSet
159 180 m 257
 213 278 l 257
 523 279 l 257
 510 179 l 257
 159 180 l 257
447 500 m 257
 255 244 l 257
 246 218 l 257
 79 0 l 257
 -58 0 l 257
 522 742 l 257
 592 0 l 257
 468 0 l 257
 450 212 l 257
 459 242 l 257
 447 500 l 257
386 836 m 257
 416 875 460 922 515 919 c 256
 556 917 578 869 619 872 c 256
 649 874 674 903 695 921 c 257
 736 862 l 257
 704 828 655 784 603 788 c 256
 563 791 540 839 499 835 c 256
 469 832 451 807 434 786 c 257
 386 836 l 257
EndSplineSet
EndChar

StartChar: Adieresis
Encoding: 196 196 189
Width: 649
VWidth: 0
Flags: HMW
LayerCount: 2
Fore
SplineSet
159 180 m 257
 213 278 l 257
 523 279 l 257
 510 179 l 257
 159 180 l 257
447 500 m 257
 255 244 l 257
 246 218 l 257
 79 0 l 257
 -58 0 l 257
 522 742 l 257
 592 0 l 257
 468 0 l 257
 450 212 l 257
 459 242 l 257
 447 500 l 257
602 844 m 256
 610 876 654 909 687 907 c 256
 721 905 742 873 734 839 c 256
 726 807 682 774 649 776 c 256
 615 778 594 810 602 844 c 256
380 847 m 256
 388 879 433 911 466 909 c 256
 500 907 521 876 513 842 c 256
 505 810 461 777 428 779 c 256
 394 781 372 813 380 847 c 256
EndSplineSet
EndChar

StartChar: Aring
Encoding: 197 197 190
Width: 649
VWidth: 0
Flags: HMW
LayerCount: 2
Fore
SplineSet
159 180 m 257
 213 278 l 257
 523 279 l 257
 510 179 l 257
 159 180 l 257
447 500 m 257
 255 244 l 257
 246 218 l 257
 79 0 l 257
 -58 0 l 257
 522 742 l 257
 592 0 l 257
 468 0 l 257
 450 212 l 257
 459 242 l 257
 447 500 l 257
437 801 m 256
 453 856 516 906 574 905 c 256
 632 904 666 852 650 797 c 256
 634 742 571 693 512 694 c 256
 454 695 421 747 437 801 c 256
497 798 m 256
 491 779 500 752 522 749 c 256
 545 746 584 779 590 800 c 256
 596 819 587 846 565 849 c 256
 542 852 503 819 497 798 c 256
EndSplineSet
EndChar

StartChar: AE
Encoding: 198 198 191
Width: 951
VWidth: 0
Flags: HMW
LayerCount: 2
Fore
SplineSet
233 186 m 257
 274 296 l 257
 560 296 l 257
 522 185 l 257
 233 186 l 257
600 700 m 257
 686 655 l 257
 94 0 l 257
 -49 0 l 257
 600 700 l 257
487 0 m 257
 522 105 l 257
 871 105 l 257
 835 0 l 257
 487 0 l 257
705 595 m 257
 600 700 l 257
 1074 700 l 257
 1038 595 l 257
 705 595 l 257
598 324 m 257
 632 426 l 257
 962 426 l 257
 927 323 l 257
 598 324 l 257
666 699 m 257
 790 700 l 257
 549 0 l 257
 429 0 l 257
 666 699 l 257
EndSplineSet
EndChar

StartChar: Ccedilla
Encoding: 199 199 192
Width: 650
VWidth: 0
Flags: HMW
LayerCount: 2
Fore
SplineSet
224 350 m 256
 184 238 221 108 356 105 c 256
 447 103 530 150 601 201 c 257
 558 61 l 257
 488 17 411 -14 327 -13 c 256
 126 -12 41 173 98 350 c 256
 160 544 350 712 559 713 c 256
 634 714 696 688 751 637 c 257
 707 497 l 257
 670 561 613 595 538 595 c 256
 398 594 270 477 224 350 c 256
309 53 m 257
 392 51 l 257
 279 -63 l 257
 284 -62 290 -62 295 -62 c 256
 338 -68 361 -105 349 -147 c 256
 333 -204 267 -244 210 -245 c 256
 170 -246 141 -227 110 -204 c 257
 160 -156 l 257
 176 -168 191 -180 213 -180 c 256
 233 -180 274 -162 279 -140 c 256
 284 -119 261 -108 245 -107 c 256
 221 -105 193 -115 170 -122 c 257
 309 53 l 257
EndSplineSet
EndChar

StartChar: Egrave
Encoding: 200 200 193
Width: 537
VWidth: 0
Flags: HMW
LayerCount: 2
Fore
SplineSet
88 0 m 257
 123 105 l 257
 460 105 l 257
 424 0 l 257
 88 0 l 257
292 596 m 257
 327 700 l 257
 663 700 l 257
 627 595 l 257
 292 596 l 257
198 324 m 257
 234 426 l 257
 551 426 l 257
 515 323 l 257
 198 324 l 257
255 699 m 257
 371 700 l 257
 130 0 l 257
 18 0 l 257
 255 699 l 257
400 928 m 257
 498 971 l 257
 590 807 l 257
 525 775 l 257
 400 928 l 257
EndSplineSet
EndChar

StartChar: Eacute
Encoding: 201 201 194
Width: 537
VWidth: 0
Flags: HMW
LayerCount: 2
Fore
SplineSet
88 0 m 257
 123 105 l 257
 460 105 l 257
 424 0 l 257
 88 0 l 257
292 596 m 257
 327 700 l 257
 663 700 l 257
 627 595 l 257
 292 596 l 257
198 324 m 257
 234 426 l 257
 551 426 l 257
 515 323 l 257
 198 324 l 257
255 699 m 257
 371 700 l 257
 130 0 l 257
 18 0 l 257
 255 699 l 257
671 920 m 257
 454 777 l 257
 400 814 l 257
 593 969 l 257
 671 920 l 257
EndSplineSet
EndChar

StartChar: Ecircumflex
Encoding: 202 202 195
Width: 537
VWidth: 0
Flags: HMW
LayerCount: 2
Fore
SplineSet
88 0 m 257
 123 105 l 257
 460 105 l 257
 424 0 l 257
 88 0 l 257
292 596 m 257
 327 700 l 257
 663 700 l 257
 627 595 l 257
 292 596 l 257
198 324 m 257
 234 426 l 257
 551 426 l 257
 515 323 l 257
 198 324 l 257
255 699 m 257
 371 700 l 257
 130 0 l 257
 18 0 l 257
 255 699 l 257
531 872 m 257
 393 779 l 257
 353 822 l 257
 548 958 l 257
 658 815 l 257
 602 779 l 257
 531 872 l 257
EndSplineSet
EndChar

StartChar: Edieresis
Encoding: 203 203 196
Width: 537
VWidth: 0
Flags: HMW
LayerCount: 2
Fore
SplineSet
88 0 m 257
 123 105 l 257
 460 105 l 257
 424 0 l 257
 88 0 l 257
292 596 m 257
 327 700 l 257
 663 700 l 257
 627 595 l 257
 292 596 l 257
198 324 m 257
 234 426 l 257
 551 426 l 257
 515 323 l 257
 198 324 l 257
255 699 m 257
 371 700 l 257
 130 0 l 257
 18 0 l 257
 255 699 l 257
554 856 m 256
 562 888 607 921 640 919 c 256
 674 917 695 885 687 851 c 256
 679 819 635 786 602 788 c 256
 568 790 546 822 554 856 c 256
349 856 m 256
 357 888 401 921 434 919 c 256
 468 917 490 885 482 851 c 256
 474 819 430 786 397 788 c 256
 363 790 341 822 349 856 c 256
EndSplineSet
EndChar

StartChar: Igrave
Encoding: 204 204 197
Width: 259
VWidth: 0
Flags: HMW
LayerCount: 2
Fore
SplineSet
255 699 m 257
 375 700 l 257
 134 0 l 257
 18 0 l 257
 255 699 l 257
254 928 m 257
 352 971 l 257
 443 807 l 257
 378 775 l 257
 254 928 l 257
EndSplineSet
EndChar

StartChar: Iacute
Encoding: 205 205 198
Width: 259
VWidth: 0
Flags: HMW
LayerCount: 2
Fore
SplineSet
255 699 m 257
 375 700 l 257
 134 0 l 257
 18 0 l 257
 255 699 l 257
524 920 m 257
 307 776 l 257
 254 814 l 257
 446 969 l 257
 524 920 l 257
EndSplineSet
EndChar

StartChar: Icircumflex
Encoding: 206 206 199
Width: 259
VWidth: 0
Flags: HMW
LayerCount: 2
Fore
SplineSet
255 699 m 257
 375 700 l 257
 134 0 l 257
 18 0 l 257
 255 699 l 257
377 872 m 257
 239 779 l 257
 200 822 l 257
 395 958 l 257
 504 815 l 257
 448 779 l 257
 377 872 l 257
EndSplineSet
EndChar

StartChar: Idieresis
Encoding: 207 207 200
Width: 259
VWidth: 0
Flags: HMW
LayerCount: 2
Fore
SplineSet
255 699 m 257
 375 700 l 257
 134 0 l 257
 18 0 l 257
 255 699 l 257
399 841 m 256
 407 872 450 906 483 904 c 256
 517 902 539 871 531 837 c 256
 523 805 479 772 446 774 c 256
 411 776 391 808 399 841 c 256
194 841 m 256
 202 872 244 906 277 904 c 256
 311 902 334 871 326 837 c 256
 318 805 274 772 241 774 c 256
 206 776 186 808 194 841 c 256
EndSplineSet
EndChar

StartChar: Ntilde
Encoding: 209 209 201
Width: 736
VWidth: 0
Flags: HMW
LayerCount: 2
Fore
SplineSet
737 700 m 257
 851 700 l 257
 600 -32 l 257
 292 469 l 257
 131 0 l 257
 15 0 l 257
 267 732 l 257
 575 231 l 257
 737 700 l 257
406 812 m 257
 436 851 479 898 534 895 c 256
 575 893 598 846 639 849 c 256
 669 851 694 879 715 897 c 257
 755 838 l 257
 723 804 674 760 622 764 c 256
 582 767 560 816 519 812 c 256
 489 809 470 783 453 762 c 257
 406 812 l 257
EndSplineSet
EndChar

StartChar: Eth
Encoding: 208 208 202
Width: 659
VWidth: 0
Flags: HMW
LayerCount: 2
Fore
SplineSet
55 308 m 257
 84 392 l 257
 390 392 l 257
 360 307 l 257
 55 308 l 257
255 699 m 257
 376 700 l 257
 135 0 l 257
 18 0 l 257
 255 699 l 257
240 0 m 256
 86 0 l 257
 125 112 l 257
 261 112 l 257
 404 117 526 217 574 350 c 256
 618 470 574 581 437 587 c 256
 286 588 l 257
 326 700 l 257
 463 700 l 256
 661 694 752 532 693 350 c 256
 630 154 448 6 240 0 c 256
EndSplineSet
EndChar

StartChar: Ograve
Encoding: 210 210 203
Width: 755
VWidth: 0
Flags: HMW
LayerCount: 2
Fore
SplineSet
222 350 m 256
 182 239 213 105 351 103 c 256
 493 101 618 224 664 350 c 256
 704 461 674 595 535 597 c 256
 393 599 268 476 222 350 c 256
98 350 m 256
 160 542 350 714 558 713 c 256
 760 712 844 527 788 350 c 256
 726 157 535 -16 326 -15 c 256
 123 -14 42 173 98 350 c 256
515 928 m 257
 613 971 l 257
 705 807 l 257
 639 775 l 257
 515 928 l 257
EndSplineSet
EndChar

StartChar: Oacute
Encoding: 211 211 204
Width: 755
VWidth: 0
Flags: HMW
LayerCount: 2
Fore
SplineSet
222 350 m 256
 182 239 213 105 351 103 c 256
 493 101 618 224 664 350 c 256
 704 461 674 595 535 597 c 256
 393 599 268 476 222 350 c 256
98 350 m 256
 160 542 350 714 558 713 c 256
 760 712 844 527 788 350 c 256
 726 157 535 -16 326 -15 c 256
 123 -14 42 173 98 350 c 256
771 920 m 257
 555 777 l 257
 500 814 l 257
 692 969 l 257
 771 920 l 257
EndSplineSet
EndChar

StartChar: Ocircumflex
Encoding: 212 212 205
Width: 755
VWidth: 0
Flags: HMW
LayerCount: 2
Fore
SplineSet
222 350 m 256
 182 239 213 105 351 103 c 256
 493 101 618 224 664 350 c 256
 704 461 674 595 535 597 c 256
 393 599 268 476 222 350 c 256
98 350 m 256
 160 542 351 714 559 713 c 256
 761 712 844 527 788 350 c 256
 726 157 535 -16 326 -15 c 256
 123 -14 42 173 98 350 c 256
632 872 m 257
 494 779 l 257
 454 822 l 257
 649 958 l 257
 759 815 l 257
 703 779 l 257
 632 872 l 257
EndSplineSet
EndChar

StartChar: Otilde
Encoding: 213 213 206
Width: 755
VWidth: 0
Flags: HMW
LayerCount: 2
Fore
SplineSet
222 350 m 256
 182 239 213 105 351 103 c 256
 493 101 618 224 664 350 c 256
 704 461 674 595 535 597 c 256
 393 599 268 476 222 350 c 256
98 350 m 256
 160 542 351 714 559 713 c 256
 761 712 844 527 788 350 c 256
 726 157 535 -16 326 -15 c 256
 123 -14 42 173 98 350 c 256
448 825 m 257
 439 865 541 904 569 903 c 256
 608 901 630 855 670 858 c 256
 698 860 722 887 741 904 c 257
 775 858 l 257
 746 827 704 786 657 790 c 256
 619 793 598 837 559 835 c 256
 529 833 508 806 491 785 c 257
 448 825 l 257
EndSplineSet
EndChar

StartChar: Odieresis
Encoding: 214 214 207
Width: 755
VWidth: 0
Flags: HMW
LayerCount: 2
Fore
SplineSet
222 350 m 256
 182 239 213 105 351 103 c 256
 493 101 618 224 664 350 c 256
 704 461 674 595 535 597 c 256
 393 599 268 476 222 350 c 256
98 350 m 256
 160 542 350 714 558 713 c 256
 760 712 844 527 788 350 c 256
 726 157 535 -16 326 -15 c 256
 123 -14 42 173 98 350 c 256
646 841 m 256
 654 873 698 906 731 904 c 256
 765 902 787 871 779 837 c 256
 771 805 727 772 694 774 c 256
 660 776 638 807 646 841 c 256
441 841 m 256
 449 873 492 906 525 904 c 256
 559 902 582 871 574 837 c 256
 566 805 522 772 489 774 c 256
 455 776 433 807 441 841 c 256
EndSplineSet
EndChar

StartChar: Ugrave
Encoding: 217 217 208
Width: 618
VWidth: 0
Flags: HMW
LayerCount: 2
Fore
SplineSet
252 700 m 257
 369 700 l 257
 207 235 l 258
 187 169 196 95 280 93 c 256
 366 91 431 161 461 235 c 257
 621 700 l 257
 738 700 l 257
 578 230 l 258
 529 95 407 -17 257 -17 c 256
 113 -17 53 100 91 230 c 256
 252 700 l 257
434 926 m 257
 533 968 l 257
 624 804 l 257
 559 773 l 257
 434 926 l 257
EndSplineSet
EndChar

StartChar: Uacute
Encoding: 218 218 209
Width: 618
VWidth: 0
Flags: HMW
LayerCount: 2
Fore
SplineSet
252 700 m 257
 369 700 l 257
 207 235 l 258
 187 169 196 95 280 93 c 256
 366 91 431 161 461 235 c 257
 621 700 l 257
 738 700 l 257
 578 230 l 258
 529 95 407 -17 257 -17 c 256
 113 -17 53 100 91 230 c 256
 252 700 l 257
706 917 m 257
 489 774 l 257
 435 812 l 257
 628 967 l 257
 706 917 l 257
EndSplineSet
EndChar

StartChar: Ucircumflex
Encoding: 219 219 210
Width: 618
VWidth: 0
Flags: HMW
LayerCount: 2
Fore
SplineSet
252 700 m 257
 369 700 l 257
 207 235 l 258
 187 169 196 95 280 93 c 256
 366 91 431 161 461 235 c 257
 621 700 l 257
 738 700 l 257
 578 230 l 258
 529 95 407 -17 257 -17 c 256
 113 -17 53 100 91 230 c 256
 252 700 l 257
556 862 m 257
 427 773 l 257
 371 830 l 257
 579 966 l 257
 703 822 l 257
 620 773 l 257
 556 862 l 257
EndSplineSet
EndChar

StartChar: Udieresis
Encoding: 220 220 211
Width: 618
VWidth: 0
Flags: HMW
LayerCount: 2
Fore
SplineSet
252 700 m 257
 369 700 l 257
 207 235 l 258
 187 169 196 95 280 93 c 256
 366 91 431 161 461 235 c 257
 621 700 l 257
 738 700 l 257
 578 230 l 258
 529 95 407 -17 257 -17 c 256
 113 -17 53 100 91 230 c 256
 252 700 l 257
585 841 m 256
 593 873 637 906 670 904 c 256
 704 902 726 871 718 837 c 256
 710 805 666 772 633 774 c 256
 599 776 577 807 585 841 c 256
365 841 m 256
 373 873 417 906 450 904 c 256
 484 902 506 871 498 837 c 256
 490 805 445 772 412 774 c 256
 378 776 357 807 365 841 c 256
EndSplineSet
EndChar

StartChar: Yacute
Encoding: 221 221 212
Width: 566
VWidth: 0
Flags: HMW
LayerCount: 2
Fore
SplineSet
680 917 m 257
 463 774 l 257
 410 812 l 257
 602 967 l 257
 680 917 l 257
616 699 m 257
 755 699 l 257
 387 289 l 257
 287 0 l 257
 169 0 l 257
 274 301 l 257
 189 700 l 257
 314 700 l 257
 363 406 l 257
 616 699 l 257
EndSplineSet
EndChar

StartChar: agrave
Encoding: 224 224 213
Width: 479
VWidth: 0
Flags: HMW
LayerCount: 2
Fore
SplineSet
122 136 m 256
 109 96 138 76 174 74 c 256
 248 70 298 124 333 182 c 257
 331 128 l 257
 291 48 221 -9 128 -9 c 256
 48 -9 -11 45 13 127 c 256
 42 225 149 282 247 282 c 256
 301 282 344 264 381 226 c 257
 363 171 l 257
 330 198 296 214 252 213 c 256
 203 212 139 187 122 136 c 256
171 338 m 257
 152 419 l 257
 212 448 276 472 344 471 c 256
 430 470 508 423 484 327 c 257
 372 0 l 257
 267 0 l 257
 379 315 l 257
 382 356 365 378 321 381 c 256
 269 384 217 359 171 338 c 257
267 684 m 257
 365 727 l 257
 456 563 l 257
 391 531 l 257
 267 684 l 257
EndSplineSet
Substitution2: "alt a" agrave.alt
EndChar

StartChar: aacute
Encoding: 225 225 214
Width: 479
VWidth: 0
Flags: HMW
LayerCount: 2
Fore
SplineSet
122 136 m 256
 109 96 138 76 174 74 c 256
 248 70 298 124 333 182 c 257
 331 128 l 257
 291 48 221 -9 128 -9 c 256
 48 -9 -11 45 13 127 c 256
 42 225 149 282 247 282 c 256
 301 282 344 264 381 226 c 257
 363 171 l 257
 330 198 296 214 252 213 c 256
 203 212 139 187 122 136 c 256
171 338 m 257
 152 419 l 257
 212 448 276 472 344 471 c 256
 430 470 508 423 484 327 c 257
 372 0 l 257
 267 0 l 257
 379 315 l 257
 382 356 365 378 321 381 c 256
 269 384 217 359 171 338 c 257
580 676 m 257
 363 533 l 257
 309 571 l 257
 502 725 l 257
 580 676 l 257
EndSplineSet
Substitution2: "alt a" aacute.alt
EndChar

StartChar: acircumflex
Encoding: 226 226 215
Width: 479
VWidth: 0
Flags: HMW
LayerCount: 2
Fore
SplineSet
122 136 m 256
 109 96 138 76 174 74 c 256
 248 70 298 124 333 182 c 257
 331 128 l 257
 291 48 221 -9 128 -9 c 256
 48 -9 -11 45 13 127 c 256
 42 225 149 282 247 282 c 256
 301 282 344 264 381 226 c 257
 363 171 l 257
 330 198 296 214 252 213 c 256
 203 212 139 187 122 136 c 256
171 338 m 257
 152 419 l 257
 212 448 276 472 344 471 c 256
 430 470 508 423 484 327 c 257
 372 0 l 257
 267 0 l 257
 379 315 l 257
 382 356 365 378 321 381 c 256
 269 384 217 359 171 338 c 257
409 621 m 257
 280 532 l 257
 223 588 l 257
 432 724 l 257
 556 581 l 257
 473 532 l 257
 409 621 l 257
EndSplineSet
Substitution2: "alt a" acircumflex.alt
EndChar

StartChar: atilde
Encoding: 227 227 216
Width: 479
VWidth: 0
Flags: HMW
LayerCount: 2
Fore
SplineSet
122 136 m 256
 109 96 138 76 174 74 c 256
 248 70 298 124 333 182 c 257
 331 128 l 257
 291 48 221 -9 128 -9 c 256
 48 -9 -11 45 13 127 c 256
 42 225 149 282 247 282 c 256
 301 282 344 264 381 226 c 257
 363 171 l 257
 330 198 296 214 252 213 c 256
 203 212 139 187 122 136 c 256
171 338 m 257
 152 419 l 257
 212 448 276 472 344 471 c 256
 430 470 508 423 484 327 c 257
 372 0 l 257
 267 0 l 257
 379 315 l 257
 382 356 365 378 321 381 c 256
 269 384 217 359 171 338 c 257
219 584 m 257
 249 623 293 669 348 666 c 256
 389 664 412 617 453 620 c 256
 483 622 507 650 528 668 c 257
 568 609 l 257
 536 575 488 531 436 535 c 256
 396 538 373 587 332 583 c 256
 302 580 283 555 266 534 c 257
 219 584 l 257
EndSplineSet
Substitution2: "alt a" atilde.alt
EndChar

StartChar: adieresis
Encoding: 228 228 217
Width: 479
VWidth: 0
Flags: HMW
LayerCount: 2
Fore
SplineSet
122 136 m 256
 109 96 138 76 174 74 c 256
 248 70 298 124 333 182 c 257
 331 128 l 257
 291 48 221 -9 128 -9 c 256
 48 -9 -11 45 13 127 c 256
 42 225 149 282 247 282 c 256
 301 282 344 264 381 226 c 257
 363 171 l 257
 330 198 296 214 252 213 c 256
 203 212 139 187 122 136 c 256
171 338 m 257
 152 419 l 257
 212 448 276 472 344 471 c 256
 430 470 508 423 484 327 c 257
 372 0 l 257
 267 0 l 257
 379 315 l 257
 382 356 365 378 321 381 c 256
 269 384 217 359 171 338 c 257
431 600 m 256
 439 632 482 665 515 663 c 256
 549 661 571 629 563 595 c 256
 555 563 511 530 478 532 c 256
 444 534 423 566 431 600 c 256
226 600 m 256
 234 632 277 665 310 663 c 256
 344 661 365 629 357 595 c 256
 349 563 306 530 273 532 c 256
 239 534 218 566 226 600 c 256
EndSplineSet
Substitution2: "alt a" adieresis.alt
EndChar

StartChar: aring
Encoding: 229 229 218
Width: 479
VWidth: 0
Flags: HMW
LayerCount: 2
Fore
SplineSet
122 136 m 256
 109 96 138 76 174 74 c 256
 248 70 298 124 333 182 c 257
 331 128 l 257
 291 48 221 -9 128 -9 c 256
 48 -9 -11 45 13 127 c 256
 42 225 149 282 247 282 c 256
 301 282 344 264 381 226 c 257
 363 171 l 257
 330 198 296 214 252 213 c 256
 203 212 139 187 122 136 c 256
171 338 m 257
 152 419 l 257
 212 448 276 472 344 471 c 256
 430 470 508 423 484 327 c 257
 372 0 l 257
 267 0 l 257
 379 315 l 257
 382 356 365 378 321 381 c 256
 269 384 217 359 171 338 c 257
301 640 m 256
 317 695 380 744 438 743 c 256
 496 742 531 691 515 636 c 256
 499 581 436 531 377 532 c 256
 319 533 285 586 301 640 c 256
361 637 m 256
 355 618 364 591 386 588 c 256
 409 585 448 618 454 639 c 256
 460 658 451 685 429 688 c 256
 406 691 367 658 361 637 c 256
EndSplineSet
Substitution2: "alt a" aring.alt
EndChar

StartChar: germandbls
Encoding: 223 223 219
Width: 544
VWidth: 0
Flags: HMW
LayerCount: 2
Fore
SplineSet
233 91 m 257
 320 106 403 156 434 243 c 256
 466 333 402 377 322 389 c 257
 345 463 l 257
 478 453 580 366 535 224 c 256
 489 77 347 2 202 -9 c 257
 233 91 l 257
332 421 m 257
 353 490 l 257
 419 499 493 522 517 591 c 256
 536 644 510 690 452 691 c 256
 392 692 339 653 320 598 c 258
 113 0 l 257
 8 0 l 257
 215 607 l 258
 252 714 351 792 473 792 c 256
 583 792 660 716 626 605 c 256
 585 473 458 428 332 421 c 257
EndSplineSet
EndChar

StartChar: ae
Encoding: 230 230 220
Width: 803
VWidth: 0
Flags: HMW
LayerCount: 2
Fore
SplineSet
122 136 m 256
 109 96 138 76 174 74 c 256
 248 70 296 123 329 182 c 257
 370 127 l 257
 326 40 247 -9 149 -9 c 256
 67 -9 -14 34 13 127 c 256
 41 225 149 282 247 282 c 256
 301 282 344 264 381 226 c 257
 363 171 l 257
 330 198 296 214 252 213 c 256
 203 212 139 187 122 136 c 256
171 338 m 257
 152 419 l 257
 211 448 276 472 344 471 c 256
 434 469 476 415 453 327 c 257
 387 131 l 257
 313 131 l 257
 377 308 l 257
 386 349 364 377 322 381 c 256
 271 386 216 359 171 338 c 257
403 206 m 257
 427 279 l 257
 795 280 l 257
 788 205 l 257
 403 206 l 257
693 247 m 258
 711 304 716 382 638 386 c 256
 560 390 501 321 470 257 c 258
 458 230 l 257
 435 167 437 85 521 81 c 256
 579 78 629 116 671 151 c 257
 754 112 l 257
 686 43 600 -11 500 -9 c 256
 368 -6 325 119 369 230 c 256
 376 247 386 263 395 279 c 256
 453 378 544 470 668 469 c 256
 800 468 830 343 800 235 c 256
 797 225 794 216 790 206 c 257
 685 226 l 257
 693 247 l 258
EndSplineSet
EndChar

StartChar: ccedilla
Encoding: 231 231 221
Width: 455
VWidth: 0
Flags: HMW
LayerCount: 2
Fore
SplineSet
159 230 m 256
 134 163 156 88 236 85 c 256
 301 82 361 119 409 159 c 257
 373 41 l 257
 325 11 271 -9 213 -9 c 256
 79 -8 12 107 50 230 c 256
 91 362 222 468 362 469 c 256
 415 469 458 452 497 418 c 257
 460 299 l 257
 440 349 405 376 350 375 c 256
 267 374 187 305 159 230 c 256
197 58 m 257
 280 56 l 257
 168 -58 l 257
 173 -57 178 -57 183 -57 c 256
 226 -63 249 -100 237 -142 c 256
 221 -199 154 -239 97 -240 c 256
 56 -241 28 -222 -3 -199 c 257
 48 -151 l 257
 64 -163 78 -175 100 -175 c 256
 120 -175 163 -157 168 -135 c 256
 173 -114 148 -103 132 -102 c 256
 108 -100 81 -110 58 -117 c 257
 197 58 l 257
EndSplineSet
EndChar

StartChar: egrave
Encoding: 232 232 222
Width: 507
VWidth: 0
Flags: HMW
LayerCount: 2
Fore
SplineSet
109 206 m 257
 133 279 l 257
 402 280 l 257
 410 332 405 383 341 386 c 256
 263 389 204 321 173 257 c 258
 161 230 l 257
 138 167 142 85 225 81 c 256
 283 78 332 116 374 151 c 257
 457 112 l 257
 388 43 304 -10 204 -9 c 256
 69 -7 19 112 54 230 c 256
 59 247 65 263 73 279 c 256
 125 385 235 470 357 469 c 256
 495 468 536 353 503 235 c 256
 500 225 498 216 494 206 c 257
 109 206 l 257
297 691 m 257
 395 733 l 257
 486 570 l 257
 422 538 l 257
 297 691 l 257
EndSplineSet
EndChar

StartChar: eacute
Encoding: 233 233 223
Width: 507
VWidth: 0
Flags: HMW
LayerCount: 2
Fore
SplineSet
109 206 m 257
 133 279 l 257
 402 280 l 257
 410 332 405 383 341 386 c 256
 263 389 204 321 173 257 c 258
 161 230 l 257
 138 167 142 85 225 81 c 256
 283 78 332 116 374 151 c 257
 457 112 l 257
 388 43 304 -10 204 -9 c 256
 69 -7 19 112 54 230 c 256
 59 247 65 263 73 279 c 256
 125 385 235 470 357 469 c 256
 495 468 536 353 503 235 c 256
 500 225 498 216 494 206 c 257
 109 206 l 257
596 682 m 257
 380 539 l 257
 326 577 l 257
 517 732 l 257
 596 682 l 257
EndSplineSet
EndChar

StartChar: ecircumflex
Encoding: 234 234 224
Width: 507
VWidth: 0
Flags: HMW
LayerCount: 2
Fore
SplineSet
109 206 m 257
 133 279 l 257
 402 280 l 257
 410 332 405 383 341 386 c 256
 263 389 204 321 173 257 c 258
 161 230 l 257
 138 167 142 85 225 81 c 256
 283 78 332 116 374 151 c 257
 457 112 l 257
 388 43 304 -10 204 -9 c 256
 69 -7 19 112 54 230 c 256
 59 247 65 263 73 279 c 256
 125 385 235 470 357 469 c 256
 495 468 536 353 503 235 c 256
 500 225 498 216 494 206 c 257
 109 206 l 257
422 620 m 257
 294 531 l 257
 237 587 l 257
 446 723 l 257
 570 580 l 257
 487 530 l 257
 422 620 l 257
EndSplineSet
EndChar

StartChar: edieresis
Encoding: 235 235 225
Width: 507
VWidth: 0
Flags: HMW
LayerCount: 2
Fore
SplineSet
109 206 m 257
 133 279 l 257
 402 280 l 257
 410 332 405 383 341 386 c 256
 263 389 204 321 173 257 c 258
 161 230 l 257
 138 167 142 85 225 81 c 256
 283 78 332 116 374 151 c 257
 457 112 l 257
 388 43 304 -10 204 -9 c 256
 69 -7 19 112 54 230 c 256
 59 247 65 263 73 279 c 256
 125 385 235 470 357 469 c 256
 495 468 536 353 503 235 c 256
 500 225 498 216 494 206 c 257
 109 206 l 257
444 599 m 256
 452 631 496 664 529 662 c 256
 563 660 585 628 577 594 c 256
 569 562 525 529 492 531 c 256
 458 533 436 565 444 599 c 256
239 599 m 256
 247 631 291 664 324 662 c 256
 358 660 380 628 372 594 c 256
 364 562 319 529 286 531 c 256
 252 533 231 565 239 599 c 256
EndSplineSet
EndChar

StartChar: igrave
Encoding: 236 236 226
Width: 250
VWidth: 0
Flags: HMW
LayerCount: 2
Fore
SplineSet
174 459 m 257
 282 460 l 257
 122 0 l 257
 20 0 l 257
 174 459 l 257
149 698 m 257
 248 741 l 257
 339 577 l 257
 274 545 l 257
 149 698 l 257
EndSplineSet
EndChar

StartChar: dotlessi
Encoding: 305 305 227
Width: 250
VWidth: 0
Flags: HMW
LayerCount: 2
Fore
SplineSet
174 459 m 257
 282 460 l 257
 122 0 l 257
 20 0 l 257
 174 459 l 257
EndSplineSet
EndChar

StartChar: kgreenlandic
Encoding: 312 312 228
Width: 466
VWidth: 0
Flags: HMW
LayerCount: 2
Fore
SplineSet
161 459 m 257
 268 460 l 257
 109 0 l 257
 6 0 l 257
 161 459 l 257
417 459 m 257
 557 459 l 257
 296 265 l 257
 408 0 l 257
 290 0 l 257
 172 276 l 257
 417 459 l 257
EndSplineSet
EndChar

StartChar: iacute
Encoding: 237 237 229
Width: 250
VWidth: 0
Flags: HMW
LayerCount: 2
Fore
SplineSet
174 459 m 257
 282 460 l 257
 122 0 l 257
 20 0 l 257
 174 459 l 257
466 690 m 257
 249 547 l 257
 195 584 l 257
 387 739 l 257
 466 690 l 257
EndSplineSet
EndChar

StartChar: icircumflex
Encoding: 238 238 230
Width: 250
VWidth: 0
Flags: HMW
LayerCount: 2
Fore
SplineSet
174 459 m 257
 282 460 l 257
 122 0 l 257
 20 0 l 257
 174 459 l 257
292 627 m 257
 163 538 l 257
 106 595 l 257
 315 731 l 257
 439 587 l 257
 357 538 l 257
 292 627 l 257
EndSplineSet
EndChar

StartChar: idieresis
Encoding: 239 239 231
Width: 250
VWidth: 0
Flags: HMW
LayerCount: 2
Fore
SplineSet
174 459 m 257
 282 460 l 257
 122 0 l 257
 20 0 l 257
 174 459 l 257
319 621 m 256
 327 653 370 686 403 684 c 256
 437 682 459 650 451 616 c 256
 443 584 400 551 367 553 c 256
 333 555 311 587 319 621 c 256
114 621 m 256
 122 653 165 686 198 684 c 256
 232 682 254 650 246 616 c 256
 238 584 195 551 162 553 c 256
 128 555 106 587 114 621 c 256
EndSplineSet
EndChar

StartChar: ntilde
Encoding: 241 241 232
Width: 512
VWidth: 0
Flags: HMW
LayerCount: 2
Fore
SplineSet
273 460 m 257
 115 0 l 257
 7 0 l 257
 166 460 l 257
 273 460 l 257
385 280 m 257
 398 322 404 377 346 381 c 256
 284 385 239 329 211 282 c 257
 176 279 l 257
 215 370 287 469 397 470 c 256
 503 471 521 378 496 293 c 257
 396 0 l 257
 288 0 l 257
 385 280 l 257
232 582 m 257
 262 621 305 668 360 665 c 256
 401 663 424 616 465 619 c 256
 495 621 520 649 541 667 c 257
 581 608 l 257
 548 574 500 530 448 534 c 256
 408 537 386 586 345 582 c 256
 315 579 295 554 278 533 c 257
 232 582 l 257
EndSplineSet
EndChar

StartChar: ograve
Encoding: 242 242 233
Width: 530
VWidth: 0
Flags: HMW
LayerCount: 2
Fore
SplineSet
53 230 m 256
 94 360 225 470 364 470 c 256
 498 470 564 352 526 230 c 256
 485 100 354 -9 215 -9 c 256
 81 -9 15 108 53 230 c 256
162 230 m 256
 139 167 155 89 234 87 c 256
 315 85 391 158 417 230 c 256
 440 293 424 371 345 373 c 256
 264 375 188 302 162 230 c 256
297 698 m 257
 395 741 l 257
 487 577 l 257
 422 545 l 257
 297 698 l 257
EndSplineSet
EndChar

StartChar: oacute
Encoding: 243 243 234
Width: 530
VWidth: 0
Flags: HMW
LayerCount: 2
Fore
SplineSet
53 230 m 256
 94 360 225 470 364 470 c 256
 498 470 564 352 526 230 c 256
 485 100 354 -9 215 -9 c 256
 81 -9 15 108 53 230 c 256
162 230 m 256
 139 167 155 89 234 87 c 256
 315 85 391 158 417 230 c 256
 440 293 424 371 345 373 c 256
 264 375 188 302 162 230 c 256
600 690 m 257
 384 547 l 257
 330 584 l 257
 522 739 l 257
 600 690 l 257
EndSplineSet
EndChar

StartChar: ocircumflex
Encoding: 244 244 235
Width: 530
VWidth: 0
Flags: HMW
LayerCount: 2
Fore
SplineSet
53 230 m 256
 94 360 225 470 364 470 c 256
 498 470 564 352 526 230 c 256
 485 100 354 -9 215 -9 c 256
 81 -9 15 108 53 230 c 256
162 230 m 256
 139 167 155 89 234 87 c 256
 315 85 391 158 417 230 c 256
 440 293 424 371 345 373 c 256
 264 375 188 302 162 230 c 256
434 635 m 257
 306 546 l 257
 249 602 l 257
 458 738 l 257
 581 595 l 257
 499 545 l 257
 434 635 l 257
EndSplineSet
EndChar

StartChar: otilde
Encoding: 245 245 236
Width: 530
VWidth: 0
Flags: HMW
LayerCount: 2
Fore
SplineSet
53 230 m 256
 94 360 225 470 364 470 c 256
 498 470 564 352 526 230 c 256
 485 100 354 -9 215 -9 c 256
 81 -9 15 108 53 230 c 256
162 230 m 256
 139 167 155 89 234 87 c 256
 315 85 391 158 417 230 c 256
 440 293 424 371 345 373 c 256
 264 375 188 302 162 230 c 256
240 582 m 257
 231 625 337 666 368 665 c 256
 409 663 431 616 473 619 c 256
 503 621 528 649 549 667 c 257
 589 608 l 257
 557 574 509 530 457 534 c 256
 417 537 394 586 353 582 c 256
 323 579 304 554 287 533 c 257
 240 582 l 257
EndSplineSet
EndChar

StartChar: odieresis
Encoding: 246 246 237
Width: 530
VWidth: 0
Flags: HMW
LayerCount: 2
Fore
SplineSet
53 230 m 256
 94 360 225 470 364 470 c 256
 498 470 564 352 526 230 c 256
 485 100 354 -9 215 -9 c 256
 81 -9 15 108 53 230 c 256
162 230 m 256
 139 167 155 89 234 87 c 256
 315 85 391 158 417 230 c 256
 440 293 424 371 345 373 c 256
 264 375 188 302 162 230 c 256
459 621 m 256
 467 653 511 686 544 684 c 256
 578 682 599 650 591 616 c 256
 583 584 539 551 506 553 c 256
 472 555 451 587 459 621 c 256
254 621 m 256
 262 653 305 686 338 684 c 256
 372 682 394 650 386 616 c 256
 378 584 334 551 301 553 c 256
 267 555 246 587 254 621 c 256
EndSplineSet
EndChar

StartChar: ugrave
Encoding: 249 249 238
Width: 512
VWidth: 0
Flags: HMW
LayerCount: 2
Fore
SplineSet
288 0 m 257
 447 460 l 257
 555 460 l 257
 396 0 l 257
 288 0 l 257
177 180 m 257
 164 138 159 83 216 79 c 256
 278 75 323 131 351 178 c 257
 387 181 l 257
 348 90 275 -9 165 -10 c 256
 59 -11 41 82 66 167 c 257
 167 460 l 257
 274 459 l 257
 177 180 l 257
316 698 m 257
 415 741 l 257
 506 577 l 257
 440 545 l 257
 316 698 l 257
EndSplineSet
EndChar

StartChar: uacute
Encoding: 250 250 239
Width: 512
VWidth: 0
Flags: HMW
LayerCount: 2
Fore
SplineSet
288 0 m 257
 447 460 l 257
 555 460 l 257
 396 0 l 257
 288 0 l 257
177 180 m 257
 164 138 159 83 216 79 c 256
 278 75 323 131 351 178 c 257
 387 181 l 257
 348 90 275 -9 165 -10 c 256
 59 -11 41 82 66 167 c 257
 167 460 l 257
 274 459 l 257
 177 180 l 257
563 690 m 257
 348 546 l 257
 294 584 l 257
 486 739 l 257
 563 690 l 257
EndSplineSet
EndChar

StartChar: ucircumflex
Encoding: 251 251 240
Width: 512
VWidth: 0
Flags: HMW
LayerCount: 2
Fore
SplineSet
288 0 m 257
 447 460 l 257
 555 460 l 257
 396 0 l 257
 288 0 l 257
177 180 m 257
 164 138 159 83 216 79 c 256
 278 75 323 131 351 178 c 257
 387 181 l 257
 348 90 275 -9 165 -10 c 256
 59 -11 41 82 66 167 c 257
 167 460 l 257
 274 459 l 257
 177 180 l 257
426 635 m 257
 297 546 l 257
 239 602 l 257
 449 738 l 257
 573 595 l 257
 490 545 l 257
 426 635 l 257
EndSplineSet
EndChar

StartChar: udieresis
Encoding: 252 252 241
Width: 512
VWidth: 0
Flags: HMW
LayerCount: 2
Fore
SplineSet
288 0 m 257
 447 460 l 257
 555 460 l 257
 396 0 l 257
 288 0 l 257
177 180 m 257
 164 138 159 83 216 79 c 256
 278 75 323 131 351 178 c 257
 387 181 l 257
 348 90 275 -9 165 -10 c 256
 59 -11 41 82 66 167 c 257
 167 460 l 257
 274 459 l 257
 177 180 l 257
448 614 m 256
 456 645 499 678 532 676 c 256
 566 674 589 643 581 609 c 256
 573 577 528 544 495 546 c 256
 460 548 440 581 448 614 c 256
243 614 m 256
 251 645 294 678 327 676 c 256
 361 674 383 643 375 609 c 256
 367 577 323 544 290 546 c 256
 255 548 235 581 243 614 c 256
EndSplineSet
EndChar

StartChar: yacute
Encoding: 253 253 242
Width: 444
VWidth: 0
Flags: HMW
LayerCount: 2
Fore
SplineSet
558 459 m 257
 42 -219 l 257
 -77 -219 l 257
 137 60 l 257
 101 460 l 257
 216 460 l 257
 230 96 l 257
 179 100 l 257
 439 459 l 257
 558 459 l 257
542 690 m 257
 325 547 l 257
 272 584 l 257
 464 739 l 257
 542 690 l 257
EndSplineSet
EndChar

StartChar: thorn
Encoding: 254 254 243
Width: 554
VWidth: 0
Flags: HMW
LayerCount: 2
Fore
SplineSet
38 -219 m 257
 -72 -220 l 257
 272 780 l 257
 377 779 l 257
 38 -219 l 257
549 230 m 256
 511 109 396 -11 262 -10 c 256
 130 -9 118 131 150 230 c 256
 186 344 281 468 411 469 c 256
 544 470 584 340 549 230 c 256
440 230 m 256
 463 293 447 373 367 374 c 256
 288 375 215 299 189 230 c 256
 168 171 179 90 255 86 c 256
 337 82 414 159 440 230 c 256
EndSplineSet
EndChar

StartChar: ydieresis
Encoding: 255 255 244
Width: 444
VWidth: 0
Flags: HMW
LayerCount: 2
Fore
SplineSet
558 459 m 257
 42 -219 l 257
 -77 -219 l 257
 137 60 l 257
 101 460 l 257
 216 460 l 257
 230 96 l 257
 179 100 l 257
 439 459 l 257
 558 459 l 257
409 599 m 256
 417 631 461 664 494 662 c 256
 528 660 549 628 541 594 c 256
 533 562 489 529 456 531 c 256
 422 533 401 565 409 599 c 256
204 599 m 256
 212 631 255 664 288 662 c 256
 322 660 344 628 336 594 c 256
 328 562 284 529 251 531 c 256
 217 533 196 565 204 599 c 256
EndSplineSet
EndChar

StartChar: Amacron
Encoding: 256 256 245
Width: 649
VWidth: 0
Flags: HMW
LayerCount: 2
Fore
SplineSet
159 180 m 257
 213 278 l 257
 523 279 l 257
 510 179 l 257
 159 180 l 257
447 500 m 257
 255 244 l 257
 246 218 l 257
 79 0 l 257
 -58 0 l 257
 522 742 l 257
 592 0 l 257
 468 0 l 257
 450 212 l 257
 459 242 l 257
 447 500 l 257
374 800 m 257
 407 897 l 257
 749 897 l 257
 716 799 l 257
 374 800 l 257
EndSplineSet
EndChar

StartChar: amacron
Encoding: 257 257 246
Width: 479
VWidth: 0
Flags: HMW
LayerCount: 2
Fore
SplineSet
122 136 m 256
 109 96 138 76 174 74 c 256
 248 70 298 124 333 182 c 257
 331 128 l 257
 291 48 221 -9 128 -9 c 256
 48 -9 -11 45 13 127 c 256
 42 225 149 282 247 282 c 256
 301 282 344 264 381 226 c 257
 363 171 l 257
 330 198 296 214 252 213 c 256
 203 212 139 187 122 136 c 256
171 338 m 257
 152 419 l 257
 212 448 276 472 344 471 c 256
 430 470 508 423 484 327 c 257
 372 0 l 257
 267 0 l 257
 379 315 l 257
 382 356 365 378 321 381 c 256
 269 384 217 359 171 338 c 257
207 547 m 257
 240 644 l 257
 582 644 l 257
 549 546 l 257
 207 547 l 257
EndSplineSet
Substitution2: "alt a" amacron.alt
EndChar

StartChar: breve
Encoding: 728 728 247
Width: 513
VWidth: 0
Flags: HMW
LayerCount: 2
Fore
SplineSet
331 850 m 257
 408 850 l 257
 407 815 415 784 457 782 c 256
 502 780 532 815 554 849 c 257
 636 848 l 257
 602 770 538 708 447 708 c 256
 359 708 322 769 331 850 c 257
EndSplineSet
EndChar

StartChar: Abreve
Encoding: 258 258 248
Width: 649
VWidth: 0
Flags: HMW
LayerCount: 2
Fore
SplineSet
159 180 m 257
 213 278 l 257
 523 279 l 257
 510 179 l 257
 159 180 l 257
447 500 m 257
 255 244 l 257
 246 218 l 257
 79 0 l 257
 -58 0 l 257
 522 742 l 257
 592 0 l 257
 468 0 l 257
 450 212 l 257
 459 242 l 257
 447 500 l 257
439 942 m 257
 516 941 l 257
 514 906 520 876 562 874 c 256
 607 872 638 907 662 940 c 257
 744 939 l 257
 707 861 641 800 550 800 c 256
 461 800 428 862 439 942 c 257
EndSplineSet
EndChar

StartChar: abreve
Encoding: 259 259 249
Width: 479
VWidth: 0
Flags: HMW
LayerCount: 2
Fore
SplineSet
122 136 m 256
 109 96 138 76 174 74 c 256
 248 70 298 124 333 182 c 257
 331 128 l 257
 291 48 221 -9 128 -9 c 256
 48 -9 -11 45 13 127 c 256
 42 225 149 282 247 282 c 256
 301 282 344 264 381 226 c 257
 363 171 l 257
 330 198 296 214 252 213 c 256
 203 212 139 187 122 136 c 256
171 338 m 257
 152 419 l 257
 212 448 276 472 344 471 c 256
 430 470 508 423 484 327 c 257
 372 0 l 257
 267 0 l 257
 379 315 l 257
 382 356 365 378 321 381 c 256
 269 384 217 359 171 338 c 257
266 674 m 257
 344 673 l 257
 342 638 347 608 389 606 c 256
 434 604 465 640 489 673 c 257
 572 672 l 257
 535 595 469 532 378 532 c 256
 289 532 255 594 266 674 c 257
EndSplineSet
Substitution2: "alt a" abreve.alt
EndChar

StartChar: Aogonek
Encoding: 260 260 250
Width: 649
VWidth: 0
Flags: HMW
LayerCount: 2
Fore
SplineSet
159 180 m 257
 213 278 l 257
 523 279 l 257
 510 179 l 257
 159 180 l 257
447 500 m 257
 255 244 l 257
 246 218 l 257
 79 0 l 257
 -58 0 l 257
 522 742 l 257
 592 0 l 257
 468 0 l 257
 450 212 l 257
 459 242 l 257
 447 500 l 257
535 -122 m 257
 549 -183 l 257
 519 -203 489 -219 453 -219 c 256
 394 -220 350 -180 367 -119 c 256
 388 -45 476 -6 539 24 c 257
 576 0 l 257
 537 -24 472 -49 458 -98 c 256
 453 -117 457 -137 479 -141 c 256
 497 -144 520 -130 535 -122 c 257
EndSplineSet
EndChar

StartChar: aogonek
Encoding: 261 261 251
Width: 479
VWidth: 0
Flags: HMW
LayerCount: 2
Fore
SplineSet
122 136 m 256
 111 97 139 76 174 74 c 256
 247 70 298 124 333 182 c 257
 331 128 l 257
 291 48 221 -9 128 -9 c 256
 46 -9 -10 50 14 132 c 256
 43 230 150 282 247 282 c 256
 301 282 344 264 381 226 c 257
 363 171 l 257
 330 198 296 214 252 213 c 256
 203 212 137 188 122 136 c 256
171 338 m 257
 152 419 l 257
 212 448 276 472 344 471 c 256
 430 470 508 423 484 327 c 257
 372 0 l 257
 267 0 l 257
 379 315 l 257
 382 356 365 378 321 381 c 256
 269 384 217 359 171 338 c 257
320 -122 m 257
 335 -183 l 257
 305 -203 274 -219 238 -219 c 256
 179 -220 134 -180 151 -119 c 256
 172 -45 261 -6 324 24 c 257
 361 0 l 257
 322 -24 258 -49 244 -98 c 256
 239 -117 243 -137 265 -141 c 256
 283 -144 305 -130 320 -122 c 257
EndSplineSet
Substitution2: "alt a" aogonek.alt
EndChar

StartChar: Cacute
Encoding: 262 262 252
Width: 650
VWidth: 0
Flags: HMW
LayerCount: 2
Fore
SplineSet
224 350 m 256
 184 238 221 108 356 105 c 256
 447 103 530 150 601 201 c 257
 558 61 l 257
 488 17 411 -14 327 -13 c 256
 126 -12 41 173 98 350 c 256
 160 544 350 712 559 713 c 256
 634 714 696 688 751 637 c 257
 707 497 l 257
 670 561 613 595 538 595 c 256
 398 594 270 477 224 350 c 256
762 917 m 257
 546 774 l 257
 492 812 l 257
 684 967 l 257
 762 917 l 257
EndSplineSet
EndChar

StartChar: cacute
Encoding: 263 263 253
Width: 455
VWidth: 0
Flags: HMW
LayerCount: 2
Fore
SplineSet
159 230 m 256
 134 163 156 88 236 85 c 256
 301 82 361 119 409 159 c 257
 373 41 l 257
 325 11 271 -9 213 -9 c 256
 79 -8 12 107 50 230 c 256
 91 362 222 468 362 469 c 256
 415 469 458 452 497 418 c 257
 460 299 l 257
 440 349 405 376 350 375 c 256
 267 374 187 305 159 230 c 256
565 675 m 257
 349 532 l 257
 295 570 l 257
 487 724 l 257
 565 675 l 257
EndSplineSet
EndChar

StartChar: Ccircumflex
Encoding: 264 264 254
Width: 650
VWidth: 0
Flags: HMW
LayerCount: 2
Fore
SplineSet
224 350 m 256
 184 238 221 108 356 105 c 256
 447 103 530 150 601 201 c 257
 558 61 l 257
 488 17 411 -14 327 -13 c 256
 126 -12 41 173 98 350 c 256
 160 544 350 712 559 713 c 256
 634 714 696 688 751 637 c 257
 707 497 l 257
 670 561 613 595 538 595 c 256
 398 594 270 477 224 350 c 256
624 862 m 257
 497 773 l 257
 439 830 l 257
 648 966 l 257
 772 822 l 257
 689 773 l 257
 624 862 l 257
EndSplineSet
EndChar

StartChar: ccircumflex
Encoding: 265 265 255
Width: 455
VWidth: 0
Flags: HMW
LayerCount: 2
Fore
SplineSet
159 230 m 256
 134 163 156 88 236 85 c 256
 301 82 361 119 409 159 c 257
 373 41 l 257
 325 11 271 -9 213 -9 c 256
 79 -8 12 107 50 230 c 256
 91 362 222 468 362 469 c 256
 415 469 458 452 497 418 c 257
 460 299 l 257
 440 349 405 376 350 375 c 256
 267 374 187 305 159 230 c 256
415 620 m 257
 287 531 l 257
 229 587 l 257
 438 723 l 257
 562 580 l 257
 479 530 l 257
 415 620 l 257
EndSplineSet
EndChar

StartChar: Cdotaccent
Encoding: 266 266 256
Width: 650
VWidth: 0
Flags: HMW
LayerCount: 2
Fore
SplineSet
224 350 m 256
 184 238 221 108 356 105 c 256
 447 103 530 150 601 201 c 257
 558 61 l 257
 488 17 411 -14 327 -13 c 256
 126 -12 41 173 98 350 c 256
 160 544 350 712 559 713 c 256
 634 714 696 688 751 637 c 257
 707 497 l 257
 670 561 613 595 538 595 c 256
 398 594 270 477 224 350 c 256
534 841 m 256
 542 873 586 906 619 904 c 256
 653 902 674 871 666 837 c 256
 658 805 615 772 582 774 c 256
 548 776 526 807 534 841 c 256
EndSplineSet
EndChar

StartChar: cdotaccent
Encoding: 267 267 257
Width: 455
VWidth: 0
Flags: HMW
LayerCount: 2
Fore
SplineSet
159 230 m 256
 134 163 156 88 236 85 c 256
 301 82 361 119 409 159 c 257
 373 41 l 257
 325 11 271 -9 213 -9 c 256
 79 -8 12 107 50 230 c 256
 91 362 222 468 362 469 c 256
 415 469 458 452 497 418 c 257
 460 299 l 257
 440 349 405 376 350 375 c 256
 267 374 187 305 159 230 c 256
338 601 m 256
 346 633 389 666 422 664 c 256
 456 662 478 631 470 597 c 256
 462 565 418 532 385 534 c 256
 351 536 330 567 338 601 c 256
EndSplineSet
EndChar

StartChar: Ccaron
Encoding: 268 268 258
Width: 650
VWidth: 0
Flags: HMW
LayerCount: 2
Fore
SplineSet
224 350 m 256
 184 238 221 108 356 105 c 256
 447 103 530 150 601 201 c 257
 558 61 l 257
 488 17 411 -14 327 -13 c 256
 126 -12 41 173 98 350 c 256
 160 544 350 712 559 713 c 256
 634 714 696 688 751 637 c 257
 707 497 l 257
 670 561 613 595 538 595 c 256
 398 594 270 477 224 350 c 256
616 876 m 257
 745 965 l 257
 801 909 l 257
 593 773 l 257
 469 916 l 257
 552 965 l 257
 616 876 l 257
EndSplineSet
EndChar

StartChar: ccaron
Encoding: 269 269 259
Width: 455
VWidth: 0
Flags: HMW
LayerCount: 2
Fore
SplineSet
159 230 m 256
 134 163 156 88 236 85 c 256
 301 82 361 119 409 159 c 257
 373 41 l 257
 325 11 271 -9 213 -9 c 256
 79 -8 12 107 50 230 c 256
 91 362 222 468 362 469 c 256
 415 469 458 452 497 418 c 257
 460 299 l 257
 440 349 405 376 350 375 c 256
 267 374 187 305 159 230 c 256
407 634 m 257
 535 723 l 257
 592 666 l 257
 383 530 l 257
 259 674 l 257
 342 723 l 257
 407 634 l 257
EndSplineSet
EndChar

StartChar: Dcaron
Encoding: 270 270 260
Width: 659
VWidth: 0
Flags: HMW
LayerCount: 2
Fore
SplineSet
255 699 m 257
 376 700 l 257
 135 0 l 257
 18 0 l 257
 255 699 l 257
240 0 m 256
 86 0 l 257
 125 112 l 257
 261 112 l 257
 404 117 526 217 574 350 c 256
 618 470 574 581 437 587 c 256
 286 588 l 257
 326 700 l 257
 463 700 l 256
 661 694 752 532 693 350 c 256
 630 154 448 6 240 0 c 256
567 876 m 257
 694 965 l 257
 752 909 l 257
 543 773 l 257
 419 916 l 257
 502 965 l 257
 567 876 l 257
EndSplineSet
EndChar

StartChar: dcaron
Encoding: 271 271 261
Width: 554
VWidth: 0
Flags: HMW
LayerCount: 2
Fore
SplineSet
599 779 m 257
 709 780 l 257
 440 0 l 257
 335 0 l 257
 599 779 l 257
53 230 m 256
 91 351 208 471 342 470 c 256
 474 469 485 329 453 230 c 256
 417 116 323 -8 193 -9 c 256
 60 -10 18 120 53 230 c 256
163 230 m 256
 140 167 156 87 236 86 c 256
 315 85 388 161 414 230 c 256
 435 289 424 370 348 374 c 256
 266 378 189 301 163 230 c 256
812 778 m 257
 914 745 l 257
 719 501 l 257
 642 524 l 257
 812 778 l 257
EndSplineSet
EndChar

StartChar: Dcroat
Encoding: 272 272 262
Width: 659
VWidth: 0
Flags: HMW
LayerCount: 2
Fore
SplineSet
54 306 m 257
 83 390 l 257
 386 390 l 257
 357 305 l 257
 54 306 l 257
255 699 m 257
 376 700 l 257
 135 0 l 257
 18 0 l 257
 255 699 l 257
240 0 m 256
 86 0 l 257
 125 112 l 257
 261 112 l 257
 404 117 526 217 574 350 c 256
 618 470 574 581 437 587 c 256
 286 588 l 257
 326 700 l 257
 463 700 l 256
 661 694 752 532 693 350 c 256
 630 154 448 6 240 0 c 256
EndSplineSet
EndChar

StartChar: dcroat
Encoding: 273 273 263
Width: 554
VWidth: 0
Flags: HMW
LayerCount: 2
Fore
SplineSet
420 580 m 257
 449 665 l 257
 758 665 l 257
 728 580 l 257
 420 580 l 257
599 779 m 257
 709 780 l 257
 440 0 l 257
 335 0 l 257
 599 779 l 257
53 230 m 256
 91 351 208 471 342 470 c 256
 474 469 485 329 453 230 c 256
 417 116 323 -8 193 -9 c 256
 60 -10 18 120 53 230 c 256
163 230 m 256
 140 167 156 87 236 86 c 256
 315 85 388 161 414 230 c 256
 435 289 424 370 348 374 c 256
 266 378 189 301 163 230 c 256
EndSplineSet
EndChar

StartChar: Emacron
Encoding: 274 274 264
Width: 537
VWidth: 0
Flags: HMW
LayerCount: 2
Fore
SplineSet
88 0 m 257
 123 105 l 257
 460 105 l 257
 424 0 l 257
 88 0 l 257
292 596 m 257
 327 700 l 257
 663 700 l 257
 627 595 l 257
 292 596 l 257
198 324 m 257
 234 426 l 257
 551 426 l 257
 515 323 l 257
 198 324 l 257
255 699 m 257
 371 700 l 257
 130 0 l 257
 18 0 l 257
 255 699 l 257
314 773 m 257
 347 871 l 257
 689 871 l 257
 655 773 l 257
 314 773 l 257
EndSplineSet
EndChar

StartChar: emacron
Encoding: 275 275 265
Width: 507
VWidth: 0
Flags: HMW
LayerCount: 2
Fore
SplineSet
109 206 m 257
 133 279 l 257
 402 280 l 257
 410 332 405 383 341 386 c 256
 263 389 204 321 173 257 c 258
 161 230 l 257
 138 167 142 85 225 81 c 256
 283 78 332 116 374 151 c 257
 457 112 l 257
 388 43 304 -10 204 -9 c 256
 69 -7 19 112 54 230 c 256
 59 247 65 263 73 279 c 256
 125 385 235 470 357 469 c 256
 495 468 536 353 503 235 c 256
 500 225 498 216 494 206 c 257
 109 206 l 257
215 531 m 257
 249 629 l 257
 591 629 l 257
 557 530 l 257
 215 531 l 257
EndSplineSet
EndChar

StartChar: Ebreve
Encoding: 276 276 266
Width: 537
VWidth: 0
Flags: HMW
LayerCount: 2
Fore
SplineSet
88 0 m 257
 123 105 l 257
 460 105 l 257
 424 0 l 257
 88 0 l 257
292 596 m 257
 327 700 l 257
 663 700 l 257
 627 595 l 257
 292 596 l 257
198 324 m 257
 234 426 l 257
 551 426 l 257
 515 323 l 257
 198 324 l 257
255 699 m 257
 371 700 l 257
 130 0 l 257
 18 0 l 257
 255 699 l 257
378 915 m 257
 456 914 l 257
 454 879 459 850 501 848 c 256
 546 846 577 881 601 914 c 257
 684 913 l 257
 647 835 581 774 490 774 c 256
 401 774 367 835 378 915 c 257
EndSplineSet
EndChar

StartChar: ebreve
Encoding: 277 277 267
Width: 507
VWidth: 0
Flags: HMW
LayerCount: 2
Fore
SplineSet
109 206 m 257
 133 279 l 257
 402 280 l 257
 410 332 405 383 341 386 c 256
 263 389 204 321 173 257 c 258
 161 230 l 257
 138 167 142 85 225 81 c 256
 283 78 332 116 374 151 c 257
 457 112 l 257
 388 43 304 -10 204 -9 c 256
 69 -7 19 112 54 230 c 256
 59 247 65 263 73 279 c 256
 125 385 235 470 357 469 c 256
 495 468 536 353 503 235 c 256
 500 225 498 216 494 206 c 257
 109 206 l 257
281 673 m 257
 358 672 l 257
 356 637 361 607 403 605 c 256
 448 603 479 639 503 672 c 257
 586 671 l 257
 549 594 483 531 392 531 c 256
 303 531 270 593 281 673 c 257
EndSplineSet
EndChar

StartChar: Edotaccent
Encoding: 278 278 268
Width: 537
VWidth: 0
Flags: HMW
LayerCount: 2
Fore
SplineSet
88 0 m 257
 123 105 l 257
 460 105 l 257
 424 0 l 257
 88 0 l 257
292 596 m 257
 327 700 l 257
 663 700 l 257
 627 595 l 257
 292 596 l 257
198 324 m 257
 234 426 l 257
 551 426 l 257
 515 323 l 257
 198 324 l 257
255 699 m 257
 371 700 l 257
 130 0 l 257
 18 0 l 257
 255 699 l 257
440 841 m 256
 448 873 491 906 524 904 c 256
 558 902 580 871 572 837 c 256
 564 805 520 772 487 774 c 256
 453 776 432 807 440 841 c 256
EndSplineSet
EndChar

StartChar: edotaccent
Encoding: 279 279 269
Width: 507
VWidth: 0
Flags: HMW
LayerCount: 2
Fore
SplineSet
109 206 m 257
 133 279 l 257
 402 280 l 257
 410 332 405 383 341 386 c 256
 263 389 204 321 173 257 c 258
 161 230 l 257
 138 167 142 85 225 81 c 256
 283 78 332 116 374 151 c 257
 457 112 l 257
 388 43 304 -10 204 -9 c 256
 69 -7 19 112 54 230 c 256
 59 247 65 263 73 279 c 256
 125 385 235 470 357 469 c 256
 495 468 536 353 503 235 c 256
 500 225 498 216 494 206 c 257
 109 206 l 257
342 599 m 256
 350 631 393 664 426 662 c 256
 460 660 482 628 474 594 c 256
 466 562 422 529 389 531 c 256
 355 533 334 565 342 599 c 256
EndSplineSet
EndChar

StartChar: Eogonek
Encoding: 280 280 270
Width: 537
VWidth: 0
Flags: HMW
LayerCount: 2
Fore
SplineSet
88 0 m 257
 123 105 l 257
 460 105 l 257
 424 0 l 257
 88 0 l 257
292 596 m 257
 327 700 l 257
 663 700 l 257
 627 595 l 257
 292 596 l 257
198 324 m 257
 234 426 l 257
 551 426 l 257
 515 323 l 257
 198 324 l 257
255 699 m 257
 371 700 l 257
 130 0 l 257
 18 0 l 257
 255 699 l 257
259 -122 m 257
 273 -183 l 257
 243 -203 212 -219 176 -219 c 256
 117 -220 73 -180 90 -119 c 256
 111 -45 199 -6 262 24 c 257
 300 0 l 257
 261 -24 196 -49 182 -98 c 256
 177 -117 181 -137 203 -141 c 256
 221 -144 244 -130 259 -122 c 257
EndSplineSet
EndChar

StartChar: eogonek
Encoding: 281 281 271
Width: 507
VWidth: 0
Flags: HMW
LayerCount: 2
Fore
SplineSet
109 206 m 257
 133 279 l 257
 402 280 l 257
 410 332 405 383 341 386 c 256
 263 389 204 321 173 257 c 258
 161 230 l 257
 138 167 142 85 225 81 c 256
 283 78 332 116 374 151 c 257
 457 112 l 257
 388 43 304 -10 204 -9 c 256
 69 -7 19 112 54 230 c 256
 59 247 65 263 73 279 c 256
 125 385 235 470 357 469 c 256
 495 468 536 353 503 235 c 256
 500 225 498 216 494 206 c 257
 109 206 l 257
195 -119 m 257
 209 -180 l 257
 179 -200 149 -216 113 -216 c 256
 54 -217 10 -177 27 -116 c 256
 48 -42 136 -3 199 27 c 257
 236 -2 l 257
 196 -21 132 -47 118 -95 c 256
 113 -114 117 -134 139 -138 c 256
 157 -141 180 -127 195 -119 c 257
EndSplineSet
EndChar

StartChar: Ecaron
Encoding: 282 282 272
Width: 537
VWidth: 0
Flags: HMW
LayerCount: 2
Fore
SplineSet
88 0 m 257
 123 105 l 257
 460 105 l 257
 424 0 l 257
 88 0 l 257
292 596 m 257
 327 700 l 257
 663 700 l 257
 627 595 l 257
 292 596 l 257
198 324 m 257
 234 426 l 257
 551 426 l 257
 515 323 l 257
 198 324 l 257
255 699 m 257
 371 700 l 257
 130 0 l 257
 18 0 l 257
 255 699 l 257
512 876 m 257
 640 965 l 257
 697 909 l 257
 489 773 l 257
 365 916 l 257
 447 965 l 257
 512 876 l 257
EndSplineSet
EndChar

StartChar: ecaron
Encoding: 283 283 273
Width: 507
VWidth: 0
Flags: HMW
LayerCount: 2
Fore
SplineSet
109 206 m 257
 133 279 l 257
 402 280 l 257
 410 332 405 383 341 386 c 256
 263 389 204 321 173 257 c 258
 161 230 l 257
 138 167 142 85 225 81 c 256
 283 78 332 116 374 151 c 257
 457 112 l 257
 388 43 304 -10 204 -9 c 256
 69 -7 19 112 54 230 c 256
 59 247 65 263 73 279 c 256
 125 385 235 470 357 469 c 256
 495 468 536 353 503 235 c 256
 500 225 498 216 494 206 c 257
 109 206 l 257
414 634 m 257
 542 723 l 257
 599 666 l 257
 391 530 l 257
 267 674 l 257
 349 723 l 257
 414 634 l 257
EndSplineSet
EndChar

StartChar: Gcircumflex
Encoding: 284 284 274
Width: 744
VWidth: 0
Flags: HMW
LayerCount: 2
Fore
SplineSet
420 266 m 257
 457 367 l 257
 774 366 l 257
 710 173 548 -15 329 -15 c 256
 125 -15 40 172 98 350 c 256
 161 546 353 713 564 713 c 256
 677 713 760 656 804 554 c 257
 693 493 l 257
 669 563 617 601 541 601 c 256
 397 602 268 480 221 350 c 256
 180 236 212 99 354 97 c 256
 471 96 561 178 626 266 c 257
 420 266 l 257
629 862 m 257
 501 773 l 257
 444 830 l 257
 653 966 l 257
 776 822 l 257
 694 773 l 257
 629 862 l 257
EndSplineSet
EndChar

StartChar: gcircumflex
Encoding: 285 285 275
Width: 551
VWidth: 0
Flags: HMW
LayerCount: 2
Fore
SplineSet
-27 -31 m 257
 75 -32 l 257
 69 -92 87 -137 155 -138 c 256
 241 -140 307 -63 336 10 c 257
 492 460 l 257
 597 460 l 257
 443 10 l 258
 396 -120 285 -232 140 -233 c 256
 14 -234 -46 -151 -27 -31 c 257
54 233 m 256
 92 354 209 471 342 470 c 256
 473 469 486 332 454 232 c 256
 419 119 323 -3 194 -4 c 256
 61 -5 19 123 54 233 c 256
164 232 m 256
 141 168 159 92 238 91 c 256
 316 90 390 164 415 233 c 256
 436 293 423 370 348 374 c 256
 267 378 190 303 164 232 c 256
434 620 m 257
 305 531 l 257
 248 587 l 257
 457 723 l 257
 581 580 l 257
 498 530 l 257
 434 620 l 257
EndSplineSet
EndChar

StartChar: Gbreve
Encoding: 286 286 276
Width: 744
VWidth: 0
Flags: HMW
LayerCount: 2
Fore
SplineSet
420 266 m 257
 457 367 l 257
 774 366 l 257
 710 173 548 -15 329 -15 c 256
 125 -15 40 172 98 350 c 256
 161 546 353 713 564 713 c 256
 677 713 760 656 804 554 c 257
 693 493 l 257
 669 563 617 601 541 601 c 256
 397 602 268 480 221 350 c 256
 180 236 212 99 354 97 c 256
 471 96 561 178 626 266 c 257
 420 266 l 257
487 915 m 257
 565 914 l 257
 563 879 568 850 610 848 c 256
 655 846 686 881 710 914 c 257
 793 913 l 257
 756 835 690 774 599 774 c 256
 510 774 476 835 487 915 c 257
EndSplineSet
EndChar

StartChar: gbreve
Encoding: 287 287 277
Width: 551
VWidth: 0
Flags: HMW
LayerCount: 2
Fore
SplineSet
-27 -31 m 257
 75 -32 l 257
 69 -92 87 -137 155 -138 c 256
 241 -140 307 -63 336 10 c 257
 492 460 l 257
 597 460 l 257
 443 10 l 258
 396 -120 285 -232 140 -233 c 256
 14 -234 -46 -151 -27 -31 c 257
54 233 m 256
 92 354 209 471 342 470 c 256
 473 469 486 332 454 232 c 256
 419 119 323 -3 194 -4 c 256
 61 -5 19 123 54 233 c 256
164 232 m 256
 141 168 159 92 238 91 c 256
 316 90 390 164 415 233 c 256
 436 293 423 370 348 374 c 256
 267 378 190 303 164 232 c 256
292 673 m 257
 369 672 l 257
 367 637 373 607 415 605 c 256
 460 603 490 639 514 672 c 257
 597 671 l 257
 560 594 494 531 403 531 c 256
 314 531 281 593 292 673 c 257
EndSplineSet
EndChar

StartChar: Gdotaccent
Encoding: 288 288 278
Width: 744
VWidth: 0
Flags: HMW
LayerCount: 2
Fore
SplineSet
420 266 m 257
 457 367 l 257
 774 366 l 257
 710 173 548 -15 329 -15 c 256
 125 -15 40 172 98 350 c 256
 161 546 353 713 564 713 c 256
 677 713 760 656 804 554 c 257
 693 493 l 257
 669 563 617 601 541 601 c 256
 397 602 268 480 221 350 c 256
 180 236 212 99 354 97 c 256
 471 96 561 178 626 266 c 257
 420 266 l 257
549 841 m 256
 557 873 600 906 633 904 c 256
 667 902 689 871 681 837 c 256
 673 805 630 772 597 774 c 256
 563 776 541 807 549 841 c 256
EndSplineSet
EndChar

StartChar: gdotaccent
Encoding: 289 289 279
Width: 551
VWidth: 0
Flags: HMW
LayerCount: 2
Fore
SplineSet
-27 -31 m 257
 75 -32 l 257
 69 -92 87 -137 155 -138 c 256
 241 -140 307 -63 336 10 c 257
 492 460 l 257
 597 460 l 257
 443 10 l 258
 396 -120 285 -232 140 -233 c 256
 14 -234 -46 -151 -27 -31 c 257
54 233 m 256
 92 354 209 471 342 470 c 256
 473 469 486 332 454 232 c 256
 419 119 323 -3 194 -4 c 256
 61 -5 19 123 54 233 c 256
164 232 m 256
 141 168 159 92 238 91 c 256
 316 90 390 164 415 233 c 256
 436 293 423 370 348 374 c 256
 267 378 190 303 164 232 c 256
370 628 m 256
 378 660 421 693 454 691 c 256
 488 689 509 658 501 624 c 256
 493 592 450 559 417 561 c 256
 383 563 362 594 370 628 c 256
EndSplineSet
EndChar

StartChar: uni0122
Encoding: 290 290 280
Width: 744
VWidth: 0
Flags: HMW
LayerCount: 2
Fore
SplineSet
420 266 m 257
 457 367 l 257
 774 366 l 257
 710 173 548 -15 329 -15 c 256
 125 -15 40 172 98 350 c 256
 161 546 353 713 564 713 c 256
 677 713 760 656 804 554 c 257
 693 493 l 257
 669 563 617 601 541 601 c 256
 397 602 268 480 221 350 c 256
 180 236 212 99 354 97 c 256
 471 96 561 178 626 266 c 257
 420 266 l 257
273 -77 m 257
 375 -110 l 257
 180 -354 l 257
 103 -332 l 257
 273 -77 l 257
EndSplineSet
EndChar

StartChar: Hcircumflex
Encoding: 292 292 281
Width: 700
VWidth: 0
Flags: HMW
LayerCount: 2
Fore
SplineSet
172 321 m 257
 209 430 l 257
 684 430 l 257
 646 320 l 257
 172 321 l 257
697 699 m 257
 817 700 l 257
 574 0 l 257
 460 0 l 257
 697 699 l 257
255 699 m 257
 374 700 l 257
 132 0 l 257
 18 0 l 257
 255 699 l 257
597 862 m 257
 469 773 l 257
 412 830 l 257
 621 966 l 257
 745 822 l 257
 662 773 l 257
 597 862 l 257
EndSplineSet
EndChar

StartChar: hcircumflex
Encoding: 293 293 282
Width: 510
VWidth: 0
Flags: HMW
LayerCount: 2
Fore
SplineSet
383 780 m 257
 115 0 l 257
 8 0 l 257
 275 780 l 257
 383 780 l 257
385 280 m 257
 398 322 403 377 346 381 c 256
 284 385 239 329 211 282 c 257
 176 282 l 257
 215 373 288 471 398 472 c 256
 504 473 519 379 494 295 c 258
 393 0 l 257
 288 0 l 257
 385 280 l 257
427 930 m 257
 299 841 l 257
 242 897 l 257
 451 1033 l 257
 575 890 l 257
 492 840 l 257
 427 930 l 257
EndSplineSet
EndChar

StartChar: Itilde
Encoding: 296 296 283
Width: 259
VWidth: 0
Flags: HMW
LayerCount: 2
Fore
SplineSet
255 699 m 257
 375 700 l 257
 134 0 l 257
 18 0 l 257
 255 699 l 257
187 825 m 257
 217 864 261 911 316 908 c 256
 357 906 380 858 421 861 c 256
 451 863 475 891 496 909 c 257
 537 850 l 257
 504 816 457 773 405 777 c 256
 365 780 342 828 301 824 c 256
 271 821 251 796 234 775 c 257
 187 825 l 257
EndSplineSet
EndChar

StartChar: itilde
Encoding: 297 297 284
Width: 250
VWidth: 0
Flags: HMW
LayerCount: 2
Fore
SplineSet
174 459 m 257
 282 460 l 257
 122 0 l 257
 20 0 l 257
 174 459 l 257
100 582 m 257
 130 621 173 668 228 665 c 256
 269 663 292 616 333 619 c 256
 363 621 388 649 409 667 c 257
 449 608 l 257
 416 574 368 530 316 534 c 256
 276 537 254 586 213 582 c 256
 183 579 164 554 147 533 c 257
 100 582 l 257
EndSplineSet
EndChar

StartChar: Imacron
Encoding: 298 298 285
Width: 259
VWidth: 0
Flags: HMW
LayerCount: 2
Fore
SplineSet
255 699 m 257
 375 700 l 257
 134 0 l 257
 18 0 l 257
 255 699 l 257
170 773 m 257
 203 871 l 257
 546 871 l 257
 512 773 l 257
 170 773 l 257
EndSplineSet
EndChar

StartChar: imacron
Encoding: 299 299 286
Width: 250
VWidth: 0
Flags: HMW
LayerCount: 2
Fore
SplineSet
174 459 m 257
 282 460 l 257
 122 0 l 257
 20 0 l 257
 174 459 l 257
83 531 m 257
 116 629 l 257
 458 629 l 257
 424 530 l 257
 83 531 l 257
EndSplineSet
EndChar

StartChar: Ibreve
Encoding: 300 300 287
Width: 259
VWidth: 0
Flags: HMW
LayerCount: 2
Fore
SplineSet
255 699 m 257
 375 700 l 257
 134 0 l 257
 18 0 l 257
 255 699 l 257
235 915 m 257
 312 914 l 257
 310 879 316 850 358 848 c 256
 403 846 434 881 458 914 c 257
 540 913 l 257
 503 836 438 774 347 774 c 256
 258 774 224 835 235 915 c 257
EndSplineSet
EndChar

StartChar: ibreve
Encoding: 301 301 288
Width: 250
VWidth: 0
Flags: HMW
LayerCount: 2
Fore
SplineSet
174 459 m 257
 282 460 l 257
 122 0 l 257
 20 0 l 257
 174 459 l 257
147 673 m 257
 224 672 l 257
 222 637 228 607 270 605 c 256
 315 603 346 639 370 672 c 257
 452 671 l 257
 415 594 350 531 259 531 c 256
 170 531 136 593 147 673 c 257
EndSplineSet
EndChar

StartChar: Iogonek
Encoding: 302 302 289
Width: 259
VWidth: 0
Flags: HMW
LayerCount: 2
Fore
SplineSet
255 699 m 257
 375 700 l 257
 134 0 l 257
 18 0 l 257
 255 699 l 257
83 -121 m 257
 98 -182 l 257
 68 -202 37 -218 1 -218 c 256
 -58 -219 -102 -179 -85 -118 c 256
 -64 -44 24 -5 87 25 c 257
 125 -1 l 257
 85 -23 21 -48 7 -97 c 256
 2 -116 6 -136 28 -140 c 256
 46 -143 68 -129 83 -121 c 257
EndSplineSet
EndChar

StartChar: iogonek
Encoding: 303 303 290
Width: 250
VWidth: 0
Flags: HMW
LayerCount: 2
Fore
SplineSet
225 645 m 256
 233 677 276 710 309 708 c 256
 343 706 365 674 357 640 c 256
 349 608 305 576 272 578 c 256
 238 580 217 611 225 645 c 256
174 459 m 257
 282 460 l 257
 122 0 l 257
 20 0 l 257
 174 459 l 257
73 -122 m 257
 88 -183 l 257
 58 -203 27 -219 -9 -219 c 256
 -68 -220 -113 -180 -96 -119 c 256
 -75 -45 14 -6 77 24 c 257
 114 0 l 257
 75 -24 10 -49 -4 -98 c 256
 -9 -117 -5 -137 17 -141 c 256
 35 -144 58 -130 73 -122 c 257
EndSplineSet
EndChar

StartChar: Idotaccent
Encoding: 304 304 291
Width: 259
VWidth: 0
Flags: HMW
LayerCount: 2
Fore
SplineSet
255 699 m 257
 375 700 l 257
 134 0 l 257
 18 0 l 257
 255 699 l 257
295 841 m 256
 303 873 348 906 381 904 c 256
 415 902 436 871 428 837 c 256
 420 805 376 772 343 774 c 256
 309 776 287 807 295 841 c 256
EndSplineSet
EndChar

StartChar: uni0136
Encoding: 310 310 292
Width: 583
VWidth: 0
Flags: HMW
LayerCount: 2
Fore
SplineSet
255 699 m 257
 376 700 l 257
 135 0 l 257
 18 0 l 257
 255 699 l 257
611 699 m 257
 760 699 l 257
 362 367 l 257
 525 0 l 257
 393 0 l 257
 227 375 l 257
 611 699 l 257
228 -62 m 257
 330 -95 l 257
 134 -339 l 257
 58 -316 l 257
 228 -62 l 257
EndSplineSet
EndChar

StartChar: uni0137
Encoding: 311 311 293
Width: 466
VWidth: 0
Flags: HMW
LayerCount: 2
Fore
SplineSet
270 779 m 257
 378 780 l 257
 109 0 l 257
 6 0 l 257
 270 779 l 257
417 459 m 257
 557 459 l 257
 296 265 l 257
 408 0 l 257
 290 0 l 257
 172 276 l 257
 417 459 l 257
164 -62 m 257
 266 -95 l 257
 70 -339 l 257
 -6 -316 l 257
 164 -62 l 257
EndSplineSet
EndChar

StartChar: Lacute
Encoding: 313 313 294
Width: 453
VWidth: 0
Flags: HMW
LayerCount: 2
Fore
SplineSet
256 700 m 257
 374 700 l 257
 170 107 l 257
 432 107 l 257
 394 0 l 257
 16 0 l 257
 256 700 l 257
657 917 m 257
 440 774 l 257
 386 812 l 257
 579 967 l 257
 657 917 l 257
EndSplineSet
EndChar

StartChar: lacute
Encoding: 314 314 295
Width: 231
VWidth: 0
Flags: HMW
LayerCount: 2
Fore
SplineSet
274 779 m 257
 383 780 l 257
 114 0 l 257
 10 0 l 257
 274 779 l 257
537 984 m 257
 320 842 l 257
 266 879 l 257
 458 1034 l 257
 537 984 l 257
EndSplineSet
EndChar

StartChar: uni013B
Encoding: 315 315 296
Width: 453
VWidth: 0
Flags: HMW
LayerCount: 2
Fore
SplineSet
256 700 m 257
 374 700 l 257
 170 107 l 257
 432 107 l 257
 394 0 l 257
 16 0 l 257
 256 700 l 257
171 -62 m 257
 272 -95 l 257
 77 -339 l 257
 0 -316 l 257
 171 -62 l 257
EndSplineSet
EndChar

StartChar: uni013C
Encoding: 316 316 297
Width: 231
VWidth: 0
Flags: HMW
LayerCount: 2
Fore
SplineSet
274 779 m 257
 383 780 l 257
 114 0 l 257
 10 0 l 257
 274 779 l 257
26 -62 m 257
 128 -95 l 257
 -67 -339 l 257
 -143 -316 l 257
 26 -62 l 257
EndSplineSet
EndChar

StartChar: Lcaron
Encoding: 317 317 298
Width: 453
VWidth: 0
Flags: HMW
LayerCount: 2
Fore
SplineSet
256 700 m 257
 374 700 l 257
 170 107 l 257
 432 107 l 257
 394 0 l 257
 16 0 l 257
 256 700 l 257
526 711 m 257
 627 678 l 257
 433 434 l 257
 357 456 l 257
 526 711 l 257
EndSplineSet
EndChar

StartChar: lcaron
Encoding: 318 318 299
Width: 231
VWidth: 0
Flags: HMW
LayerCount: 2
Fore
SplineSet
274 779 m 257
 383 780 l 257
 114 0 l 257
 10 0 l 257
 274 779 l 257
505 778 m 257
 607 745 l 257
 412 501 l 257
 335 524 l 257
 505 778 l 257
EndSplineSet
EndChar

StartChar: Ldot
Encoding: 319 319 300
Width: 453
VWidth: 0
Flags: HMW
LayerCount: 2
Fore
SplineSet
256 700 m 257
 374 700 l 257
 170 107 l 257
 432 107 l 257
 394 0 l 257
 16 0 l 257
 256 700 l 257
355 424 m 256
 364 457 408 493 443 491 c 256
 480 489 501 455 492 420 c 256
 483 387 439 350 404 352 c 256
 367 354 346 389 355 424 c 256
EndSplineSet
EndChar

StartChar: ldot
Encoding: 320 320 301
Width: 389
VWidth: 0
Flags: HMW
LayerCount: 2
Fore
SplineSet
274 779 m 257
 383 780 l 257
 114 0 l 257
 10 0 l 257
 274 779 l 257
302 414 m 256
 311 447 356 484 391 482 c 256
 428 480 448 445 439 410 c 256
 430 377 386 341 351 343 c 256
 314 345 293 379 302 414 c 256
EndSplineSet
EndChar

StartChar: eth
Encoding: 240 240 302
Width: 577
VWidth: 0
Flags: HMW
LayerCount: 2
Fore
SplineSet
447 237 m 256
 471 302 452 381 372 382 c 256
 289 384 211 310 184 236 c 256
 160 171 181 94 260 93 c 256
 342 92 420 163 447 237 c 256
448 699 m 257
 556 402 l 258
 575 348 577 291 560 236 c 256
 517 100 384 -12 238 -12 c 256
 97 -12 31 110 71 238 c 256
 107 352 217 461 342 463 c 256
 384 464 413 448 441 418 c 257
 428 424 l 257
 312 699 l 257
 448 699 l 257
262 521 m 257
 284 589 l 257
 623 589 l 257
 601 521 l 257
 262 521 l 257
EndSplineSet
EndChar

StartChar: racute
Encoding: 341 341 303
Width: 349
VWidth: 0
Flags: HMW
LayerCount: 2
Fore
SplineSet
272 460 m 257
 113 0 l 257
 7 0 l 257
 166 460 l 257
 272 460 l 257
364 344 m 257
 350 356 336 367 316 368 c 256
 257 370 224 304 202 259 c 257
 172 282 l 257
 205 360 268 470 366 470 c 256
 399 470 419 454 441 433 c 257
 364 344 l 257
518 675 m 257
 302 532 l 257
 249 570 l 257
 441 724 l 257
 518 675 l 257
EndSplineSet
EndChar

StartChar: rcaron
Encoding: 345 345 304
Width: 349
VWidth: 0
Flags: HMW
LayerCount: 2
Fore
SplineSet
272 460 m 257
 113 0 l 257
 7 0 l 257
 166 460 l 257
 272 460 l 257
364 344 m 257
 350 356 336 367 316 368 c 256
 257 370 224 304 202 259 c 257
 172 282 l 257
 205 360 268 470 366 470 c 256
 399 470 419 454 441 433 c 257
 364 344 l 257
360 634 m 257
 488 723 l 257
 545 666 l 257
 336 531 l 257
 213 674 l 257
 296 723 l 257
 360 634 l 257
EndSplineSet
EndChar

StartChar: Rcaron
Encoding: 344 344 305
Width: 560
VWidth: 0
Flags: HMW
LayerCount: 2
Fore
SplineSet
270 333 m 257
 388 333 l 257
 497 0 l 257
 368 0 l 257
 270 333 l 257
255 699 m 257
 374 700 l 257
 132 0 l 257
 18 0 l 257
 255 699 l 257
287 597 m 257
 324 700 l 257
 455 700 l 256
 580 695 667 610 627 481 c 256
 586 348 454 269 320 264 c 256
 173 264 l 257
 208 363 l 257
 335 363 l 257
 408 367 482 409 508 480 c 256
 532 546 495 590 428 595 c 257
 287 597 l 257
501 876 m 257
 629 965 l 257
 686 909 l 257
 477 773 l 257
 353 916 l 257
 437 965 l 257
 501 876 l 257
EndSplineSet
EndChar

StartChar: uni0213
Encoding: 531 531 306
Width: 349
VWidth: 0
Flags: HMW
LayerCount: 2
Fore
SplineSet
272 460 m 257
 113 0 l 257
 7 0 l 257
 166 460 l 257
 272 460 l 257
364 344 m 257
 350 356 336 367 316 368 c 256
 257 370 224 304 202 259 c 257
 172 282 l 257
 205 360 268 470 366 470 c 256
 399 470 419 454 441 433 c 257
 364 344 l 257
179 530 m 257
 260 531 l 257
 283 565 312 599 357 598 c 256
 401 597 410 568 410 530 c 257
 479 531 l 257
 497 607 476 670 388 672 c 256
 293 674 223 607 179 530 c 257
EndSplineSet
EndChar

StartChar: uni0212
Encoding: 530 530 307
Width: 560
VWidth: 0
Flags: HMW
LayerCount: 2
Fore
SplineSet
270 333 m 257
 388 333 l 257
 497 0 l 257
 368 0 l 257
 270 333 l 257
255 699 m 257
 374 700 l 257
 132 0 l 257
 18 0 l 257
 255 699 l 257
287 597 m 257
 324 700 l 257
 455 700 l 256
 580 695 667 610 627 481 c 256
 586 348 454 269 320 264 c 256
 173 264 l 257
 208 363 l 257
 335 363 l 257
 408 367 482 409 508 480 c 256
 532 546 495 590 428 595 c 257
 287 597 l 257
335 772 m 257
 416 773 l 257
 439 807 469 841 514 840 c 256
 558 839 567 810 567 772 c 257
 636 773 l 257
 654 849 632 912 544 914 c 256
 449 916 379 849 335 772 c 257
EndSplineSet
EndChar

StartChar: OE
Encoding: 338 338 308
Width: 926
VWidth: 0
Flags: HMW
LayerCount: 2
Fore
SplineSet
584 324 m 257
 620 426 l 257
 950 426 l 257
 915 323 l 257
 584 324 l 257
644 669 m 257
 761 670 l 257
 539 30 l 257
 427 31 l 257
 644 669 l 257
856 104 m 257
 822 0 l 257
 321 0 l 256
 126 7 42 174 98 350 c 256
 159 542 339 694 543 700 c 256
 1062 700 l 257
 1024 595 l 257
 691 595 l 257
 674 591 l 257
 535 591 l 257
 390 586 266 485 217 350 c 256
 173 229 216 115 355 109 c 256
 491 109 l 257
 512 105 l 257
 856 104 l 257
EndSplineSet
EndChar

StartChar: oe
Encoding: 339 339 309
Width: 846
VWidth: 0
Flags: HMW
LayerCount: 2
Fore
SplineSet
736 250 m 258
 754 306 758 382 682 386 c 256
 605 390 544 323 514 260 c 258
 501 230 l 257
 478 167 479 83 564 79 c 256
 622 76 672 117 714 152 c 257
 796 112 l 257
 733 49 651 -10 557 -9 c 256
 425 -7 395 123 427 230 c 256
 432 247 438 263 446 279 c 256
 495 380 599 471 717 469 c 256
 847 467 871 337 842 234 c 256
 839 224 836 216 832 206 c 257
 730 231 l 257
 736 250 l 258
469 206 m 257
 492 279 l 257
 836 279 l 257
 831 205 l 257
 469 206 l 257
55 230 m 256
 93 352 211 470 346 469 c 256
 481 468 498 335 465 230 c 256
 428 113 331 -8 198 -9 c 256
 64 -10 20 117 55 230 c 256
161 230 m 256
 138 167 153 88 233 87 c 256
 311 86 377 162 402 230 c 256
 423 286 421 370 344 373 c 256
 262 377 187 301 161 230 c 256
EndSplineSet
EndChar

StartChar: a.alt
Encoding: 65536 -1 310
Width: 554
VWidth: 0
Flags: HMW
LayerCount: 2
Fore
SplineSet
494 459 m 257
 600 460 l 257
 441 0 l 257
 339 0 l 257
 494 459 l 257
53 230 m 256
 91 351 208 471 342 470 c 256
 474 469 484 329 452 230 c 256
 416 116 323 -8 193 -9 c 256
 60 -10 18 120 53 230 c 256
163 230 m 256
 140 167 156 87 236 86 c 256
 315 85 387 161 413 230 c 256
 434 289 424 370 348 374 c 256
 266 378 189 301 163 230 c 256
EndSplineSet
EndChar

StartChar: Jcircumflex
Encoding: 308 308 312
Width: 260
VWidth: 0
Flags: HMW
LayerCount: 2
Fore
SplineSet
-155 -88 m 257
 -138 -107 -121 -124 -93 -122 c 256
 -47 -119 -13 -74 4 -35 c 257
 256 700 l 257
 376 700 l 257
 118 -58 l 257
 81 -156 -5 -228 -112 -227 c 256
 -164 -226 -203 -206 -241 -173 c 257
 -155 -88 l 257
377 862 m 257
 249 773 l 257
 192 830 l 257
 400 966 l 257
 524 822 l 257
 442 773 l 257
 377 862 l 257
EndSplineSet
EndChar

StartChar: jcircumflex
Encoding: 309 309 313
Width: 243
VWidth: 0
Flags: HMW
LayerCount: 2
Fore
SplineSet
-116 -100 m 257
 -107 -112 -97 -125 -80 -125 c 256
 -40 -125 -17 -74 -4 -43 c 257
 169 460 l 257
 275 460 l 257
 96 -66 l 258
 65 -148 0 -230 -97 -227 c 256
 -136 -226 -162 -207 -188 -180 c 257
 -116 -100 l 257
282 620 m 257
 154 531 l 257
 97 587 l 257
 305 723 l 257
 429 580 l 257
 347 530 l 257
 282 620 l 257
EndSplineSet
EndChar

StartChar: Nacute
Encoding: 323 323 314
Width: 736
VWidth: 0
Flags: HMW
LayerCount: 2
Fore
SplineSet
737 700 m 257
 851 700 l 257
 600 -32 l 257
 292 469 l 257
 131 0 l 257
 15 0 l 257
 267 732 l 257
 575 231 l 257
 737 700 l 257
779 902 m 257
 563 759 l 257
 509 797 l 257
 701 952 l 257
 779 902 l 257
EndSplineSet
EndChar

StartChar: nacute
Encoding: 324 324 315
Width: 512
VWidth: 0
Flags: HMW
LayerCount: 2
Fore
SplineSet
273 460 m 257
 115 0 l 257
 7 0 l 257
 166 460 l 257
 273 460 l 257
385 280 m 257
 398 322 404 377 346 381 c 256
 284 385 239 329 211 282 c 257
 183 279 l 257
 220 370 288 469 397 470 c 256
 503 471 521 378 496 293 c 257
 396 0 l 257
 288 0 l 257
 385 280 l 257
577 675 m 257
 361 531 l 257
 308 570 l 257
 500 724 l 257
 577 675 l 257
EndSplineSet
EndChar

StartChar: uni0145
Encoding: 325 325 316
Width: 736
VWidth: 0
Flags: HMW
LayerCount: 2
Fore
SplineSet
288 -45 m 257
 390 -78 l 257
 194 -322 l 257
 118 -299 l 257
 288 -45 l 257
737 700 m 257
 851 700 l 257
 600 -32 l 257
 292 469 l 257
 131 0 l 257
 15 0 l 257
 267 732 l 257
 575 231 l 257
 737 700 l 257
EndSplineSet
EndChar

StartChar: uni0146
Encoding: 326 326 317
Width: 512
VWidth: 0
Flags: HMW
LayerCount: 2
Fore
SplineSet
273 460 m 257
 115 0 l 257
 7 0 l 257
 166 460 l 257
 273 460 l 257
385 280 m 257
 398 322 404 377 346 381 c 256
 284 385 239 329 211 282 c 257
 176 279 l 257
 215 370 287 469 397 470 c 256
 503 471 521 378 496 293 c 257
 396 0 l 257
 288 0 l 257
 385 280 l 257
167 -62 m 257
 268 -95 l 257
 74 -339 l 257
 -3 -316 l 257
 167 -62 l 257
EndSplineSet
EndChar

StartChar: Ncaron
Encoding: 327 327 318
Width: 736
VWidth: 0
Flags: HMW
LayerCount: 2
Fore
SplineSet
610 891 m 257
 738 979 l 257
 795 923 l 257
 586 787 l 257
 462 930 l 257
 545 980 l 257
 610 891 l 257
737 700 m 257
 851 700 l 257
 600 -32 l 257
 292 469 l 257
 131 0 l 257
 15 0 l 257
 267 732 l 257
 575 231 l 257
 737 700 l 257
EndSplineSet
EndChar

StartChar: ncaron
Encoding: 328 328 319
Width: 512
VWidth: 0
Flags: HMW
LayerCount: 2
Fore
SplineSet
273 460 m 257
 115 0 l 257
 7 0 l 257
 166 460 l 257
 273 460 l 257
385 280 m 257
 398 322 404 377 346 381 c 256
 284 385 239 329 211 282 c 257
 176 279 l 257
 215 370 287 469 397 470 c 256
 503 471 521 378 496 293 c 257
 396 0 l 257
 288 0 l 257
 385 280 l 257
412 634 m 257
 540 723 l 257
 597 666 l 257
 388 530 l 257
 265 674 l 257
 347 723 l 257
 412 634 l 257
EndSplineSet
EndChar

StartChar: Omacron
Encoding: 332 332 320
Width: 755
VWidth: 0
Flags: HMW
LayerCount: 2
Fore
SplineSet
222 350 m 256
 182 239 213 105 351 103 c 256
 493 101 618 224 664 350 c 256
 704 461 674 595 535 597 c 256
 393 599 268 476 222 350 c 256
98 350 m 256
 160 542 351 714 559 713 c 256
 761 712 844 527 788 350 c 256
 726 157 535 -16 326 -15 c 256
 123 -14 42 173 98 350 c 256
418 773 m 257
 451 871 l 257
 793 871 l 257
 759 773 l 257
 418 773 l 257
EndSplineSet
EndChar

StartChar: omacron
Encoding: 333 333 321
Width: 530
VWidth: 0
Flags: HMW
LayerCount: 2
Fore
SplineSet
53 230 m 256
 94 360 225 470 364 470 c 256
 498 470 564 352 526 230 c 256
 485 100 354 -9 215 -9 c 256
 81 -9 15 108 53 230 c 256
162 230 m 256
 139 167 155 89 234 87 c 256
 315 85 391 158 417 230 c 256
 440 293 424 371 345 373 c 256
 264 375 188 302 162 230 c 256
223 531 m 257
 256 629 l 257
 598 629 l 257
 564 530 l 257
 223 531 l 257
EndSplineSet
EndChar

StartChar: Obreve
Encoding: 334 334 322
Width: 755
VWidth: 0
Flags: HMW
LayerCount: 2
Fore
SplineSet
222 350 m 256
 182 239 213 105 351 103 c 256
 493 101 618 224 664 350 c 256
 704 461 674 595 535 597 c 256
 393 599 268 476 222 350 c 256
98 350 m 256
 160 542 351 714 559 713 c 256
 761 712 844 527 788 350 c 256
 726 157 535 -16 326 -15 c 256
 123 -14 42 173 98 350 c 256
483 915 m 257
 560 914 l 257
 558 879 564 850 606 848 c 256
 651 846 681 881 705 914 c 257
 788 913 l 257
 751 836 685 774 594 774 c 256
 505 774 472 835 483 915 c 257
EndSplineSet
EndChar

StartChar: obreve
Encoding: 335 335 323
Width: 530
VWidth: 0
Flags: HMW
LayerCount: 2
Fore
SplineSet
53 230 m 256
 94 360 225 470 364 470 c 256
 498 470 564 352 526 230 c 256
 485 100 354 -9 215 -9 c 256
 81 -9 15 108 53 230 c 256
162 230 m 256
 139 167 155 89 234 87 c 256
 315 85 391 158 417 230 c 256
 440 293 424 371 345 373 c 256
 264 375 188 302 162 230 c 256
287 673 m 257
 365 672 l 257
 363 637 368 607 410 605 c 256
 455 603 486 639 510 672 c 257
 593 671 l 257
 556 594 490 531 399 531 c 256
 310 531 276 593 287 673 c 257
EndSplineSet
EndChar

StartChar: Racute
Encoding: 340 340 324
Width: 560
VWidth: 0
Flags: HMW
LayerCount: 2
Fore
SplineSet
270 333 m 257
 388 333 l 257
 497 0 l 257
 368 0 l 257
 270 333 l 257
255 699 m 257
 374 700 l 257
 132 0 l 257
 18 0 l 257
 255 699 l 257
287 597 m 257
 324 700 l 257
 455 700 l 256
 580 695 667 610 627 481 c 256
 586 348 454 269 320 264 c 256
 173 264 l 257
 208 363 l 257
 335 363 l 257
 408 367 482 409 508 480 c 256
 532 546 495 590 428 595 c 257
 287 597 l 257
669 917 m 257
 452 774 l 257
 398 812 l 257
 590 967 l 257
 669 917 l 257
EndSplineSet
EndChar

StartChar: uni0156
Encoding: 342 342 325
Width: 560
VWidth: 0
Flags: HMW
LayerCount: 2
Fore
SplineSet
270 333 m 257
 388 333 l 257
 497 0 l 257
 368 0 l 257
 270 333 l 257
255 699 m 257
 374 700 l 257
 132 0 l 257
 18 0 l 257
 255 699 l 257
287 597 m 257
 324 700 l 257
 455 700 l 256
 580 695 667 610 627 481 c 256
 586 348 454 269 320 264 c 256
 173 264 l 257
 208 363 l 257
 335 363 l 257
 408 367 482 409 508 480 c 256
 532 546 495 590 428 595 c 257
 287 597 l 257
224 -62 m 257
 325 -95 l 257
 131 -339 l 257
 54 -316 l 257
 224 -62 l 257
EndSplineSet
EndChar

StartChar: uni0157
Encoding: 343 343 326
Width: 349
VWidth: 0
Flags: HMW
LayerCount: 2
Fore
SplineSet
272 460 m 257
 113 0 l 257
 7 0 l 257
 166 460 l 257
 272 460 l 257
364 344 m 257
 350 356 336 367 316 368 c 256
 257 370 224 304 202 259 c 257
 172 282 l 257
 205 360 268 470 366 470 c 256
 399 470 419 454 441 433 c 257
 364 344 l 257
26 -62 m 257
 128 -95 l 257
 -68 -339 l 257
 -144 -316 l 257
 26 -62 l 257
EndSplineSet
EndChar

StartChar: Scedilla
Encoding: 350 350 327
Width: 545
VWidth: 0
Flags: HMW
LayerCount: 2
Fore
SplineSet
144 236 m 257
 155 169 177 94 259 94 c 256
 318 93 376 133 397 188 c 256
 424 260 358 296 303 323 c 256
 219 363 164 428 194 526 c 256
 229 638 344 712 460 712 c 256
 559 712 616 651 636 559 c 257
 533 505 l 257
 519 556 495 604 434 605 c 256
 384 606 329 570 312 522 c 256
 288 455 371 426 417 403 c 256
 503 362 549 288 520 192 c 256
 483 70 359 -14 232 -14 c 256
 116 -14 56 73 40 179 c 257
 144 236 l 257
240 58 m 257
 324 56 l 257
 211 -58 l 257
 216 -57 221 -57 226 -57 c 256
 269 -63 292 -100 280 -142 c 256
 264 -199 198 -239 141 -240 c 256
 101 -241 72 -222 41 -199 c 257
 91 -151 l 257
 107 -163 123 -175 145 -175 c 256
 165 -175 206 -157 211 -135 c 256
 216 -114 193 -103 177 -102 c 256
 153 -100 125 -110 102 -117 c 257
 240 58 l 257
EndSplineSet
EndChar

StartChar: scedilla
Encoding: 351 351 328
Width: 399
VWidth: 0
Flags: HMW
LayerCount: 2
Fore
SplineSet
79 167 m 257
 98 127 124 77 177 78 c 256
 206 77 246 96 257 126 c 256
 272 169 225 190 194 205 c 256
 136 234 89 274 111 345 c 256
 135 423 221 470 299 470 c 256
 366 470 413 438 448 388 c 257
 374 326 l 257
 354 356 328 384 289 384 c 256
 263 385 222 371 212 343 c 256
 197 300 261 284 288 271 c 256
 345 244 385 196 366 130 c 256
 341 43 256 -12 168 -12 c 256
 84 -12 33 41 1 106 c 257
 79 167 l 257
173 60 m 257
 259 59 l 257
 145 -56 l 257
 149 -55 155 -55 159 -55 c 256
 203 -61 226 -97 215 -140 c 256
 200 -198 131 -237 74 -237 c 256
 34 -237 5 -220 -25 -197 c 257
 24 -149 l 257
 40 -161 56 -173 78 -173 c 256
 98 -173 139 -155 144 -133 c 256
 149 -112 125 -101 109 -100 c 256
 85 -98 59 -108 36 -115 c 257
 173 60 l 257
EndSplineSet
EndChar

StartChar: Zcaron
Encoding: 381 381 329
Width: 541
VWidth: 0
Flags: HMW
LayerCount: 2
Fore
SplineSet
186 590 m 257
 225 700 l 257
 716 699 l 257
 182 108 l 257
 486 107 l 257
 448 0 l 257
 -49 0 l 257
 484 589 l 257
 186 590 l 257
522 876 m 257
 650 965 l 257
 707 909 l 257
 499 773 l 257
 375 916 l 257
 457 965 l 257
 522 876 l 257
EndSplineSet
EndChar

StartChar: zcaron
Encoding: 382 382 330
Width: 454
VWidth: 0
Flags: HMW
LayerCount: 2
Fore
SplineSet
401 634 m 257
 529 722 l 257
 586 666 l 257
 377 530 l 257
 254 673 l 257
 336 723 l 257
 401 634 l 257
328 358 m 257
 113 359 l 257
 148 460 l 257
 552 459 l 257
 182 102 l 257
 403 101 l 257
 367 0 l 257
 -46 0 l 257
 328 358 l 257
EndSplineSet
EndChar

StartChar: Ydieresis
Encoding: 376 376 331
Width: 566
VWidth: 0
Flags: HMW
LayerCount: 2
Fore
SplineSet
341 845 m 256
 349 876 392 910 425 908 c 256
 459 906 481 875 473 841 c 256
 465 809 421 776 388 778 c 256
 353 780 333 812 341 845 c 256
561 845 m 256
 569 876 612 910 645 908 c 256
 679 906 702 875 694 841 c 256
 686 809 641 776 608 778 c 256
 573 780 553 812 561 845 c 256
616 699 m 257
 755 699 l 257
 387 289 l 257
 287 0 l 257
 169 0 l 257
 274 301 l 257
 189 700 l 257
 314 700 l 257
 363 406 l 257
 616 699 l 257
EndSplineSet
EndChar

StartChar: Scaron
Encoding: 352 352 332
Width: 545
VWidth: 0
Flags: HMW
LayerCount: 2
Fore
SplineSet
144 236 m 257
 155 169 177 94 259 94 c 256
 318 93 376 133 397 188 c 256
 424 260 358 296 303 323 c 256
 221 364 165 435 194 530 c 256
 228 641 347 713 460 712 c 256
 557 711 618 651 636 559 c 257
 532 504 l 257
 519 554 501 604 441 605 c 256
 390 606 330 571 312 522 c 256
 287 456 371 426 417 403 c 256
 503 362 548 288 519 192 c 256
 482 68 360 -15 232 -14 c 256
 116 -13 56 73 40 179 c 257
 144 236 l 257
517 876 m 257
 645 965 l 257
 702 909 l 257
 493 773 l 257
 370 916 l 257
 452 965 l 257
 517 876 l 257
EndSplineSet
EndChar

StartChar: scaron
Encoding: 353 353 333
Width: 399
VWidth: 0
Flags: HMW
LayerCount: 2
Fore
SplineSet
81 165 m 257
 94 120 118 79 174 79 c 256
 205 78 246 96 257 127 c 256
 272 169 215 191 185 207 c 256
 131 236 87 280 107 345 c 256
 131 424 222 468 299 469 c 256
 366 470 417 440 448 387 c 257
 374 325 l 257
 351 354 325 379 285 379 c 256
 259 379 216 365 208 337 c 256
 196 298 262 280 287 267 c 256
 341 240 383 193 366 129 c 256
 342 39 250 -14 161 -13 c 256
 77 -13 23 35 1 104 c 257
 81 165 l 257
353 628 m 257
 482 717 l 257
 539 661 l 257
 330 525 l 257
 206 668 l 257
 289 718 l 257
 353 628 l 257
EndSplineSet
EndChar

StartChar: Lslash
Encoding: 321 321 334
Width: 456
VWidth: 0
Flags: HMW
LayerCount: 2
Fore
SplineSet
65 328 m 257
 58 394 l 257
 415 591 l 257
 423 526 l 257
 65 328 l 257
256 700 m 257
 374 700 l 257
 170 107 l 257
 432 107 l 257
 394 0 l 257
 16 0 l 257
 256 700 l 257
EndSplineSet
EndChar

StartChar: lslash
Encoding: 322 322 335
Width: 231
VWidth: 0
Flags: HMW
LayerCount: 2
Fore
SplineSet
60 328 m 257
 53 394 l 257
 379 568 l 257
 387 503 l 257
 60 328 l 257
274 779 m 257
 383 780 l 257
 114 0 l 257
 10 0 l 257
 274 779 l 257
EndSplineSet
EndChar

StartChar: uni0218
Encoding: 536 536 336
Width: 545
VWidth: 0
Flags: HMW
LayerCount: 2
Fore
SplineSet
144 236 m 257
 155 169 177 94 259 94 c 256
 318 93 376 133 397 188 c 256
 424 260 358 296 303 323 c 256
 221 364 165 435 194 530 c 256
 228 641 347 713 460 712 c 256
 557 711 618 651 636 559 c 257
 532 504 l 257
 519 554 501 604 441 605 c 256
 390 606 330 571 312 522 c 256
 287 456 371 426 417 403 c 256
 503 362 549 288 520 192 c 256
 483 68 360 -15 232 -14 c 256
 116 -13 56 73 40 179 c 257
 144 236 l 257
181 -72 m 257
 283 -105 l 257
 88 -349 l 257
 11 -326 l 257
 181 -72 l 257
EndSplineSet
EndChar

StartChar: uni0219
Encoding: 537 537 337
Width: 399
VWidth: 0
Flags: HMW
LayerCount: 2
Fore
SplineSet
81 165 m 257
 94 120 118 79 174 79 c 256
 205 78 246 96 257 127 c 256
 272 169 215 191 185 207 c 256
 131 236 87 280 107 345 c 256
 131 424 222 468 299 469 c 256
 366 470 417 440 448 387 c 257
 374 325 l 257
 351 354 325 379 285 379 c 256
 259 379 216 365 208 337 c 256
 196 298 262 280 287 267 c 256
 341 240 383 193 366 129 c 256
 342 39 250 -14 161 -13 c 256
 77 -13 23 35 1 104 c 257
 81 165 l 257
111 -71 m 257
 212 -104 l 257
 17 -348 l 257
 -60 -325 l 257
 111 -71 l 257
EndSplineSet
EndChar

StartChar: pi
Encoding: 960 960 338
Width: 532
VWidth: 0
Flags: HMW
LayerCount: 2
Fore
SplineSet
174 429 m 257
 281 430 l 257
 130 0 l 257
 30 0 l 257
 174 429 l 257
129 460 m 257
 601 460 l 257
 567 364 l 257
 95 364 l 257
 129 460 l 257
411 430 m 257
 516 430 l 257
 419 156 l 257
 408 117 409 102 446 87 c 257
 415 -8 l 257
 329 -2 280 28 306 121 c 257
 411 430 l 257
EndSplineSet
EndChar

StartChar: trademark
Encoding: 8482 8482 339
Width: 656
VWidth: 0
Flags: HMW
LayerCount: 2
Fore
SplineSet
194 646 m 257
 212 699 l 257
 446 699 l 257
 428 646 l 257
 341 645 l 257
 239 351 l 257
 180 351 l 257
 279 645 l 257
 194 646 l 257
693 601 m 257
 781 729 l 257
 695 350 l 257
 635 351 l 257
 693 601 l 257
503 717 m 257
 503 590 l 257
 393 351 l 257
 331 352 l 257
 503 717 l 257
784 729 m 257
 742 613 l 257
 527 380 l 257
 470 627 l 257
 503 717 l 257
 554 484 l 257
 784 729 l 257
EndSplineSet
EndChar

StartChar: uni2219
Encoding: 8729 8729 340
Width: 290
VWidth: 0
Flags: HMW
LayerCount: 2
Fore
SplineSet
168 429 m 256
 177 462 222 498 257 496 c 256
 294 494 314 460 305 425 c 256
 296 392 252 355 217 357 c 256
 180 359 159 394 168 429 c 256
EndSplineSet
EndChar

StartChar: agrave.alt
Encoding: 65537 -1 341
Width: 554
VWidth: 0
Flags: HMW
LayerCount: 2
Fore
SplineSet
494 459 m 257
 600 460 l 257
 441 0 l 257
 339 0 l 257
 494 459 l 257
53 230 m 256
 91 351 208 471 342 470 c 256
 474 469 484 329 452 230 c 256
 416 116 323 -8 193 -9 c 256
 60 -10 18 120 53 230 c 256
163 230 m 256
 140 167 156 87 236 86 c 256
 315 85 387 161 413 230 c 256
 434 289 424 370 348 374 c 256
 266 378 189 301 163 230 c 256
291 683 m 257
 389 726 l 257
 480 562 l 257
 416 530 l 257
 291 683 l 257
EndSplineSet
EndChar

StartChar: aacute.alt
Encoding: 65538 -1 342
Width: 554
VWidth: 0
Flags: HMW
LayerCount: 2
Fore
SplineSet
494 459 m 257
 600 460 l 257
 441 1 l 257
 339 0 l 257
 494 459 l 257
53 230 m 256
 91 351 208 471 342 470 c 256
 474 469 484 329 452 230 c 256
 416 116 323 -8 193 -9 c 256
 60 -10 18 120 53 230 c 256
163 230 m 256
 140 167 156 87 236 86 c 256
 315 85 387 161 413 230 c 256
 434 289 424 370 348 374 c 256
 266 378 189 301 163 230 c 256
571 675 m 257
 355 532 l 257
 301 570 l 257
 494 724 l 257
 571 675 l 257
EndSplineSet
EndChar

StartChar: acircumflex.alt
Encoding: 65539 -1 343
Width: 554
VWidth: 0
Flags: HMW
LayerCount: 2
Fore
SplineSet
494 459 m 257
 600 460 l 257
 441 0 l 257
 339 0 l 257
 494 459 l 257
53 230 m 256
 91 351 208 471 342 470 c 256
 474 469 484 329 452 230 c 256
 416 116 323 -8 193 -9 c 256
 60 -10 18 120 53 230 c 256
163 230 m 256
 140 167 156 87 236 86 c 256
 315 85 387 161 413 230 c 256
 434 289 424 370 348 374 c 256
 266 378 189 301 163 230 c 256
443 620 m 257
 314 531 l 257
 257 587 l 257
 466 723 l 257
 590 580 l 257
 507 530 l 257
 443 620 l 257
EndSplineSet
EndChar

StartChar: atilde.alt
Encoding: 65540 -1 344
Width: 554
VWidth: 0
Flags: HMW
LayerCount: 2
Fore
SplineSet
494 459 m 257
 600 460 l 257
 441 0 l 257
 339 0 l 257
 494 459 l 257
53 230 m 256
 91 351 208 471 342 470 c 256
 474 469 484 329 452 230 c 256
 416 116 323 -8 193 -9 c 256
 60 -10 18 120 53 230 c 256
163 230 m 256
 140 167 156 87 236 86 c 256
 315 85 387 161 413 230 c 256
 434 289 424 370 348 374 c 256
 266 378 189 301 163 230 c 256
256 582 m 257
 287 625 331 665 384 665 c 256
 425 665 447 616 489 619 c 256
 519 621 544 649 565 667 c 257
 605 608 l 257
 573 574 524 530 472 534 c 256
 432 537 410 586 369 582 c 256
 339 579 320 554 303 533 c 257
 256 582 l 257
EndSplineSet
EndChar

StartChar: adieresis.alt
Encoding: 65541 -1 345
Width: 554
VWidth: 0
Flags: HMW
LayerCount: 2
Fore
SplineSet
494 459 m 257
 600 460 l 257
 441 0 l 257
 339 0 l 257
 494 459 l 257
53 230 m 256
 91 351 208 471 342 470 c 256
 474 469 484 329 452 230 c 256
 416 116 323 -8 193 -9 c 256
 60 -10 18 120 53 230 c 256
163 230 m 256
 140 167 156 87 236 86 c 256
 315 85 387 161 413 230 c 256
 434 289 424 370 348 374 c 256
 266 378 189 301 163 230 c 256
462 599 m 256
 470 631 513 664 546 662 c 256
 580 660 602 628 594 594 c 256
 586 562 542 529 509 531 c 256
 475 533 454 565 462 599 c 256
257 599 m 256
 265 631 308 664 341 662 c 256
 375 660 396 628 388 594 c 256
 380 562 337 529 304 531 c 256
 270 533 249 565 257 599 c 256
EndSplineSet
EndChar

StartChar: aring.alt
Encoding: 65542 -1 346
Width: 554
VWidth: 0
Flags: HMW
LayerCount: 2
Fore
SplineSet
494 459 m 257
 600 460 l 257
 441 0 l 257
 339 0 l 257
 494 459 l 257
53 230 m 256
 91 351 208 471 342 470 c 256
 474 469 484 329 452 230 c 256
 416 116 323 -8 193 -9 c 256
 60 -10 18 120 53 230 c 256
163 230 m 256
 140 167 156 87 236 86 c 256
 315 85 387 161 413 230 c 256
 434 289 424 370 348 374 c 256
 266 378 189 301 163 230 c 256
293 637 m 256
 309 692 372 743 430 742 c 256
 488 741 523 689 507 634 c 256
 491 579 428 530 369 531 c 256
 311 532 277 583 293 637 c 256
354 635 m 256
 348 616 356 587 378 586 c 256
 401 585 441 616 447 637 c 256
 453 656 443 684 421 685 c 256
 397 686 360 656 354 635 c 256
EndSplineSet
EndChar

StartChar: amacron.alt
Encoding: 65543 -1 347
Width: 554
VWidth: 0
Flags: HMW
LayerCount: 2
Fore
SplineSet
494 459 m 257
 600 460 l 257
 441 0 l 257
 339 0 l 257
 494 459 l 257
53 230 m 256
 91 351 208 471 342 470 c 256
 474 469 484 329 452 230 c 256
 416 116 323 -8 193 -9 c 256
 60 -10 18 120 53 230 c 256
163 230 m 256
 140 167 156 87 236 86 c 256
 315 85 387 161 413 230 c 256
 434 289 424 370 348 374 c 256
 266 378 189 301 163 230 c 256
229 546 m 257
 262 643 l 257
 604 643 l 257
 570 545 l 257
 229 546 l 257
EndSplineSet
EndChar

StartChar: abreve.alt
Encoding: 65544 -1 348
Width: 554
VWidth: 0
Flags: HMW
LayerCount: 2
Fore
SplineSet
494 459 m 257
 600 460 l 257
 441 0 l 257
 339 0 l 257
 494 459 l 257
53 230 m 256
 91 351 208 471 342 470 c 256
 474 469 484 329 452 230 c 256
 416 116 323 -8 193 -9 c 256
 60 -10 18 120 53 230 c 256
163 230 m 256
 140 167 156 87 236 86 c 256
 315 85 387 161 413 230 c 256
 434 289 424 370 348 374 c 256
 266 378 189 301 163 230 c 256
254 672 m 257
 332 671 l 257
 331 636 337 607 379 605 c 256
 424 603 454 637 477 671 c 257
 559 670 l 257
 524 592 460 531 369 531 c 256
 281 531 244 591 254 672 c 257
EndSplineSet
EndChar

StartChar: aogonek.alt
Encoding: 65545 -1 349
Width: 554
VWidth: 0
Flags: HMW
LayerCount: 2
Fore
SplineSet
494 459 m 257
 600 460 l 257
 441 1 l 257
 339 0 l 257
 494 459 l 257
53 230 m 256
 91 351 208 471 342 470 c 256
 474 469 484 329 452 230 c 256
 416 116 323 -8 193 -9 c 256
 60 -10 18 120 53 230 c 256
163 230 m 256
 140 167 156 87 236 86 c 256
 315 85 387 161 413 230 c 256
 434 289 424 370 348 374 c 256
 266 378 189 301 163 230 c 256
388 -122 m 257
 402 -183 l 257
 372 -203 341 -219 305 -219 c 256
 246 -220 202 -180 219 -119 c 256
 240 -45 329 -6 392 24 c 257
 429 0 l 257
 390 -24 326 -49 312 -98 c 256
 307 -117 311 -137 333 -141 c 256
 351 -144 373 -130 388 -122 c 257
EndSplineSet
EndChar

StartChar: dagger
Encoding: 8224 8224 350
Width: 560
VWidth: 0
Flags: HMW
LayerCount: 2
Fore
SplineSet
215 540 m 257
 611 540 l 257
 579 444 l 257
 184 444 l 257
 215 540 l 257
409 700 m 257
 515 700 l 257
 250 -150 l 257
 150 -149 l 257
 409 700 l 257
EndSplineSet
EndChar

StartChar: daggerdbl
Encoding: 8225 8225 351
Width: 560
VWidth: 0
Flags: HMW
LayerCount: 2
Fore
SplineSet
90 136 m 257
 487 136 l 257
 455 40 l 257
 60 40 l 257
 90 136 l 257
215 540 m 257
 611 540 l 257
 579 444 l 257
 184 444 l 257
 215 540 l 257
409 700 m 257
 515 700 l 257
 250 -150 l 257
 150 -149 l 257
 409 700 l 257
EndSplineSet
EndChar

StartChar: ellipsis
Encoding: 8230 8230 352
Width: 855
VWidth: 0
Flags: HMW
LayerCount: 2
Fore
SplineSet
40 54 m 256
 49 87 94 123 129 121 c 256
 166 119 186 85 177 50 c 256
 168 17 124 -20 89 -18 c 256
 52 -16 31 19 40 54 c 256
322 54 m 256
 331 87 376 123 411 121 c 256
 448 119 469 85 460 50 c 256
 451 17 406 -20 371 -18 c 256
 334 -16 313 19 322 54 c 256
605 54 m 256
 614 87 658 123 693 121 c 256
 730 119 751 85 742 50 c 256
 733 17 689 -20 654 -18 c 256
 617 -16 596 19 605 54 c 256
EndSplineSet
EndChar

StartChar: uniFF10
Encoding: 65296 65296 353
Width: 564
VWidth: 0
Flags: HMW
LayerCount: 2
Fore
SplineSet
203 350 m 256
 178 280 131 101 254 97 c 256
 378 93 457 252 492 350 c 256
 517 420 565 599 442 603 c 256
 318 607 238 448 203 350 c 256
89 350 m 256
 142 511 273 712 463 711 c 256
 657 710 650 485 606 350 c 256
 553 189 423 -12 232 -11 c 256
 38 -10 45 215 89 350 c 256
EndSplineSet
EndChar

StartChar: uniFF11
Encoding: 65297 65297 354
Width: 564
VWidth: 0
Flags: HMW
LayerCount: 2
Fore
SplineSet
230 534 m 257
 272 650 l 257
 561 713 l 257
 316 0 l 257
 202 0 l 257
 400 577 l 257
 230 534 l 257
EndSplineSet
EndChar

StartChar: uniFF12
Encoding: 65298 65298 355
Width: 564
VWidth: 0
Flags: HMW
LayerCount: 2
Fore
SplineSet
-38 0 m 257
 378 341 l 258
 429 382 492 431 514 496 c 256
 532 548 512 601 451 604 c 256
 362 608 303 523 269 453 c 257
 154 454 l 257
 206 589 320 714 476 712 c 256
 598 711 667 609 631 494 c 256
 607 416 543 353 480 304 c 258
 228 112 l 257
 510 111 l 257
 472 0 l 257
 -38 0 l 257
EndSplineSet
EndChar

StartChar: uniFF13
Encoding: 65299 65299 356
Width: 564
VWidth: 0
Flags: HMW
LayerCount: 2
Fore
SplineSet
318 343 m 257
 337 406 l 257
 404 417 480 445 505 516 c 256
 520 560 508 607 455 609 c 256
 393 611 348 562 319 514 c 257
 209 515 l 257
 255 624 350 711 474 711 c 256
 580 711 656 627 623 521 c 256
 583 392 438 350 318 343 c 257
238 -12 m 256
 110 -11 48 81 71 201 c 257
 185 200 l 257
 177 141 193 94 261 92 c 256
 327 90 392 139 415 201 c 256
 445 283 375 309 308 317 c 257
 329 384 l 257
 445 377 570 327 527 187 c 256
 489 66 362 -13 238 -12 c 256
EndSplineSet
EndChar

StartChar: uniFF14
Encoding: 65300 65300 357
Width: 564
VWidth: 0
Flags: HMW
LayerCount: 2
Fore
SplineSet
-1 134 m 257
 125 227 l 257
 398 228 l 257
 418 237 l 257
 572 237 l 257
 536 134 l 257
 -1 134 l 257
129 156 m 257
 -4 132 l 257
 555 698 l 257
 629 699 l 257
 390 0 l 257
 270 0 l 257
 329 169 l 257
 340 180 l 257
 442 474 l 257
 129 156 l 257
EndSplineSet
EndChar

StartChar: uniFF15
Encoding: 65301 65301 358
Width: 564
VWidth: 0
Flags: HMW
LayerCount: 2
Fore
SplineSet
549 227 m 256
 506 90 372 -10 228 -11 c 256
 129 -11 60 37 15 114 c 257
 105 198 l 257
 130 145 171 102 237 101 c 256
 319 100 401 157 428 235 c 256
 452 304 416 364 342 368 c 256
 272 371 205 343 142 317 c 257
 234 388 l 257
 287 428 353 461 421 460 c 256
 548 458 582 332 549 227 c 256
417 595 m 257
 294 399 l 257
 130 306 l 257
 359 699 l 257
 704 700 l 257
 669 596 l 257
 417 595 l 257
EndSplineSet
EndChar

StartChar: uniFF16
Encoding: 65302 65302 359
Width: 564
VWidth: 0
Flags: HMW
LayerCount: 2
Fore
SplineSet
177 236 m 256
 153 171 174 94 253 93 c 256
 335 92 413 163 440 237 c 256
 464 302 445 381 365 382 c 256
 282 384 204 310 177 236 c 256
484 698 m 257
 639 698 l 257
 334 426 l 257
 311 426 l 257
 346 448 381 464 424 463 c 256
 547 461 584 337 553 236 c 256
 511 99 376 -12 231 -12 c 256
 89 -12 25 108 65 236 c 256
 85 300 127 356 174 402 c 258
 484 698 l 257
EndSplineSet
EndChar

StartChar: uniFF17
Encoding: 65303 65303 360
Width: 564
VWidth: 0
Flags: HMW
LayerCount: 2
Fore
SplineSet
191 588 m 257
 230 700 l 257
 730 699 l 257
 172 0 l 257
 42 0 l 257
 514 586 l 257
 191 588 l 257
EndSplineSet
EndChar

StartChar: uniFF18
Encoding: 65304 65304 361
Width: 564
VWidth: 0
Flags: HMW
LayerCount: 2
Fore
SplineSet
214 532 m 256
 247 637 361 713 469 712 c 256
 571 711 645 633 615 530 c 256
 583 422 471 351 361 351 c 256
 257 351 182 427 214 532 c 256
318 518 m 256
 303 474 319 424 371 421 c 256
 425 418 484 471 502 519 c 256
 518 563 503 614 450 617 c 256
 395 620 336 568 318 518 c 256
74 191 m 256
 110 310 238 393 360 392 c 256
 475 392 558 305 522 189 c 256
 486 72 357 -13 236 -12 c 256
 123 -11 40 78 74 191 c 256
192 206 m 256
 172 151 193 91 257 89 c 256
 323 87 394 146 416 207 c 256
 434 259 412 320 350 322 c 256
 285 324 214 264 192 206 c 256
EndSplineSet
EndChar

StartChar: uniFF19
Encoding: 65305 65305 362
Width: 564
VWidth: 0
Flags: HMW
LayerCount: 2
Fore
SplineSet
518 464 m 256
 542 529 522 606 443 607 c 256
 361 608 282 537 255 463 c 256
 231 398 250 319 330 318 c 256
 413 316 491 390 518 464 c 256
212 2 m 257
 57 2 l 257
 361 274 l 257
 385 274 l 257
 350 252 315 236 272 237 c 256
 149 239 111 363 142 464 c 256
 184 601 319 712 464 712 c 256
 606 712 671 592 631 464 c 256
 611 400 568 344 521 298 c 258
 212 2 l 257
EndSplineSet
EndChar

StartChar: caron
Encoding: 711 711 363
Width: 451
VWidth: 0
Flags: HMW
LayerCount: 2
Fore
SplineSet
392 665 m 257
 520 754 l 257
 577 698 l 257
 369 562 l 257
 245 705 l 257
 327 755 l 257
 392 665 l 257
EndSplineSet
EndChar

StartChar: napostrophe
Encoding: 329 329 364
Width: 640
VWidth: 0
Flags: HMW
LayerCount: 2
Fore
SplineSet
402 460 m 257
 243 0 l 257
 135 0 l 257
 294 460 l 257
 402 460 l 257
513 280 m 257
 526 322 532 377 474 381 c 256
 412 385 367 329 339 282 c 257
 304 279 l 257
 343 370 415 469 525 470 c 256
 631 471 649 378 624 293 c 257
 523 0 l 257
 416 0 l 257
 513 280 l 257
296 699 m 257
 420 699 l 257
 240 461 l 257
 161 461 l 257
 296 699 l 257
EndSplineSet
EndChar

StartChar: IJ
Encoding: 306 306 365
Width: 513
VWidth: 0
Flags: HMW
LayerCount: 2
Fore
SplineSet
97 -88 m 257
 114 -107 132 -124 160 -122 c 256
 206 -119 239 -74 256 -35 c 257
 509 700 l 257
 628 700 l 257
 370 -58 l 257
 333 -156 248 -228 141 -227 c 256
 89 -226 50 -206 12 -173 c 257
 97 -88 l 257
255 699 m 257
 375 700 l 257
 134 0 l 257
 18 0 l 257
 255 699 l 257
EndSplineSet
EndChar

StartChar: ij
Encoding: 307 307 366
Width: 492
VWidth: 0
Flags: HMW
LayerCount: 2
Fore
SplineSet
467 645 m 256
 475 677 519 710 552 708 c 256
 586 706 607 674 599 640 c 256
 591 608 548 576 515 578 c 256
 481 580 459 611 467 645 c 256
134 -100 m 257
 143 -100 159 -124 170 -125 c 256
 209 -129 234 -71 245 -43 c 257
 419 460 l 257
 524 460 l 257
 345 -66 l 258
 314 -148 249 -230 152 -227 c 256
 113 -226 88 -207 61 -180 c 257
 134 -100 l 257
225 645 m 256
 233 677 276 710 309 708 c 256
 343 706 365 674 357 640 c 256
 349 608 305 576 272 578 c 256
 238 580 217 611 225 645 c 256
174 459 m 257
 282 460 l 257
 122 0 l 257
 20 0 l 257
 174 459 l 257
EndSplineSet
EndChar

StartChar: uni0237
Encoding: 567 567 367
Width: 243
VWidth: 0
Flags: HMW
LayerCount: 2
Fore
SplineSet
-116 -100 m 257
 -107 -112 -97 -125 -80 -125 c 256
 -40 -125 -17 -74 -4 -43 c 257
 169 460 l 257
 275 460 l 257
 96 -66 l 258
 65 -148 0 -230 -97 -227 c 256
 -136 -226 -162 -207 -188 -180 c 257
 -116 -100 l 257
EndSplineSet
EndChar

StartChar: Sacute
Encoding: 346 346 368
Width: 545
VWidth: 0
Flags: HMW
LayerCount: 2
Fore
SplineSet
144 236 m 257
 155 169 177 94 259 94 c 256
 318 93 376 133 397 188 c 256
 424 260 358 296 303 323 c 256
 221 364 165 435 194 530 c 256
 228 641 347 713 460 712 c 256
 557 711 618 651 636 559 c 257
 532 504 l 257
 519 554 501 604 441 605 c 256
 390 606 330 571 312 522 c 256
 287 456 371 426 417 403 c 256
 503 362 549 288 520 192 c 256
 483 68 360 -15 232 -14 c 256
 116 -13 56 73 40 179 c 257
 144 236 l 257
710 917 m 257
 494 774 l 257
 439 812 l 257
 632 967 l 257
 710 917 l 257
EndSplineSet
EndChar

StartChar: sacute
Encoding: 347 347 369
Width: 399
VWidth: 0
Flags: HMW
LayerCount: 2
Fore
SplineSet
81 165 m 257
 94 120 118 79 174 79 c 256
 205 78 246 96 257 127 c 256
 272 169 215 191 185 207 c 256
 131 236 87 280 107 345 c 256
 131 424 222 468 299 469 c 256
 366 470 417 440 448 387 c 257
 374 325 l 257
 351 354 325 379 285 379 c 256
 259 379 216 365 208 337 c 256
 196 298 262 280 287 267 c 256
 341 240 383 193 366 129 c 256
 342 39 250 -14 161 -13 c 256
 77 -13 23 35 1 104 c 257
 81 165 l 257
549 675 m 257
 332 532 l 257
 278 570 l 257
 470 724 l 257
 549 675 l 257
EndSplineSet
EndChar

StartChar: Scircumflex
Encoding: 348 348 370
Width: 545
VWidth: 0
Flags: HMW
LayerCount: 2
Fore
SplineSet
144 236 m 257
 155 169 177 94 259 94 c 256
 318 93 376 133 397 188 c 256
 424 260 358 296 303 323 c 256
 221 364 165 435 194 530 c 256
 228 641 347 713 460 712 c 256
 557 711 618 651 636 559 c 257
 532 504 l 257
 519 554 501 604 441 605 c 256
 390 606 330 571 312 522 c 256
 287 456 371 426 417 403 c 256
 503 362 548 288 519 192 c 256
 482 68 360 -15 232 -14 c 256
 116 -13 56 73 40 179 c 257
 144 236 l 257
525 862 m 257
 397 773 l 257
 340 830 l 257
 549 966 l 257
 672 822 l 257
 590 773 l 257
 525 862 l 257
EndSplineSet
EndChar

StartChar: scircumflex
Encoding: 349 349 371
Width: 399
VWidth: 0
Flags: HMW
LayerCount: 2
Fore
SplineSet
81 165 m 257
 94 120 118 79 174 79 c 256
 205 78 246 96 257 127 c 256
 272 169 215 191 185 207 c 256
 131 236 87 280 107 345 c 256
 131 424 222 468 299 469 c 256
 366 470 417 440 448 387 c 257
 374 325 l 257
 351 354 325 379 285 379 c 256
 259 379 216 365 208 337 c 256
 196 298 262 280 287 267 c 256
 341 240 383 193 366 129 c 256
 342 39 250 -14 161 -13 c 256
 77 -13 23 35 1 104 c 257
 81 165 l 257
368 620 m 257
 240 531 l 257
 183 587 l 257
 391 723 l 257
 515 580 l 257
 433 530 l 257
 368 620 l 257
EndSplineSet
EndChar

StartChar: uni1E9E
Encoding: 7838 7838 372
Width: 741
VWidth: 0
Flags: HMW
LayerCount: 2
Fore
SplineSet
417 -12 m 256
 289 -11 233 82 256 201 c 257
 362 200 l 257
 354 141 370 94 438 92 c 256
 504 90 570 139 592 201 c 256
 621 283 552 309 485 317 c 257
 504 379 l 257
 619 373 746 323 703 184 c 256
 666 65 538 -13 417 -12 c 256
496 346 m 257
 514 406 l 257
 580 416 654 443 678 513 c 256
 703 584 627 610 570 610 c 256
 423 609 312 496 262 365 c 257
 136 0 l 257
 18 0 l 257
 147 376 l 258
 213 564 380 709 586 710 c 256
 692 710 842 662 802 528 c 256
 763 397 617 354 496 346 c 257
EndSplineSet
EndChar

StartChar: Zacute
Encoding: 377 377 373
Width: 541
VWidth: 0
Flags: HW
LayerCount: 2
Fore
SplineSet
186 590 m 257
 225 700 l 257
 716 699 l 257
 182 108 l 257
 486 107 l 257
 448 0 l 257
 -49 0 l 257
 484 589 l 257
 186 590 l 257
701 917 m 257
 485 774 l 257
 430 812 l 257
 623 967 l 257
 701 917 l 257
EndSplineSet
EndChar

StartChar: zacute
Encoding: 378 378 374
Width: 456
VWidth: 0
Flags: HW
LayerCount: 2
Fore
SplineSet
328 358 m 257
 113 359 l 257
 148 460 l 257
 552 459 l 257
 182 102 l 257
 403 101 l 257
 367 0 l 257
 -46 0 l 257
 328 358 l 257
585 690 m 257
 368 547 l 257
 314 584 l 257
 507 739 l 257
 585 690 l 257
EndSplineSet
EndChar

StartChar: Zdotaccent
Encoding: 379 379 375
Width: 541
VWidth: 0
Flags: HW
LayerCount: 2
Fore
SplineSet
186 590 m 257
 225 700 l 257
 716 699 l 257
 182 108 l 257
 486 107 l 257
 448 0 l 257
 -49 0 l 257
 484 589 l 257
 186 590 l 257
449 841 m 256
 457 873 501 906 534 904 c 256
 568 902 590 871 582 837 c 256
 574 805 530 772 497 774 c 256
 463 776 441 807 449 841 c 256
EndSplineSet
EndChar

StartChar: zdotaccent
Encoding: 380 380 376
Width: 456
VWidth: 0
Flags: HW
LayerCount: 2
Fore
SplineSet
328 358 m 257
 113 359 l 257
 148 460 l 257
 552 459 l 257
 182 102 l 257
 403 101 l 257
 367 0 l 257
 -46 0 l 257
 328 358 l 257
336 621 m 256
 344 653 388 686 421 684 c 256
 455 682 476 650 468 616 c 256
 460 584 417 551 384 553 c 256
 350 555 328 587 336 621 c 256
EndSplineSet
EndChar

StartChar: Tcaron
Encoding: 356 356 377
Width: 474
VWidth: 0
Flags: HW
LayerCount: 2
Fore
SplineSet
151 590 m 257
 190 700 l 257
 656 700 l 257
 617 590 l 257
 444 590 l 257
 241 0 l 257
 124 0 l 257
 327 590 l 257
 151 590 l 257
476 876 m 257
 604 965 l 257
 661 909 l 257
 453 773 l 257
 329 916 l 257
 411 965 l 257
 476 876 l 257
EndSplineSet
EndChar

StartChar: tcaron
Encoding: 357 357 378
Width: 381
VWidth: 0
Flags: HW
LayerCount: 2
Fore
SplineSet
106 460 m 257
 357 460 l 257
 323 364 l 257
 71 364 l 257
 106 460 l 257
232 619 m 257
 339 620 l 257
 125 0 l 257
 23 0 l 257
 232 619 l 257
525 798 m 257
 627 765 l 257
 432 521 l 257
 356 544 l 257
 525 798 l 257
EndSplineSet
EndChar

StartChar: Uring
Encoding: 366 366 379
Width: 618
VWidth: 0
Flags: HW
LayerCount: 2
Fore
SplineSet
252 700 m 257
 369 700 l 257
 207 235 l 258
 187 169 196 95 280 93 c 256
 366 91 431 161 461 235 c 257
 621 700 l 257
 738 700 l 257
 578 230 l 258
 529 95 407 -17 257 -17 c 256
 113 -17 53 100 91 230 c 256
 252 700 l 257
448 881 m 256
 464 936 527 986 585 985 c 256
 643 984 678 932 662 877 c 256
 646 822 583 773 524 774 c 256
 466 775 432 827 448 881 c 256
508 878 m 256
 502 859 511 832 533 829 c 256
 556 826 596 859 602 880 c 256
 608 899 598 926 576 929 c 256
 553 932 514 899 508 878 c 256
EndSplineSet
EndChar

StartChar: uring
Encoding: 367 367 380
Width: 512
VWidth: 0
Flags: HW
LayerCount: 2
Fore
SplineSet
288 0 m 257
 447 460 l 257
 555 460 l 257
 396 0 l 257
 288 0 l 257
177 180 m 257
 164 138 158 83 216 79 c 256
 278 75 323 131 351 178 c 257
 379 181 l 257
 342 90 274 -9 165 -10 c 256
 59 -11 41 82 66 167 c 257
 167 460 l 257
 274 459 l 257
 177 180 l 257
313 639 m 256
 329 694 392 743 450 742 c 256
 508 741 543 690 527 635 c 256
 511 580 448 530 389 531 c 256
 331 532 297 585 313 639 c 256
373 636 m 256
 367 617 376 590 398 587 c 256
 421 584 460 617 466 638 c 256
 472 657 463 684 441 687 c 256
 418 690 379 657 373 636 c 256
EndSplineSet
EndChar
